%
M48
M72
T01C0.0236
T02C0.0315
T03C0.0320
T04C0.0400
T05C0.1181
T06C0.1300
%
T01
X27082Y6975
T02
X17082Y4475
X16082Y4475
X15082Y4475
X14082Y4475
X13082Y4475
X12082Y4475
X11082Y4475
X10082Y4475
X9082Y4475
X8082Y4475
X7082Y4475
X6082Y4475
X5082Y4475
X4082Y4475
X3082Y4475
X3082Y10475
X4082Y10475
X5082Y10475
X6082Y10475
X7082Y10475
X8082Y10475
X9082Y10475
X10082Y10475
X11082Y10475
X12082Y10475
X13082Y10475
X14082Y10475
X15082Y10475
X16082Y10475
X17082Y10475
T03
X19582Y9975
X19582Y8975
X19582Y7975
X19582Y6975
X19582Y5975
X19582Y4975
X19582Y3975
X24582Y3975
X26082Y3975
X26082Y4975
X24582Y4975
X24582Y5975
X26082Y5975
X26082Y6975
X24582Y6975
X24582Y7975
X26082Y7975
X26082Y8975
X24582Y8975
X24582Y9975
X26082Y9975
X26082Y10975
X24582Y10975
X19582Y10975
X31082Y10975
X32582Y10975
X32582Y9975
X31082Y9975
X31082Y8975
X32582Y8975
X32582Y7975
X31082Y7975
X31082Y6975
X32582Y6975
X32582Y5975
X31082Y5975
X31082Y4975
X32582Y4975
X32582Y3975
X31082Y3975
X37582Y3975
X37582Y4975
X37582Y5975
X37582Y6975
X37582Y7975
X37582Y8975
X37582Y9975
X37582Y10975
T04
X35582Y9975
X34582Y9975
X34582Y8975
X35582Y8975
X35582Y7975
X34582Y7975
X29082Y7975
X28082Y7975
X28082Y8975
X29082Y8975
X29082Y9975
X28082Y9975
X22582Y9975
X21582Y9975
X21582Y8975
X22582Y8975
X22582Y7975
X21582Y7975
X21582Y13225
X22582Y13225
X23582Y13225
X20582Y13225
X17832Y13225
X16832Y13225
X15832Y13225
X14832Y13225
X13832Y13225
X12832Y13225
X11832Y13225
X10832Y13225
X9832Y13225
X8832Y13225
X7832Y13225
X6832Y13225
X5832Y13225
X4832Y13225
X3832Y13225
X27082Y13225
X28082Y13225
X29082Y13225
X30082Y13225
X33582Y13225
X34582Y13225
X35582Y13225
X36582Y13225
X36582Y1725
X35582Y1725
X34582Y1725
X33582Y1725
X30082Y1725
X29082Y1725
X28082Y1725
X27082Y1725
X23582Y1725
X22582Y1725
X21582Y1725
X20582Y1725
X17832Y1725
X16832Y1725
X15832Y1725
X14832Y1725
X13832Y1725
X12832Y1725
X11832Y1725
X10832Y1725
X9832Y1725
X8832Y1725
X7832Y1725
X6832Y1725
X5832Y1725
X4832Y1725
X3832Y1725
T05
X4334Y6039
X3192Y7889
X5515Y7889
T06
X2332Y1225
X2332Y13725
X38332Y13725
X38332Y1225
M30
