G75*
%MOIN*%
%OFA0B0*%
%FSLAX24Y24*%
%IPPOS*%
%LPD*%
%AMOC8*
5,1,8,0,0,1.08239X$1,22.5*
%
%ADD10R,0.0700X0.0700*%
%ADD11C,0.0700*%
%ADD12C,0.0740*%
%ADD13C,0.1890*%
%ADD14C,0.0520*%
%ADD15OC8,0.0740*%
%ADD16R,0.0740X0.0740*%
%ADD17C,0.0120*%
%ADD18C,0.0396*%
%ADD19C,0.0160*%
D10*
X017082Y010475D03*
D11*
X016082Y010475D03*
X015082Y010475D03*
X014082Y010475D03*
X013082Y010475D03*
X012082Y010475D03*
X011082Y010475D03*
X010082Y010475D03*
X009082Y010475D03*
X008082Y010475D03*
X007082Y010475D03*
X006082Y010475D03*
X005082Y010475D03*
X004082Y010475D03*
X003082Y010475D03*
X003082Y004475D03*
X004082Y004475D03*
X005082Y004475D03*
X006082Y004475D03*
X007082Y004475D03*
X008082Y004475D03*
X009082Y004475D03*
X010082Y004475D03*
X011082Y004475D03*
X012082Y004475D03*
X013082Y004475D03*
X014082Y004475D03*
X015082Y004475D03*
X016082Y004475D03*
X017082Y004475D03*
D12*
X016832Y001725D03*
X017832Y001725D03*
X015832Y001725D03*
X014832Y001725D03*
X013832Y001725D03*
X012832Y001725D03*
X011832Y001725D03*
X010832Y001725D03*
X009832Y001725D03*
X008832Y001725D03*
X007832Y001725D03*
X006832Y001725D03*
X005832Y001725D03*
X004832Y001725D03*
X003832Y001725D03*
X021582Y001725D03*
X022582Y001725D03*
X023582Y001725D03*
X028082Y001725D03*
X029082Y001725D03*
X030082Y001725D03*
X034582Y001725D03*
X035582Y001725D03*
X036582Y001725D03*
X036582Y013225D03*
X035582Y013225D03*
X034582Y013225D03*
X030082Y013225D03*
X029082Y013225D03*
X028082Y013225D03*
X023582Y013225D03*
X022582Y013225D03*
X021582Y013225D03*
X017832Y013225D03*
X016832Y013225D03*
X015832Y013225D03*
X014832Y013225D03*
X013832Y013225D03*
X012832Y013225D03*
X011832Y013225D03*
X010832Y013225D03*
X009832Y013225D03*
X008832Y013225D03*
X007832Y013225D03*
X006832Y013225D03*
X005832Y013225D03*
X004832Y013225D03*
X003832Y013225D03*
D13*
X003192Y007889D03*
X005515Y007889D03*
X004334Y006039D03*
D14*
X019322Y005975D02*
X019842Y005975D01*
X019842Y004975D02*
X019322Y004975D01*
X019322Y003975D02*
X019842Y003975D01*
X024322Y003975D02*
X024842Y003975D01*
X025822Y003975D02*
X026342Y003975D01*
X026342Y004975D02*
X025822Y004975D01*
X024842Y004975D02*
X024322Y004975D01*
X024322Y005975D02*
X024842Y005975D01*
X025822Y005975D02*
X026342Y005975D01*
X026342Y006975D02*
X025822Y006975D01*
X024842Y006975D02*
X024322Y006975D01*
X024322Y007975D02*
X024842Y007975D01*
X025822Y007975D02*
X026342Y007975D01*
X026342Y008975D02*
X025822Y008975D01*
X024842Y008975D02*
X024322Y008975D01*
X024322Y009975D02*
X024842Y009975D01*
X025822Y009975D02*
X026342Y009975D01*
X026342Y010975D02*
X025822Y010975D01*
X024842Y010975D02*
X024322Y010975D01*
X019842Y010975D02*
X019322Y010975D01*
X019322Y009975D02*
X019842Y009975D01*
X019842Y008975D02*
X019322Y008975D01*
X019322Y007975D02*
X019842Y007975D01*
X019842Y006975D02*
X019322Y006975D01*
X030822Y006975D02*
X031342Y006975D01*
X032322Y006975D02*
X032842Y006975D01*
X032842Y007975D02*
X032322Y007975D01*
X031342Y007975D02*
X030822Y007975D01*
X030822Y008975D02*
X031342Y008975D01*
X032322Y008975D02*
X032842Y008975D01*
X032842Y009975D02*
X032322Y009975D01*
X031342Y009975D02*
X030822Y009975D01*
X030822Y010975D02*
X031342Y010975D01*
X032322Y010975D02*
X032842Y010975D01*
X037322Y010975D02*
X037842Y010975D01*
X037842Y009975D02*
X037322Y009975D01*
X037322Y008975D02*
X037842Y008975D01*
X037842Y007975D02*
X037322Y007975D01*
X037322Y006975D02*
X037842Y006975D01*
X037842Y005975D02*
X037322Y005975D01*
X037322Y004975D02*
X037842Y004975D01*
X037842Y003975D02*
X037322Y003975D01*
X032842Y003975D02*
X032322Y003975D01*
X031342Y003975D02*
X030822Y003975D01*
X030822Y004975D02*
X031342Y004975D01*
X032322Y004975D02*
X032842Y004975D01*
X032842Y005975D02*
X032322Y005975D01*
X031342Y005975D02*
X030822Y005975D01*
D15*
X029082Y007975D03*
X028082Y007975D03*
X028082Y008975D03*
X029082Y008975D03*
X029082Y009975D03*
X028082Y009975D03*
X022582Y009975D03*
X021582Y009975D03*
X021582Y008975D03*
X022582Y008975D03*
X022582Y007975D03*
X021582Y007975D03*
X034582Y007975D03*
X035582Y007975D03*
X035582Y008975D03*
X034582Y008975D03*
X034582Y009975D03*
X035582Y009975D03*
D16*
X033582Y013225D03*
X027082Y013225D03*
X020582Y013225D03*
X020582Y001725D03*
X027082Y001725D03*
X033582Y001725D03*
D17*
X003367Y000797D02*
X003302Y000685D01*
X037362Y000685D01*
X037298Y000797D01*
X037222Y001079D01*
X037222Y001371D01*
X037298Y001653D01*
X037444Y001907D01*
X037651Y002113D01*
X037904Y002259D01*
X038186Y002335D01*
X038478Y002335D01*
X038761Y002259D01*
X038992Y002126D01*
X038992Y012824D01*
X038761Y012691D01*
X038478Y012615D01*
X038186Y012615D01*
X037904Y012691D01*
X037651Y012837D01*
X037444Y013043D01*
X037298Y013297D01*
X037222Y013579D01*
X037222Y013871D01*
X037298Y014153D01*
X037360Y014261D01*
X030763Y014261D01*
X033481Y011307D01*
X033542Y011246D01*
X033542Y011241D01*
X033546Y011237D01*
X033542Y011150D01*
X033542Y004704D01*
X033413Y004575D01*
X033111Y004272D01*
X033181Y004202D01*
X033242Y004055D01*
X033242Y003895D01*
X033181Y003748D01*
X033069Y003636D01*
X032922Y003575D01*
X032243Y003575D01*
X032096Y003636D01*
X031983Y003748D01*
X031922Y003895D01*
X031922Y004055D01*
X031983Y004202D01*
X032096Y004314D01*
X032243Y004375D01*
X032591Y004375D01*
X032791Y004575D01*
X032243Y004575D01*
X032096Y004636D01*
X032037Y004695D01*
X031973Y004695D01*
X031742Y004464D01*
X031613Y004335D01*
X031561Y004335D01*
X031562Y004334D01*
X031616Y004295D01*
X031663Y004249D01*
X031701Y004195D01*
X031732Y004136D01*
X031752Y004073D01*
X031762Y004008D01*
X031762Y003995D01*
X031102Y003995D01*
X031102Y003955D01*
X031102Y003555D01*
X031375Y003555D01*
X031441Y003565D01*
X031504Y003586D01*
X031562Y003616D01*
X031616Y003655D01*
X031663Y003701D01*
X031701Y003755D01*
X031732Y003814D01*
X031752Y003877D01*
X031762Y003942D01*
X031762Y003955D01*
X031102Y003955D01*
X031062Y003955D01*
X030402Y003955D01*
X030402Y003942D01*
X030413Y003877D01*
X030433Y003814D01*
X030463Y003755D01*
X030502Y003701D01*
X030549Y003655D01*
X030602Y003616D01*
X030661Y003586D01*
X030724Y003565D01*
X030789Y003555D01*
X031062Y003555D01*
X031062Y003955D01*
X031062Y003995D01*
X030402Y003995D01*
X030402Y004008D01*
X030413Y004073D01*
X030433Y004136D01*
X030463Y004195D01*
X030502Y004249D01*
X030549Y004295D01*
X030602Y004334D01*
X030604Y004335D01*
X030471Y004335D01*
X026751Y008055D01*
X026736Y008070D01*
X026742Y008055D01*
X026742Y007895D01*
X026681Y007748D01*
X026569Y007636D01*
X026422Y007575D01*
X025743Y007575D01*
X025596Y007636D01*
X025483Y007748D01*
X025422Y007895D01*
X025422Y008055D01*
X025483Y008202D01*
X025596Y008314D01*
X025743Y008375D01*
X026422Y008375D01*
X026569Y008314D01*
X026622Y008261D01*
X026622Y008689D01*
X026569Y008636D01*
X026422Y008575D01*
X025743Y008575D01*
X025596Y008636D01*
X025483Y008748D01*
X025422Y008895D01*
X025422Y009055D01*
X025483Y009202D01*
X025596Y009314D01*
X025743Y009375D01*
X026422Y009375D01*
X026569Y009314D01*
X026622Y009261D01*
X026622Y009689D01*
X026569Y009636D01*
X026422Y009575D01*
X025743Y009575D01*
X025596Y009636D01*
X025483Y009748D01*
X025422Y009895D01*
X025422Y010055D01*
X025483Y010202D01*
X025596Y010314D01*
X025743Y010375D01*
X026422Y010375D01*
X026569Y010314D01*
X026622Y010261D01*
X026622Y010689D01*
X026569Y010636D01*
X026422Y010575D01*
X025743Y010575D01*
X025596Y010636D01*
X025483Y010748D01*
X025422Y010895D01*
X025422Y011055D01*
X025483Y011202D01*
X025596Y011314D01*
X025743Y011375D01*
X026343Y011375D01*
X024105Y013825D01*
X018600Y013825D01*
X020762Y011427D01*
X020822Y011366D01*
X020822Y011360D01*
X020827Y011355D01*
X020822Y011269D01*
X020822Y008126D01*
X021072Y007876D01*
X021072Y008186D01*
X021361Y008475D01*
X021072Y008764D01*
X021072Y009186D01*
X021361Y009475D01*
X021072Y009764D01*
X021072Y010186D01*
X021371Y010485D01*
X021794Y010485D01*
X022082Y010196D01*
X022103Y010217D01*
X020442Y012094D01*
X020382Y012154D01*
X020382Y012162D01*
X020377Y012167D01*
X020382Y012252D01*
X020382Y012715D01*
X020154Y012715D01*
X020072Y012797D01*
X020072Y013653D01*
X020154Y013735D01*
X021010Y013735D01*
X021092Y013653D01*
X021092Y013431D01*
X021129Y013503D01*
X021178Y013570D01*
X021237Y013629D01*
X021305Y013678D01*
X021379Y013716D01*
X021458Y013742D01*
X021541Y013755D01*
X021542Y013755D01*
X021542Y013265D01*
X021622Y013265D01*
X021622Y013755D01*
X021624Y013755D01*
X021706Y013742D01*
X021786Y013716D01*
X021860Y013678D01*
X021928Y013629D01*
X021987Y013570D01*
X022036Y013503D01*
X022073Y013428D01*
X022082Y013401D01*
X022091Y013428D01*
X022129Y013503D01*
X022178Y013570D01*
X022237Y013629D01*
X022305Y013678D01*
X022379Y013716D01*
X022458Y013742D01*
X022541Y013755D01*
X022542Y013755D01*
X022542Y013265D01*
X022542Y013185D01*
X022052Y013185D01*
X021622Y013185D01*
X021622Y012695D01*
X021624Y012695D01*
X021706Y012708D01*
X021786Y012734D01*
X021860Y012772D01*
X021928Y012821D01*
X021987Y012880D01*
X022036Y012947D01*
X022073Y013022D01*
X022082Y013049D01*
X022091Y013022D01*
X022129Y012947D01*
X022178Y012880D01*
X022237Y012821D01*
X022305Y012772D01*
X022379Y012734D01*
X022458Y012708D01*
X022541Y012695D01*
X022542Y012695D01*
X022542Y013185D01*
X022622Y013185D01*
X022622Y012695D01*
X022624Y012695D01*
X022706Y012708D01*
X022786Y012734D01*
X022860Y012772D01*
X022928Y012821D01*
X022987Y012880D01*
X023036Y012947D01*
X023073Y013022D01*
X023092Y013077D01*
X023150Y012936D01*
X023293Y012793D01*
X023481Y012715D01*
X023684Y012715D01*
X023871Y012793D01*
X024015Y012936D01*
X024092Y013124D01*
X024092Y013326D01*
X024015Y013514D01*
X023871Y013657D01*
X023684Y013735D01*
X023481Y013735D01*
X023293Y013657D01*
X023150Y013514D01*
X023092Y013373D01*
X023073Y013428D01*
X023036Y013503D01*
X022987Y013570D01*
X022928Y013629D01*
X022860Y013678D01*
X022786Y013716D01*
X022706Y013742D01*
X022624Y013755D01*
X022622Y013755D01*
X022622Y013265D01*
X022542Y013265D01*
X021622Y013265D01*
X021622Y013185D01*
X021542Y013185D01*
X021542Y012695D01*
X021541Y012695D01*
X021458Y012708D01*
X021379Y012734D01*
X021305Y012772D01*
X021237Y012821D01*
X021178Y012880D01*
X021129Y012947D01*
X021092Y013019D01*
X021092Y012797D01*
X021010Y012715D01*
X020822Y012715D01*
X020822Y012328D01*
X022453Y010485D01*
X022794Y010485D01*
X023092Y010186D01*
X023092Y009764D01*
X022862Y009534D01*
X022862Y009416D01*
X023092Y009186D01*
X023092Y008764D01*
X022862Y008534D01*
X022862Y008416D01*
X023092Y008186D01*
X023092Y007764D01*
X022862Y007534D01*
X022862Y007046D01*
X023922Y005986D01*
X023922Y006055D01*
X023983Y006202D01*
X024096Y006314D01*
X024243Y006375D01*
X024922Y006375D01*
X025069Y006314D01*
X025181Y006202D01*
X025242Y006055D01*
X025242Y005895D01*
X025181Y005748D01*
X025069Y005636D01*
X024922Y005575D01*
X024333Y005575D01*
X024533Y005375D01*
X024922Y005375D01*
X025069Y005314D01*
X025181Y005202D01*
X025484Y005202D01*
X025483Y005202D02*
X025456Y005135D01*
X025311Y005135D01*
X025239Y005063D01*
X025181Y005202D01*
X025230Y005084D02*
X025260Y005084D01*
X025483Y005202D02*
X025596Y005314D01*
X025743Y005375D01*
X026422Y005375D01*
X026569Y005314D01*
X026681Y005202D01*
X029604Y005202D01*
X029486Y005321D02*
X026553Y005321D01*
X026681Y005202D02*
X026742Y005055D01*
X026742Y004895D01*
X026681Y004748D01*
X026569Y004636D01*
X026422Y004575D01*
X025743Y004575D01*
X025596Y004636D01*
X025537Y004695D01*
X025493Y004695D01*
X025262Y004464D01*
X025133Y004335D01*
X025061Y004335D01*
X025062Y004334D01*
X025116Y004295D01*
X025163Y004249D01*
X025201Y004195D01*
X025232Y004136D01*
X025252Y004073D01*
X025262Y004008D01*
X025262Y004006D01*
X025431Y004175D01*
X025472Y004175D01*
X025483Y004202D01*
X025596Y004314D01*
X025743Y004375D01*
X026422Y004375D01*
X026569Y004314D01*
X026681Y004202D01*
X026742Y004055D01*
X026742Y003895D01*
X026681Y003748D01*
X026569Y003636D01*
X026422Y003575D01*
X025743Y003575D01*
X025596Y003636D01*
X025555Y003677D01*
X025262Y003384D01*
X025133Y003255D01*
X024111Y003255D01*
X020271Y007095D01*
X020193Y007173D01*
X020242Y007055D01*
X020242Y006895D01*
X020181Y006748D01*
X020069Y006636D01*
X019922Y006575D01*
X019243Y006575D01*
X019096Y006636D01*
X018983Y006748D01*
X018922Y006895D01*
X018922Y007055D01*
X018983Y007202D01*
X019096Y007314D01*
X019243Y007375D01*
X019922Y007375D01*
X020069Y007314D01*
X020142Y007241D01*
X020142Y007709D01*
X020069Y007636D01*
X019922Y007575D01*
X019243Y007575D01*
X019096Y007636D01*
X018983Y007748D01*
X018922Y007895D01*
X018922Y008055D01*
X018983Y008202D01*
X019096Y008314D01*
X019243Y008375D01*
X019922Y008375D01*
X020069Y008314D01*
X020142Y008241D01*
X020142Y008709D01*
X020069Y008636D01*
X019922Y008575D01*
X019243Y008575D01*
X019096Y008636D01*
X018983Y008748D01*
X018922Y008895D01*
X018922Y009055D01*
X018983Y009202D01*
X019096Y009314D01*
X019243Y009375D01*
X019922Y009375D01*
X020069Y009314D01*
X020142Y009241D01*
X020142Y009709D01*
X020069Y009636D01*
X019922Y009575D01*
X019243Y009575D01*
X019096Y009636D01*
X018983Y009748D01*
X018922Y009895D01*
X018922Y010055D01*
X018983Y010202D01*
X019096Y010314D01*
X019243Y010375D01*
X019922Y010375D01*
X020069Y010314D01*
X020142Y010241D01*
X020142Y010709D01*
X020069Y010636D01*
X019922Y010575D01*
X019243Y010575D01*
X019096Y010636D01*
X018983Y010748D01*
X018922Y010895D01*
X018922Y011055D01*
X018972Y011175D01*
X007423Y011175D01*
X007351Y010894D01*
X007360Y010890D01*
X007804Y010890D01*
X007805Y010890D02*
X007667Y010753D01*
X007592Y010572D01*
X007592Y010378D01*
X007667Y010197D01*
X007805Y010060D01*
X007985Y009985D01*
X008180Y009985D01*
X008360Y010060D01*
X008498Y010197D01*
X008572Y010378D01*
X008572Y010572D01*
X008498Y010753D01*
X008360Y010890D01*
X008804Y010890D01*
X008805Y010890D02*
X008667Y010753D01*
X008592Y010572D01*
X008592Y010378D01*
X008667Y010197D01*
X008805Y010060D01*
X008985Y009985D01*
X009180Y009985D01*
X009360Y010060D01*
X009498Y010197D01*
X009572Y010378D01*
X009572Y010572D01*
X009498Y010753D01*
X009360Y010890D01*
X009804Y010890D01*
X009805Y010890D02*
X009667Y010753D01*
X009592Y010572D01*
X009592Y010378D01*
X009667Y010197D01*
X009805Y010060D01*
X009985Y009985D01*
X010180Y009985D01*
X010273Y010023D01*
X010926Y009370D01*
X014027Y009370D01*
X018362Y004022D01*
X018362Y004009D01*
X018387Y003984D01*
X018419Y003953D01*
X018469Y003891D01*
X018482Y003889D01*
X018516Y003855D01*
X018939Y003855D01*
X018983Y003748D01*
X019096Y003636D01*
X019243Y003575D01*
X019922Y003575D01*
X020069Y003636D01*
X020181Y003748D01*
X020242Y003895D01*
X020242Y004055D01*
X020181Y004202D01*
X020069Y004314D01*
X019922Y004375D01*
X019243Y004375D01*
X019096Y004314D01*
X019077Y004295D01*
X018707Y004295D01*
X018286Y004815D01*
X018956Y004815D01*
X018983Y004748D01*
X019096Y004636D01*
X019243Y004575D01*
X019922Y004575D01*
X020069Y004636D01*
X020181Y004748D01*
X020242Y004895D01*
X020242Y005055D01*
X020181Y005202D01*
X022164Y005202D01*
X022046Y005321D02*
X020053Y005321D01*
X020069Y005314D02*
X019922Y005375D01*
X019243Y005375D01*
X019096Y005314D01*
X019037Y005255D01*
X018278Y005255D01*
X014472Y010032D01*
X014472Y010046D01*
X014423Y010095D01*
X014471Y010143D01*
X014518Y010208D01*
X014555Y010279D01*
X014580Y010356D01*
X014592Y010435D01*
X014592Y010456D01*
X014101Y010456D01*
X014101Y010494D01*
X014064Y010494D01*
X014064Y010985D01*
X014042Y010985D01*
X013963Y010972D01*
X013887Y010948D01*
X013815Y010911D01*
X013750Y010864D01*
X013693Y010807D01*
X013646Y010742D01*
X013610Y010671D01*
X013585Y010594D01*
X013572Y010515D01*
X013572Y010494D01*
X014064Y010494D01*
X014064Y010456D01*
X013572Y010456D01*
X013572Y010435D01*
X013585Y010356D01*
X013595Y010323D01*
X013563Y010355D01*
X013572Y010378D01*
X013572Y010572D01*
X013498Y010753D01*
X013360Y010890D01*
X013786Y010890D01*
X013667Y010772D02*
X013479Y010772D01*
X013539Y010653D02*
X013604Y010653D01*
X013575Y010535D02*
X013572Y010535D01*
X013572Y010416D02*
X013575Y010416D01*
X014064Y010535D02*
X014101Y010535D01*
X014101Y010494D02*
X014101Y010985D01*
X014122Y010985D01*
X014202Y010972D01*
X014278Y010948D01*
X014350Y010911D01*
X014415Y010864D01*
X014471Y010807D01*
X014518Y010742D01*
X014555Y010671D01*
X014580Y010594D01*
X014592Y010515D01*
X014592Y010494D01*
X014101Y010494D01*
X014101Y010653D02*
X014064Y010653D01*
X014064Y010772D02*
X014101Y010772D01*
X014101Y010890D02*
X014064Y010890D01*
X014379Y010890D02*
X014804Y010890D01*
X014805Y010890D02*
X014667Y010753D01*
X014592Y010572D01*
X014592Y010378D01*
X014667Y010197D01*
X014805Y010060D01*
X014985Y009985D01*
X015180Y009985D01*
X015360Y010060D01*
X015498Y010197D01*
X015572Y010378D01*
X015572Y010572D01*
X015498Y010753D01*
X015360Y010890D01*
X015804Y010890D01*
X015805Y010890D02*
X015667Y010753D01*
X015592Y010572D01*
X015592Y010378D01*
X015667Y010197D01*
X015805Y010060D01*
X015985Y009985D01*
X016180Y009985D01*
X016360Y010060D01*
X016498Y010197D01*
X016572Y010378D01*
X016572Y010572D01*
X016498Y010753D01*
X016360Y010890D01*
X016599Y010890D01*
X016592Y010883D02*
X016592Y010067D01*
X016674Y009985D01*
X017490Y009985D01*
X017572Y010067D01*
X017572Y010883D01*
X017490Y010965D01*
X016674Y010965D01*
X016592Y010883D01*
X016592Y010772D02*
X016479Y010772D01*
X016539Y010653D02*
X016592Y010653D01*
X016592Y010535D02*
X016572Y010535D01*
X016572Y010416D02*
X016592Y010416D01*
X016592Y010298D02*
X016539Y010298D01*
X016592Y010179D02*
X016479Y010179D01*
X016361Y010061D02*
X016599Y010061D01*
X015804Y010061D02*
X015361Y010061D01*
X015479Y010179D02*
X015685Y010179D01*
X015625Y010298D02*
X015539Y010298D01*
X015572Y010416D02*
X015592Y010416D01*
X015592Y010535D02*
X015572Y010535D01*
X015539Y010653D02*
X015626Y010653D01*
X015686Y010772D02*
X015479Y010772D01*
X015360Y010890D02*
X015180Y010965D01*
X014985Y010965D01*
X014805Y010890D01*
X014686Y010772D02*
X014497Y010772D01*
X014561Y010653D02*
X014626Y010653D01*
X014592Y010535D02*
X014589Y010535D01*
X014589Y010416D02*
X014592Y010416D01*
X014561Y010298D02*
X014625Y010298D01*
X014685Y010179D02*
X014498Y010179D01*
X014458Y010061D02*
X014804Y010061D01*
X014544Y009942D02*
X018922Y009942D01*
X018925Y010061D02*
X017566Y010061D01*
X017572Y010179D02*
X018974Y010179D01*
X019079Y010298D02*
X017572Y010298D01*
X017572Y010416D02*
X020142Y010416D01*
X020142Y010298D02*
X020085Y010298D01*
X020142Y010535D02*
X017572Y010535D01*
X017572Y010653D02*
X019079Y010653D01*
X018974Y010772D02*
X017572Y010772D01*
X017565Y010890D02*
X018925Y010890D01*
X018922Y011009D02*
X007380Y011009D01*
X007360Y010890D02*
X007498Y010753D01*
X007572Y010572D01*
X007572Y010378D01*
X007498Y010197D01*
X007360Y010060D01*
X007180Y009985D01*
X006985Y009985D01*
X006805Y010060D01*
X006667Y010197D01*
X006592Y010378D01*
X006592Y010572D01*
X006667Y010753D01*
X006805Y010890D01*
X006907Y010933D01*
X007032Y011423D01*
X007032Y011486D01*
X007054Y011508D01*
X007062Y011538D01*
X007116Y011570D01*
X007161Y011615D01*
X007192Y011615D01*
X007219Y011631D01*
X007280Y011615D01*
X019253Y011615D01*
X019493Y011375D01*
X019831Y011375D01*
X018821Y012385D01*
X010351Y012385D01*
X009996Y012741D01*
X009934Y012715D01*
X009731Y012715D01*
X009543Y012793D01*
X009400Y012936D01*
X009332Y013099D01*
X009265Y012936D01*
X009121Y012793D01*
X008934Y012715D01*
X008731Y012715D01*
X008543Y012793D01*
X008400Y012936D01*
X008332Y013099D01*
X008265Y012936D01*
X008121Y012793D01*
X007934Y012715D01*
X007731Y012715D01*
X007543Y012793D01*
X007400Y012936D01*
X007332Y013099D01*
X007265Y012936D01*
X007121Y012793D01*
X006934Y012715D01*
X006731Y012715D01*
X006543Y012793D01*
X006400Y012936D01*
X006332Y013099D01*
X006265Y012936D01*
X006121Y012793D01*
X005934Y012715D01*
X005731Y012715D01*
X005543Y012793D01*
X005400Y012936D01*
X005332Y013099D01*
X005265Y012936D01*
X005121Y012793D01*
X004934Y012715D01*
X004731Y012715D01*
X004543Y012793D01*
X004400Y012936D01*
X004332Y013099D01*
X004265Y012936D01*
X004121Y012793D01*
X003934Y012715D01*
X003731Y012715D01*
X003543Y012793D01*
X003400Y012936D01*
X003322Y013124D01*
X003322Y013220D01*
X003221Y013043D01*
X003014Y012837D01*
X002761Y012691D01*
X002478Y012615D01*
X002186Y012615D01*
X001904Y012691D01*
X001792Y012755D01*
X001792Y002195D01*
X001904Y002259D01*
X002186Y002335D01*
X002478Y002335D01*
X002761Y002259D01*
X003014Y002113D01*
X003221Y001907D01*
X003322Y001730D01*
X003322Y001826D01*
X003400Y002014D01*
X003543Y002157D01*
X003731Y002235D01*
X003934Y002235D01*
X004121Y002157D01*
X004265Y002014D01*
X004332Y001851D01*
X004400Y002014D01*
X004543Y002157D01*
X004731Y002235D01*
X004934Y002235D01*
X005121Y002157D01*
X005265Y002014D01*
X005332Y001851D01*
X005400Y002014D01*
X005543Y002157D01*
X005731Y002235D01*
X005934Y002235D01*
X006121Y002157D01*
X006265Y002014D01*
X006332Y001851D01*
X006400Y002014D01*
X006543Y002157D01*
X006731Y002235D01*
X006934Y002235D01*
X007121Y002157D01*
X007265Y002014D01*
X007332Y001851D01*
X007400Y002014D01*
X007543Y002157D01*
X007731Y002235D01*
X007934Y002235D01*
X008121Y002157D01*
X008265Y002014D01*
X008332Y001851D01*
X008400Y002014D01*
X008543Y002157D01*
X008731Y002235D01*
X008934Y002235D01*
X009121Y002157D01*
X009265Y002014D01*
X009332Y001851D01*
X009400Y002014D01*
X009543Y002157D01*
X009731Y002235D01*
X009934Y002235D01*
X010121Y002157D01*
X010265Y002014D01*
X010332Y001851D01*
X010400Y002014D01*
X010543Y002157D01*
X010731Y002235D01*
X010934Y002235D01*
X011121Y002157D01*
X011265Y002014D01*
X011332Y001851D01*
X011400Y002014D01*
X011543Y002157D01*
X011731Y002235D01*
X011934Y002235D01*
X012121Y002157D01*
X012265Y002014D01*
X012332Y001851D01*
X012400Y002014D01*
X012543Y002157D01*
X012731Y002235D01*
X012934Y002235D01*
X013121Y002157D01*
X013265Y002014D01*
X013332Y001851D01*
X013400Y002014D01*
X013543Y002157D01*
X013731Y002235D01*
X013934Y002235D01*
X014121Y002157D01*
X014265Y002014D01*
X014332Y001851D01*
X014400Y002014D01*
X014543Y002157D01*
X014731Y002235D01*
X014934Y002235D01*
X015121Y002157D01*
X015265Y002014D01*
X015332Y001851D01*
X015400Y002014D01*
X015543Y002157D01*
X015731Y002235D01*
X015934Y002235D01*
X016121Y002157D01*
X016265Y002014D01*
X016323Y001873D01*
X016341Y001928D01*
X016379Y002003D01*
X016428Y002070D01*
X016487Y002129D01*
X016555Y002178D01*
X016629Y002216D01*
X016708Y002242D01*
X016791Y002255D01*
X016792Y002255D01*
X016792Y001765D01*
X016872Y001765D01*
X016872Y002255D01*
X016874Y002255D01*
X016956Y002242D01*
X017036Y002216D01*
X017110Y002178D01*
X017178Y002129D01*
X017237Y002070D01*
X017286Y002003D01*
X017323Y001928D01*
X017342Y001873D01*
X017400Y002014D01*
X017543Y002157D01*
X017731Y002235D01*
X017934Y002235D01*
X018121Y002157D01*
X018265Y002014D01*
X018342Y001826D01*
X018342Y001624D01*
X018265Y001436D01*
X018121Y001293D01*
X017934Y001215D01*
X017731Y001215D01*
X017543Y001293D01*
X017400Y001436D01*
X017342Y001577D01*
X017323Y001522D01*
X017286Y001447D01*
X017237Y001380D01*
X017178Y001321D01*
X017110Y001272D01*
X017036Y001234D01*
X016956Y001208D01*
X016874Y001195D01*
X016872Y001195D01*
X016872Y001685D01*
X016792Y001685D01*
X016792Y001195D01*
X016791Y001195D01*
X016708Y001208D01*
X016629Y001234D01*
X016555Y001272D01*
X016487Y001321D01*
X016428Y001380D01*
X016379Y001447D01*
X016341Y001522D01*
X016323Y001577D01*
X016265Y001436D01*
X016121Y001293D01*
X015934Y001215D01*
X015731Y001215D01*
X015543Y001293D01*
X015400Y001436D01*
X015332Y001599D01*
X015265Y001436D01*
X015121Y001293D01*
X014934Y001215D01*
X014731Y001215D01*
X014543Y001293D01*
X014400Y001436D01*
X014332Y001599D01*
X014265Y001436D01*
X014121Y001293D01*
X013934Y001215D01*
X013731Y001215D01*
X013543Y001293D01*
X013400Y001436D01*
X013332Y001599D01*
X013265Y001436D01*
X013121Y001293D01*
X012934Y001215D01*
X012731Y001215D01*
X012543Y001293D01*
X012400Y001436D01*
X012332Y001599D01*
X012265Y001436D01*
X012121Y001293D01*
X011934Y001215D01*
X011731Y001215D01*
X011543Y001293D01*
X011400Y001436D01*
X011332Y001599D01*
X011265Y001436D01*
X011121Y001293D01*
X010934Y001215D01*
X010731Y001215D01*
X010543Y001293D01*
X010400Y001436D01*
X010332Y001599D01*
X010265Y001436D01*
X010121Y001293D01*
X009934Y001215D01*
X009731Y001215D01*
X009543Y001293D01*
X009400Y001436D01*
X009332Y001599D01*
X009265Y001436D01*
X009121Y001293D01*
X008934Y001215D01*
X008731Y001215D01*
X008543Y001293D01*
X008400Y001436D01*
X008332Y001599D01*
X008265Y001436D01*
X008121Y001293D01*
X007934Y001215D01*
X007731Y001215D01*
X007543Y001293D01*
X007400Y001436D01*
X007332Y001599D01*
X007265Y001436D01*
X007121Y001293D01*
X006934Y001215D01*
X006731Y001215D01*
X006543Y001293D01*
X006400Y001436D01*
X006332Y001599D01*
X006265Y001436D01*
X006121Y001293D01*
X005934Y001215D01*
X005731Y001215D01*
X005543Y001293D01*
X005400Y001436D01*
X005332Y001599D01*
X005265Y001436D01*
X005121Y001293D01*
X004934Y001215D01*
X004731Y001215D01*
X004543Y001293D01*
X004400Y001436D01*
X004332Y001599D01*
X004265Y001436D01*
X004121Y001293D01*
X003934Y001215D01*
X003731Y001215D01*
X003543Y001293D01*
X003434Y001402D01*
X003442Y001371D01*
X003442Y001079D01*
X003367Y000797D01*
X003372Y000818D02*
X037292Y000818D01*
X037261Y000936D02*
X003404Y000936D01*
X003436Y001055D02*
X037229Y001055D01*
X037222Y001173D02*
X003442Y001173D01*
X003442Y001292D02*
X003546Y001292D01*
X004118Y001292D02*
X004546Y001292D01*
X004426Y001410D02*
X004239Y001410D01*
X004303Y001529D02*
X004362Y001529D01*
X004346Y001884D02*
X004318Y001884D01*
X004269Y002003D02*
X004395Y002003D01*
X004507Y002121D02*
X004158Y002121D01*
X003507Y002121D02*
X003000Y002121D01*
X003125Y002003D02*
X003395Y002003D01*
X003346Y001884D02*
X003234Y001884D01*
X003302Y001766D02*
X003322Y001766D01*
X002795Y002240D02*
X016701Y002240D01*
X016792Y002240D02*
X016872Y002240D01*
X016964Y002240D02*
X037869Y002240D01*
X037664Y002121D02*
X036908Y002121D01*
X036871Y002157D02*
X036684Y002235D01*
X036481Y002235D01*
X036293Y002157D01*
X036150Y002014D01*
X036082Y001851D01*
X036015Y002014D01*
X035871Y002157D01*
X035684Y002235D01*
X035481Y002235D01*
X035293Y002157D01*
X035150Y002014D01*
X035082Y001851D01*
X035015Y002014D01*
X034871Y002157D01*
X034684Y002235D01*
X034481Y002235D01*
X034293Y002157D01*
X034150Y002014D01*
X034092Y001875D01*
X034092Y002153D01*
X034010Y002235D01*
X033154Y002235D01*
X033072Y002153D01*
X033072Y001297D01*
X033154Y001215D01*
X034010Y001215D01*
X034092Y001297D01*
X034092Y001575D01*
X034150Y001436D01*
X034293Y001293D01*
X034481Y001215D01*
X034684Y001215D01*
X034871Y001293D01*
X035015Y001436D01*
X035082Y001599D01*
X035150Y001436D01*
X035293Y001293D01*
X035481Y001215D01*
X035684Y001215D01*
X035871Y001293D01*
X036015Y001436D01*
X036082Y001599D01*
X036150Y001436D01*
X036293Y001293D01*
X036481Y001215D01*
X036684Y001215D01*
X036871Y001293D01*
X037015Y001436D01*
X037092Y001624D01*
X037092Y001826D01*
X037015Y002014D01*
X036871Y002157D01*
X037019Y002003D02*
X037540Y002003D01*
X037431Y001884D02*
X037068Y001884D01*
X037092Y001766D02*
X037363Y001766D01*
X037296Y001647D02*
X037092Y001647D01*
X037053Y001529D02*
X037264Y001529D01*
X037233Y001410D02*
X036989Y001410D01*
X036868Y001292D02*
X037222Y001292D01*
X036296Y001292D02*
X035868Y001292D01*
X035989Y001410D02*
X036176Y001410D01*
X036112Y001529D02*
X036053Y001529D01*
X036068Y001884D02*
X036096Y001884D01*
X036145Y002003D02*
X036019Y002003D01*
X035908Y002121D02*
X036257Y002121D01*
X035257Y002121D02*
X034908Y002121D01*
X035019Y002003D02*
X035145Y002003D01*
X035096Y001884D02*
X035068Y001884D01*
X035053Y001529D02*
X035112Y001529D01*
X035176Y001410D02*
X034989Y001410D01*
X034868Y001292D02*
X035296Y001292D01*
X034296Y001292D02*
X034087Y001292D01*
X034092Y001410D02*
X034176Y001410D01*
X034112Y001529D02*
X034092Y001529D01*
X034092Y001884D02*
X034096Y001884D01*
X034092Y002003D02*
X034145Y002003D01*
X034092Y002121D02*
X034257Y002121D01*
X033072Y002121D02*
X030408Y002121D01*
X030371Y002157D02*
X030184Y002235D01*
X029981Y002235D01*
X029793Y002157D01*
X029650Y002014D01*
X029582Y001851D01*
X029515Y002014D01*
X029371Y002157D01*
X029184Y002235D01*
X028981Y002235D01*
X028793Y002157D01*
X028650Y002014D01*
X028582Y001851D01*
X028515Y002014D01*
X028371Y002157D01*
X028184Y002235D01*
X027981Y002235D01*
X027793Y002157D01*
X027650Y002014D01*
X027592Y001875D01*
X027592Y002153D01*
X027510Y002235D01*
X026654Y002235D01*
X026572Y002153D01*
X026572Y001297D01*
X026654Y001215D01*
X027510Y001215D01*
X027592Y001297D01*
X027592Y001575D01*
X027650Y001436D01*
X027793Y001293D01*
X027981Y001215D01*
X028184Y001215D01*
X028371Y001293D01*
X028515Y001436D01*
X028582Y001599D01*
X028650Y001436D01*
X028793Y001293D01*
X028981Y001215D01*
X029184Y001215D01*
X029371Y001293D01*
X029515Y001436D01*
X029582Y001599D01*
X029650Y001436D01*
X029793Y001293D01*
X029981Y001215D01*
X030184Y001215D01*
X030371Y001293D01*
X030515Y001436D01*
X030592Y001624D01*
X030592Y001826D01*
X030515Y002014D01*
X030371Y002157D01*
X030519Y002003D02*
X033072Y002003D01*
X033072Y001884D02*
X030568Y001884D01*
X030592Y001766D02*
X033072Y001766D01*
X033072Y001647D02*
X030592Y001647D01*
X030553Y001529D02*
X033072Y001529D01*
X033072Y001410D02*
X030489Y001410D01*
X030368Y001292D02*
X033078Y001292D01*
X029796Y001292D02*
X029368Y001292D01*
X029489Y001410D02*
X029676Y001410D01*
X029612Y001529D02*
X029553Y001529D01*
X029568Y001884D02*
X029596Y001884D01*
X029645Y002003D02*
X029519Y002003D01*
X029408Y002121D02*
X029757Y002121D01*
X028757Y002121D02*
X028408Y002121D01*
X028519Y002003D02*
X028645Y002003D01*
X028596Y001884D02*
X028568Y001884D01*
X028553Y001529D02*
X028612Y001529D01*
X028676Y001410D02*
X028489Y001410D01*
X028368Y001292D02*
X028796Y001292D01*
X027796Y001292D02*
X027587Y001292D01*
X027592Y001410D02*
X027676Y001410D01*
X027612Y001529D02*
X027592Y001529D01*
X027592Y001884D02*
X027596Y001884D01*
X027592Y002003D02*
X027645Y002003D01*
X027592Y002121D02*
X027757Y002121D01*
X026572Y002121D02*
X023908Y002121D01*
X023871Y002157D02*
X023684Y002235D01*
X023481Y002235D01*
X023293Y002157D01*
X023150Y002014D01*
X023082Y001851D01*
X023015Y002014D01*
X022871Y002157D01*
X022684Y002235D01*
X022481Y002235D01*
X022293Y002157D01*
X022150Y002014D01*
X022082Y001851D01*
X022015Y002014D01*
X021871Y002157D01*
X021684Y002235D01*
X021481Y002235D01*
X021293Y002157D01*
X021150Y002014D01*
X021092Y001875D01*
X021092Y002153D01*
X021010Y002235D01*
X020154Y002235D01*
X020072Y002153D01*
X020072Y001297D01*
X020154Y001215D01*
X021010Y001215D01*
X021092Y001297D01*
X021092Y001575D01*
X021150Y001436D01*
X021293Y001293D01*
X021481Y001215D01*
X021684Y001215D01*
X021871Y001293D01*
X022015Y001436D01*
X022082Y001599D01*
X022150Y001436D01*
X022293Y001293D01*
X022481Y001215D01*
X022684Y001215D01*
X022871Y001293D01*
X023015Y001436D01*
X023082Y001599D01*
X023150Y001436D01*
X023293Y001293D01*
X023481Y001215D01*
X023684Y001215D01*
X023871Y001293D01*
X024015Y001436D01*
X024092Y001624D01*
X024092Y001826D01*
X024015Y002014D01*
X023871Y002157D01*
X024019Y002003D02*
X026572Y002003D01*
X026572Y001884D02*
X024068Y001884D01*
X024092Y001766D02*
X026572Y001766D01*
X026572Y001647D02*
X024092Y001647D01*
X024053Y001529D02*
X026572Y001529D01*
X026572Y001410D02*
X023989Y001410D01*
X023868Y001292D02*
X026578Y001292D01*
X023296Y001292D02*
X022868Y001292D01*
X022989Y001410D02*
X023176Y001410D01*
X023112Y001529D02*
X023053Y001529D01*
X023068Y001884D02*
X023096Y001884D01*
X023145Y002003D02*
X023019Y002003D01*
X022908Y002121D02*
X023257Y002121D01*
X022257Y002121D02*
X021908Y002121D01*
X022019Y002003D02*
X022145Y002003D01*
X022096Y001884D02*
X022068Y001884D01*
X022053Y001529D02*
X022112Y001529D01*
X022176Y001410D02*
X021989Y001410D01*
X021868Y001292D02*
X022296Y001292D01*
X021296Y001292D02*
X021087Y001292D01*
X021092Y001410D02*
X021176Y001410D01*
X021112Y001529D02*
X021092Y001529D01*
X021092Y001884D02*
X021096Y001884D01*
X021092Y002003D02*
X021145Y002003D01*
X021092Y002121D02*
X021257Y002121D01*
X020072Y002121D02*
X018158Y002121D01*
X018269Y002003D02*
X020072Y002003D01*
X020072Y001884D02*
X018318Y001884D01*
X018342Y001766D02*
X020072Y001766D01*
X020072Y001647D02*
X018342Y001647D01*
X018303Y001529D02*
X020072Y001529D01*
X020072Y001410D02*
X018239Y001410D01*
X018118Y001292D02*
X020078Y001292D01*
X017546Y001292D02*
X017137Y001292D01*
X017259Y001410D02*
X017426Y001410D01*
X017362Y001529D02*
X017326Y001529D01*
X016872Y001529D02*
X016792Y001529D01*
X016792Y001647D02*
X016872Y001647D01*
X016872Y001766D02*
X016792Y001766D01*
X016792Y001884D02*
X016872Y001884D01*
X016872Y002003D02*
X016792Y002003D01*
X016792Y002121D02*
X016872Y002121D01*
X017186Y002121D02*
X017507Y002121D01*
X017395Y002003D02*
X017286Y002003D01*
X017338Y001884D02*
X017346Y001884D01*
X016479Y002121D02*
X016158Y002121D01*
X016269Y002003D02*
X016379Y002003D01*
X016327Y001884D02*
X016318Y001884D01*
X016303Y001529D02*
X016339Y001529D01*
X016406Y001410D02*
X016239Y001410D01*
X016118Y001292D02*
X016527Y001292D01*
X016792Y001292D02*
X016872Y001292D01*
X016872Y001410D02*
X016792Y001410D01*
X015546Y001292D02*
X015118Y001292D01*
X015239Y001410D02*
X015426Y001410D01*
X015362Y001529D02*
X015303Y001529D01*
X015318Y001884D02*
X015346Y001884D01*
X015395Y002003D02*
X015269Y002003D01*
X015158Y002121D02*
X015507Y002121D01*
X014507Y002121D02*
X014158Y002121D01*
X014269Y002003D02*
X014395Y002003D01*
X014346Y001884D02*
X014318Y001884D01*
X014303Y001529D02*
X014362Y001529D01*
X014426Y001410D02*
X014239Y001410D01*
X014118Y001292D02*
X014546Y001292D01*
X013546Y001292D02*
X013118Y001292D01*
X013239Y001410D02*
X013426Y001410D01*
X013362Y001529D02*
X013303Y001529D01*
X013318Y001884D02*
X013346Y001884D01*
X013395Y002003D02*
X013269Y002003D01*
X013158Y002121D02*
X013507Y002121D01*
X012507Y002121D02*
X012158Y002121D01*
X012269Y002003D02*
X012395Y002003D01*
X012346Y001884D02*
X012318Y001884D01*
X012303Y001529D02*
X012362Y001529D01*
X012426Y001410D02*
X012239Y001410D01*
X012118Y001292D02*
X012546Y001292D01*
X011546Y001292D02*
X011118Y001292D01*
X011239Y001410D02*
X011426Y001410D01*
X011362Y001529D02*
X011303Y001529D01*
X011318Y001884D02*
X011346Y001884D01*
X011395Y002003D02*
X011269Y002003D01*
X011158Y002121D02*
X011507Y002121D01*
X010507Y002121D02*
X010158Y002121D01*
X010269Y002003D02*
X010395Y002003D01*
X010346Y001884D02*
X010318Y001884D01*
X010303Y001529D02*
X010362Y001529D01*
X010426Y001410D02*
X010239Y001410D01*
X010118Y001292D02*
X010546Y001292D01*
X009546Y001292D02*
X009118Y001292D01*
X009239Y001410D02*
X009426Y001410D01*
X009362Y001529D02*
X009303Y001529D01*
X009318Y001884D02*
X009346Y001884D01*
X009395Y002003D02*
X009269Y002003D01*
X009158Y002121D02*
X009507Y002121D01*
X008507Y002121D02*
X008158Y002121D01*
X008269Y002003D02*
X008395Y002003D01*
X008346Y001884D02*
X008318Y001884D01*
X008303Y001529D02*
X008362Y001529D01*
X008426Y001410D02*
X008239Y001410D01*
X008118Y001292D02*
X008546Y001292D01*
X007546Y001292D02*
X007118Y001292D01*
X007239Y001410D02*
X007426Y001410D01*
X007362Y001529D02*
X007303Y001529D01*
X007318Y001884D02*
X007346Y001884D01*
X007395Y002003D02*
X007269Y002003D01*
X007158Y002121D02*
X007507Y002121D01*
X006507Y002121D02*
X006158Y002121D01*
X006269Y002003D02*
X006395Y002003D01*
X006346Y001884D02*
X006318Y001884D01*
X006303Y001529D02*
X006362Y001529D01*
X006426Y001410D02*
X006239Y001410D01*
X006118Y001292D02*
X006546Y001292D01*
X005546Y001292D02*
X005118Y001292D01*
X005239Y001410D02*
X005426Y001410D01*
X005362Y001529D02*
X005303Y001529D01*
X005318Y001884D02*
X005346Y001884D01*
X005395Y002003D02*
X005269Y002003D01*
X005158Y002121D02*
X005507Y002121D01*
X001869Y002240D02*
X001792Y002240D01*
X001792Y002358D02*
X038992Y002358D01*
X038992Y002240D02*
X038795Y002240D01*
X038992Y002477D02*
X001792Y002477D01*
X001792Y002595D02*
X038992Y002595D01*
X038992Y002714D02*
X001792Y002714D01*
X001792Y002832D02*
X038992Y002832D01*
X038992Y002951D02*
X001792Y002951D01*
X001792Y003069D02*
X038992Y003069D01*
X038992Y003188D02*
X001792Y003188D01*
X001792Y003306D02*
X024060Y003306D01*
X023942Y003425D02*
X001792Y003425D01*
X001792Y003543D02*
X023823Y003543D01*
X023705Y003662D02*
X020094Y003662D01*
X020194Y003780D02*
X023586Y003780D01*
X023468Y003899D02*
X020242Y003899D01*
X020242Y004017D02*
X023349Y004017D01*
X023231Y004136D02*
X020209Y004136D01*
X020129Y004254D02*
X023112Y004254D01*
X022994Y004373D02*
X019928Y004373D01*
X020005Y004610D02*
X022757Y004610D01*
X022638Y004728D02*
X020161Y004728D01*
X020222Y004847D02*
X022520Y004847D01*
X022401Y004965D02*
X020242Y004965D01*
X020230Y005084D02*
X022283Y005084D01*
X021927Y005439D02*
X018132Y005439D01*
X018226Y005321D02*
X019111Y005321D01*
X019243Y005575D02*
X019922Y005575D01*
X020069Y005636D01*
X020181Y005748D01*
X020242Y005895D01*
X020242Y006055D01*
X020181Y006202D01*
X020069Y006314D01*
X019922Y006375D01*
X019243Y006375D01*
X019096Y006314D01*
X018983Y006202D01*
X018922Y006055D01*
X018922Y005895D01*
X018983Y005748D01*
X019096Y005636D01*
X019243Y005575D01*
X019056Y005676D02*
X017943Y005676D01*
X018037Y005558D02*
X021809Y005558D01*
X021690Y005676D02*
X020109Y005676D01*
X020200Y005795D02*
X021572Y005795D01*
X021453Y005913D02*
X020242Y005913D01*
X020242Y006032D02*
X021335Y006032D01*
X021216Y006150D02*
X020203Y006150D01*
X020114Y006269D02*
X021098Y006269D01*
X020979Y006387D02*
X017376Y006387D01*
X017282Y006506D02*
X020861Y006506D01*
X020742Y006624D02*
X020040Y006624D01*
X020175Y006743D02*
X020624Y006743D01*
X020505Y006861D02*
X020228Y006861D01*
X020242Y006980D02*
X020387Y006980D01*
X020268Y007098D02*
X020224Y007098D01*
X020142Y007335D02*
X020018Y007335D01*
X020142Y007454D02*
X016527Y007454D01*
X016432Y007572D02*
X020142Y007572D01*
X020142Y007691D02*
X020123Y007691D01*
X021021Y007928D02*
X021072Y007928D01*
X021072Y008046D02*
X020902Y008046D01*
X020822Y008165D02*
X021072Y008165D01*
X021169Y008283D02*
X020822Y008283D01*
X020822Y008402D02*
X021288Y008402D01*
X021316Y008520D02*
X020822Y008520D01*
X020822Y008639D02*
X021198Y008639D01*
X021079Y008757D02*
X020822Y008757D01*
X020822Y008876D02*
X021072Y008876D01*
X021072Y008994D02*
X020822Y008994D01*
X020822Y009113D02*
X021072Y009113D01*
X021117Y009231D02*
X020822Y009231D01*
X020822Y009350D02*
X021236Y009350D01*
X021354Y009468D02*
X020822Y009468D01*
X020822Y009587D02*
X021250Y009587D01*
X021131Y009705D02*
X020822Y009705D01*
X020822Y009824D02*
X021072Y009824D01*
X021072Y009942D02*
X020822Y009942D01*
X020822Y010061D02*
X021072Y010061D01*
X021072Y010179D02*
X020822Y010179D01*
X020822Y010298D02*
X021184Y010298D01*
X021302Y010416D02*
X020822Y010416D01*
X020822Y010535D02*
X021822Y010535D01*
X021863Y010416D02*
X021927Y010416D01*
X021981Y010298D02*
X022032Y010298D01*
X022409Y010535D02*
X026622Y010535D01*
X026622Y010653D02*
X026586Y010653D01*
X026622Y010416D02*
X022863Y010416D01*
X022981Y010298D02*
X024052Y010298D01*
X024049Y010295D02*
X024002Y010249D01*
X023963Y010195D01*
X023933Y010136D01*
X023913Y010073D01*
X023902Y010008D01*
X023902Y009995D01*
X024562Y009995D01*
X024562Y009955D01*
X023902Y009955D01*
X023902Y009942D01*
X023092Y009942D01*
X023092Y009824D02*
X023930Y009824D01*
X023933Y009814D02*
X023963Y009755D01*
X024002Y009701D01*
X024049Y009655D01*
X024102Y009616D01*
X024161Y009586D01*
X024224Y009565D01*
X024289Y009555D01*
X024562Y009555D01*
X024562Y009955D01*
X024602Y009955D01*
X024602Y009555D01*
X024875Y009555D01*
X024941Y009565D01*
X025004Y009586D01*
X025062Y009616D01*
X025116Y009655D01*
X025163Y009701D01*
X025201Y009755D01*
X025232Y009814D01*
X025252Y009877D01*
X025262Y009942D01*
X025422Y009942D01*
X025425Y010061D02*
X025254Y010061D01*
X025252Y010073D02*
X025232Y010136D01*
X025201Y010195D01*
X025163Y010249D01*
X025116Y010295D01*
X025062Y010334D01*
X025004Y010364D01*
X024941Y010385D01*
X024875Y010395D01*
X024602Y010395D01*
X024602Y009995D01*
X024562Y009995D01*
X024562Y010395D01*
X024289Y010395D01*
X024224Y010385D01*
X024161Y010364D01*
X024102Y010334D01*
X024049Y010295D01*
X023955Y010179D02*
X023092Y010179D01*
X023092Y010061D02*
X023911Y010061D01*
X023902Y009942D02*
X023913Y009877D01*
X023933Y009814D01*
X023999Y009705D02*
X023034Y009705D01*
X022915Y009587D02*
X024160Y009587D01*
X024562Y009587D02*
X024602Y009587D01*
X024602Y009705D02*
X024562Y009705D01*
X024562Y009824D02*
X024602Y009824D01*
X024602Y009942D02*
X024562Y009942D01*
X024602Y009955D02*
X024602Y009995D01*
X025262Y009995D01*
X025262Y010008D01*
X025252Y010073D01*
X025210Y010179D02*
X025474Y010179D01*
X025579Y010298D02*
X025113Y010298D01*
X024922Y010575D02*
X025069Y010636D01*
X025181Y010748D01*
X025242Y010895D01*
X025242Y011055D01*
X025181Y011202D01*
X025069Y011314D01*
X024922Y011375D01*
X024243Y011375D01*
X024096Y011314D01*
X023983Y011202D01*
X023922Y011055D01*
X023922Y010895D01*
X023983Y010748D01*
X024096Y010636D01*
X024243Y010575D01*
X024922Y010575D01*
X025086Y010653D02*
X025579Y010653D01*
X025474Y010772D02*
X025191Y010772D01*
X025240Y010890D02*
X025425Y010890D01*
X025422Y011009D02*
X025242Y011009D01*
X025212Y011127D02*
X025452Y011127D01*
X025527Y011246D02*
X025137Y011246D01*
X024948Y011364D02*
X025716Y011364D01*
X026137Y011601D02*
X021466Y011601D01*
X021571Y011483D02*
X026245Y011483D01*
X026733Y011601D02*
X027358Y011601D01*
X027253Y011720D02*
X026625Y011720D01*
X026516Y011838D02*
X027149Y011838D01*
X027044Y011957D02*
X026408Y011957D01*
X026300Y012075D02*
X026939Y012075D01*
X026922Y012094D02*
X028592Y010206D01*
X028582Y010196D01*
X028294Y010485D01*
X027871Y010485D01*
X027572Y010186D01*
X027572Y009764D01*
X027861Y009475D01*
X027572Y009186D01*
X027572Y008764D01*
X027861Y008475D01*
X027572Y008186D01*
X027572Y007856D01*
X027062Y008366D01*
X027062Y011150D01*
X027066Y011236D01*
X027062Y011240D01*
X027062Y011246D01*
X027001Y011307D01*
X024482Y014065D01*
X030346Y014065D01*
X032821Y011375D01*
X032243Y011375D01*
X032096Y011314D01*
X031983Y011202D01*
X031922Y011055D01*
X031922Y010895D01*
X031983Y010748D01*
X032096Y010636D01*
X032243Y010575D01*
X032922Y010575D01*
X033069Y010636D01*
X033102Y010669D01*
X033102Y010281D01*
X033069Y010314D01*
X032922Y010375D01*
X032243Y010375D01*
X032096Y010314D01*
X031983Y010202D01*
X031922Y010055D01*
X031922Y009895D01*
X031983Y009748D01*
X032096Y009636D01*
X032243Y009575D01*
X032922Y009575D01*
X033069Y009636D01*
X033102Y009669D01*
X033102Y009281D01*
X033069Y009314D01*
X032922Y009375D01*
X032243Y009375D01*
X032096Y009314D01*
X031983Y009202D01*
X031922Y009055D01*
X031922Y008895D01*
X031983Y008748D01*
X032096Y008636D01*
X032243Y008575D01*
X032922Y008575D01*
X033069Y008636D01*
X033102Y008669D01*
X033102Y008281D01*
X033069Y008314D01*
X032922Y008375D01*
X032243Y008375D01*
X032096Y008314D01*
X031983Y008202D01*
X031922Y008055D01*
X031922Y007895D01*
X031983Y007748D01*
X032096Y007636D01*
X032243Y007575D01*
X032922Y007575D01*
X033069Y007636D01*
X033102Y007669D01*
X033102Y007281D01*
X033069Y007314D01*
X032922Y007375D01*
X032243Y007375D01*
X032096Y007314D01*
X031983Y007202D01*
X031922Y007055D01*
X031922Y006895D01*
X031983Y006748D01*
X032096Y006636D01*
X032243Y006575D01*
X032922Y006575D01*
X033069Y006636D01*
X033102Y006669D01*
X033102Y006281D01*
X033069Y006314D01*
X032922Y006375D01*
X032243Y006375D01*
X032096Y006314D01*
X031983Y006202D01*
X031922Y006055D01*
X031922Y005895D01*
X031983Y005748D01*
X032096Y005636D01*
X032243Y005575D01*
X032922Y005575D01*
X033069Y005636D01*
X033102Y005669D01*
X033102Y005281D01*
X033069Y005314D01*
X032922Y005375D01*
X032243Y005375D01*
X032096Y005314D01*
X031983Y005202D01*
X031956Y005135D01*
X031791Y005135D01*
X031733Y005077D01*
X031681Y005202D01*
X031984Y005202D01*
X032111Y005321D02*
X031553Y005321D01*
X031569Y005314D02*
X031422Y005375D01*
X031013Y005375D01*
X030813Y005575D01*
X031422Y005575D01*
X031569Y005636D01*
X031681Y005748D01*
X031742Y005895D01*
X031742Y006055D01*
X031681Y006202D01*
X031569Y006314D01*
X031422Y006375D01*
X030743Y006375D01*
X030596Y006314D01*
X030483Y006202D01*
X030422Y006055D01*
X030422Y005966D01*
X029342Y007046D01*
X029342Y007514D01*
X029592Y007764D01*
X029592Y008186D01*
X029342Y008436D01*
X029342Y008514D01*
X029592Y008764D01*
X029592Y009186D01*
X029342Y009436D01*
X029342Y009514D01*
X029592Y009764D01*
X029592Y010186D01*
X029294Y010485D01*
X028933Y010485D01*
X027302Y012328D01*
X027302Y012715D01*
X027510Y012715D01*
X027592Y012797D01*
X027592Y013019D01*
X027629Y012947D01*
X027678Y012880D01*
X027737Y012821D01*
X027805Y012772D01*
X027879Y012734D01*
X027958Y012708D01*
X028041Y012695D01*
X028042Y012695D01*
X028042Y013185D01*
X028122Y013185D01*
X028122Y012695D01*
X028124Y012695D01*
X028206Y012708D01*
X028286Y012734D01*
X028360Y012772D01*
X028428Y012821D01*
X028487Y012880D01*
X028536Y012947D01*
X028573Y013022D01*
X028582Y013049D01*
X028591Y013022D01*
X028629Y012947D01*
X028678Y012880D01*
X028737Y012821D01*
X028805Y012772D01*
X028879Y012734D01*
X028958Y012708D01*
X029041Y012695D01*
X029042Y012695D01*
X029042Y013185D01*
X028552Y013185D01*
X028122Y013185D01*
X028122Y013265D01*
X028042Y013265D01*
X028042Y013755D01*
X028041Y013755D01*
X027958Y013742D01*
X027879Y013716D01*
X027805Y013678D01*
X027737Y013629D01*
X027678Y013570D01*
X027629Y013503D01*
X027592Y013431D01*
X027592Y013653D01*
X027510Y013735D01*
X026654Y013735D01*
X026572Y013653D01*
X026572Y012797D01*
X026654Y012715D01*
X026862Y012715D01*
X026862Y012252D01*
X026857Y012167D01*
X026862Y012162D01*
X026862Y012154D01*
X026922Y012094D01*
X026859Y012194D02*
X026192Y012194D01*
X026083Y012312D02*
X026862Y012312D01*
X026862Y012431D02*
X025975Y012431D01*
X025867Y012549D02*
X026862Y012549D01*
X026862Y012668D02*
X025759Y012668D01*
X025650Y012786D02*
X026583Y012786D01*
X026572Y012905D02*
X025542Y012905D01*
X025434Y013023D02*
X026572Y013023D01*
X026572Y013142D02*
X025326Y013142D01*
X025217Y013260D02*
X026572Y013260D01*
X026572Y013379D02*
X025109Y013379D01*
X025001Y013497D02*
X026572Y013497D01*
X026572Y013616D02*
X024893Y013616D01*
X024784Y013734D02*
X026653Y013734D01*
X027511Y013734D02*
X027934Y013734D01*
X028042Y013734D02*
X028122Y013734D01*
X028122Y013755D02*
X028122Y013265D01*
X029042Y013265D01*
X029042Y013185D01*
X029122Y013185D01*
X029122Y012695D01*
X029124Y012695D01*
X029206Y012708D01*
X029286Y012734D01*
X029360Y012772D01*
X029428Y012821D01*
X029487Y012880D01*
X029536Y012947D01*
X029573Y013022D01*
X029592Y013077D01*
X029650Y012936D01*
X029793Y012793D01*
X029981Y012715D01*
X030184Y012715D01*
X030371Y012793D01*
X030515Y012936D01*
X030592Y013124D01*
X030592Y013326D01*
X030515Y013514D01*
X030371Y013657D01*
X030184Y013735D01*
X029981Y013735D01*
X029793Y013657D01*
X029650Y013514D01*
X029592Y013373D01*
X029573Y013428D01*
X029536Y013503D01*
X029487Y013570D01*
X029428Y013629D01*
X029360Y013678D01*
X029286Y013716D01*
X029206Y013742D01*
X029124Y013755D01*
X029122Y013755D01*
X029122Y013265D01*
X029042Y013265D01*
X029042Y013755D01*
X029041Y013755D01*
X028958Y013742D01*
X028879Y013716D01*
X028805Y013678D01*
X028737Y013629D01*
X028678Y013570D01*
X028629Y013503D01*
X028591Y013428D01*
X028582Y013401D01*
X028573Y013428D01*
X028536Y013503D01*
X028487Y013570D01*
X028428Y013629D01*
X028360Y013678D01*
X028286Y013716D01*
X028206Y013742D01*
X028124Y013755D01*
X028122Y013755D01*
X028231Y013734D02*
X028934Y013734D01*
X029042Y013734D02*
X029122Y013734D01*
X029231Y013734D02*
X029978Y013734D01*
X030186Y013734D02*
X030650Y013734D01*
X030541Y013853D02*
X024676Y013853D01*
X024568Y013971D02*
X030432Y013971D01*
X030812Y014208D02*
X037329Y014208D01*
X037281Y014090D02*
X030921Y014090D01*
X031030Y013971D02*
X037249Y013971D01*
X037222Y013853D02*
X031139Y013853D01*
X031248Y013734D02*
X033153Y013734D01*
X033154Y013735D02*
X033072Y013653D01*
X033072Y012797D01*
X033154Y012715D01*
X033462Y012715D01*
X033462Y011784D01*
X034761Y010485D01*
X034371Y010485D01*
X034072Y010186D01*
X034072Y009764D01*
X034361Y009475D01*
X034072Y009186D01*
X034072Y008764D01*
X034361Y008475D01*
X034072Y008186D01*
X034072Y007764D01*
X034371Y007465D01*
X034794Y007465D01*
X035082Y007754D01*
X035371Y007465D01*
X035382Y007465D01*
X035382Y006864D01*
X035511Y006735D01*
X037014Y005232D01*
X036983Y005202D01*
X036922Y005055D01*
X036922Y004895D01*
X036983Y004748D01*
X037096Y004636D01*
X037243Y004575D01*
X037922Y004575D01*
X038069Y004636D01*
X038181Y004748D01*
X038242Y004895D01*
X038242Y005055D01*
X038181Y005202D01*
X038992Y005202D01*
X038992Y005084D02*
X038230Y005084D01*
X038242Y004965D02*
X038992Y004965D01*
X038992Y004847D02*
X038222Y004847D01*
X038161Y004728D02*
X038992Y004728D01*
X038992Y004610D02*
X038005Y004610D01*
X037941Y004385D02*
X037875Y004395D01*
X037602Y004395D01*
X037602Y003995D01*
X037562Y003995D01*
X037562Y003955D01*
X036902Y003955D01*
X036902Y003942D01*
X036913Y003877D01*
X036933Y003814D01*
X036963Y003755D01*
X037002Y003701D01*
X037049Y003655D01*
X037102Y003616D01*
X037161Y003586D01*
X037224Y003565D01*
X037289Y003555D01*
X037562Y003555D01*
X037562Y003955D01*
X037602Y003955D01*
X037602Y003555D01*
X037875Y003555D01*
X037941Y003565D01*
X038004Y003586D01*
X038062Y003616D01*
X038116Y003655D01*
X038163Y003701D01*
X038201Y003755D01*
X038232Y003814D01*
X038252Y003877D01*
X038262Y003942D01*
X038262Y003955D01*
X037602Y003955D01*
X037602Y003995D01*
X038262Y003995D01*
X038262Y004008D01*
X038252Y004073D01*
X038232Y004136D01*
X038201Y004195D01*
X038163Y004249D01*
X038116Y004295D01*
X038062Y004334D01*
X038004Y004364D01*
X037941Y004385D01*
X037978Y004373D02*
X038992Y004373D01*
X038992Y004491D02*
X033329Y004491D01*
X033211Y004373D02*
X037187Y004373D01*
X037161Y004364D02*
X037102Y004334D01*
X037049Y004295D01*
X037002Y004249D01*
X036963Y004195D01*
X036933Y004136D01*
X036913Y004073D01*
X036902Y004008D01*
X036902Y003995D01*
X037562Y003995D01*
X037562Y004395D01*
X037289Y004395D01*
X037224Y004385D01*
X037161Y004364D01*
X037007Y004254D02*
X033129Y004254D01*
X033209Y004136D02*
X036933Y004136D01*
X036904Y004017D02*
X033242Y004017D01*
X033242Y003899D02*
X036909Y003899D01*
X036950Y003780D02*
X033194Y003780D01*
X033094Y003662D02*
X037042Y003662D01*
X037562Y003662D02*
X037602Y003662D01*
X037602Y003780D02*
X037562Y003780D01*
X037562Y003899D02*
X037602Y003899D01*
X037602Y004017D02*
X037562Y004017D01*
X037562Y004136D02*
X037602Y004136D01*
X037602Y004254D02*
X037562Y004254D01*
X037562Y004373D02*
X037602Y004373D01*
X037159Y004610D02*
X033448Y004610D01*
X033542Y004728D02*
X037004Y004728D01*
X036943Y004847D02*
X033542Y004847D01*
X033542Y004965D02*
X036922Y004965D01*
X036934Y005084D02*
X033542Y005084D01*
X033542Y005202D02*
X036984Y005202D01*
X036926Y005321D02*
X033542Y005321D01*
X033542Y005439D02*
X036807Y005439D01*
X036689Y005558D02*
X033542Y005558D01*
X033542Y005676D02*
X036570Y005676D01*
X036452Y005795D02*
X033542Y005795D01*
X033542Y005913D02*
X036333Y005913D01*
X036215Y006032D02*
X033542Y006032D01*
X033542Y006150D02*
X036096Y006150D01*
X035978Y006269D02*
X033542Y006269D01*
X033542Y006387D02*
X035859Y006387D01*
X035741Y006506D02*
X033542Y006506D01*
X033542Y006624D02*
X035622Y006624D01*
X035504Y006743D02*
X033542Y006743D01*
X033542Y006861D02*
X035385Y006861D01*
X035382Y006980D02*
X033542Y006980D01*
X033542Y007098D02*
X035382Y007098D01*
X035382Y007217D02*
X033542Y007217D01*
X033542Y007335D02*
X035382Y007335D01*
X035382Y007454D02*
X033542Y007454D01*
X033542Y007572D02*
X034264Y007572D01*
X034146Y007691D02*
X033542Y007691D01*
X033542Y007809D02*
X034072Y007809D01*
X034072Y007928D02*
X033542Y007928D01*
X033542Y008046D02*
X034072Y008046D01*
X034072Y008165D02*
X033542Y008165D01*
X033542Y008283D02*
X034169Y008283D01*
X034288Y008402D02*
X033542Y008402D01*
X033542Y008520D02*
X034316Y008520D01*
X034198Y008639D02*
X033542Y008639D01*
X033542Y008757D02*
X034079Y008757D01*
X034072Y008876D02*
X033542Y008876D01*
X033542Y008994D02*
X034072Y008994D01*
X034072Y009113D02*
X033542Y009113D01*
X033542Y009231D02*
X034117Y009231D01*
X034236Y009350D02*
X033542Y009350D01*
X033542Y009468D02*
X034354Y009468D01*
X034250Y009587D02*
X033542Y009587D01*
X033542Y009705D02*
X034131Y009705D01*
X034072Y009824D02*
X033542Y009824D01*
X033542Y009942D02*
X034072Y009942D01*
X034072Y010061D02*
X033542Y010061D01*
X033542Y010179D02*
X034072Y010179D01*
X034184Y010298D02*
X033542Y010298D01*
X033542Y010416D02*
X034302Y010416D01*
X034712Y010535D02*
X033542Y010535D01*
X033542Y010653D02*
X034593Y010653D01*
X034475Y010772D02*
X033542Y010772D01*
X033542Y010890D02*
X034356Y010890D01*
X034238Y011009D02*
X033542Y011009D01*
X033542Y011127D02*
X034119Y011127D01*
X034001Y011246D02*
X033542Y011246D01*
X033429Y011364D02*
X033882Y011364D01*
X033764Y011483D02*
X033320Y011483D01*
X033211Y011601D02*
X033645Y011601D01*
X033527Y011720D02*
X033102Y011720D01*
X032993Y011838D02*
X033462Y011838D01*
X033462Y011957D02*
X032884Y011957D01*
X032775Y012075D02*
X033462Y012075D01*
X033462Y012194D02*
X032666Y012194D01*
X032557Y012312D02*
X033462Y012312D01*
X033462Y012431D02*
X032448Y012431D01*
X032339Y012549D02*
X033462Y012549D01*
X033462Y012668D02*
X032230Y012668D01*
X032120Y012786D02*
X033083Y012786D01*
X033072Y012905D02*
X032011Y012905D01*
X031902Y013023D02*
X033072Y013023D01*
X033072Y013142D02*
X031793Y013142D01*
X031684Y013260D02*
X033072Y013260D01*
X033072Y013379D02*
X031575Y013379D01*
X031466Y013497D02*
X033072Y013497D01*
X033072Y013616D02*
X031357Y013616D01*
X030977Y013379D02*
X030571Y013379D01*
X030592Y013260D02*
X031086Y013260D01*
X031195Y013142D02*
X030592Y013142D01*
X030551Y013023D02*
X031304Y013023D01*
X031414Y012905D02*
X030483Y012905D01*
X030355Y012786D02*
X031523Y012786D01*
X031632Y012668D02*
X027302Y012668D01*
X027302Y012549D02*
X031741Y012549D01*
X031850Y012431D02*
X027302Y012431D01*
X027317Y012312D02*
X031959Y012312D01*
X032068Y012194D02*
X027422Y012194D01*
X027526Y012075D02*
X032177Y012075D01*
X032286Y011957D02*
X027631Y011957D01*
X027736Y011838D02*
X032395Y011838D01*
X032504Y011720D02*
X027841Y011720D01*
X027946Y011601D02*
X032613Y011601D01*
X032722Y011483D02*
X028051Y011483D01*
X028156Y011364D02*
X030716Y011364D01*
X030743Y011375D02*
X030596Y011314D01*
X030483Y011202D01*
X030422Y011055D01*
X030422Y010895D01*
X030483Y010748D01*
X030596Y010636D01*
X030743Y010575D01*
X031422Y010575D01*
X031569Y010636D01*
X031681Y010748D01*
X031742Y010895D01*
X031742Y011055D01*
X031681Y011202D01*
X031569Y011314D01*
X031422Y011375D01*
X030743Y011375D01*
X030527Y011246D02*
X028260Y011246D01*
X028365Y011127D02*
X030452Y011127D01*
X030422Y011009D02*
X028470Y011009D01*
X028575Y010890D02*
X030425Y010890D01*
X030474Y010772D02*
X028680Y010772D01*
X028785Y010653D02*
X030579Y010653D01*
X030661Y010364D02*
X030602Y010334D01*
X030549Y010295D01*
X030502Y010249D01*
X030463Y010195D01*
X030433Y010136D01*
X030413Y010073D01*
X030402Y010008D01*
X030402Y009995D01*
X031062Y009995D01*
X031062Y009955D01*
X030402Y009955D01*
X030402Y009942D01*
X029592Y009942D01*
X029592Y009824D02*
X030430Y009824D01*
X030433Y009814D02*
X030463Y009755D01*
X030502Y009701D01*
X030549Y009655D01*
X030602Y009616D01*
X030661Y009586D01*
X030724Y009565D01*
X030789Y009555D01*
X031062Y009555D01*
X031062Y009955D01*
X031102Y009955D01*
X031102Y009555D01*
X031375Y009555D01*
X031441Y009565D01*
X031504Y009586D01*
X031562Y009616D01*
X031616Y009655D01*
X031663Y009701D01*
X031701Y009755D01*
X031732Y009814D01*
X031752Y009877D01*
X031762Y009942D01*
X031922Y009942D01*
X031925Y010061D02*
X031754Y010061D01*
X031752Y010073D02*
X031732Y010136D01*
X031701Y010195D01*
X031663Y010249D01*
X031616Y010295D01*
X031562Y010334D01*
X031504Y010364D01*
X031441Y010385D01*
X031375Y010395D01*
X031102Y010395D01*
X031102Y009995D01*
X031062Y009995D01*
X031062Y010395D01*
X030789Y010395D01*
X030724Y010385D01*
X030661Y010364D01*
X030552Y010298D02*
X029481Y010298D01*
X029592Y010179D02*
X030455Y010179D01*
X030411Y010061D02*
X029592Y010061D01*
X029534Y009705D02*
X030499Y009705D01*
X030433Y009814D02*
X030413Y009877D01*
X030402Y009942D01*
X030660Y009587D02*
X029415Y009587D01*
X029342Y009468D02*
X033102Y009468D01*
X033102Y009350D02*
X032983Y009350D01*
X032950Y009587D02*
X033102Y009587D01*
X032215Y009587D02*
X031505Y009587D01*
X031665Y009705D02*
X032027Y009705D01*
X031952Y009824D02*
X031735Y009824D01*
X031762Y009942D02*
X031762Y009955D01*
X031102Y009955D01*
X031102Y009995D01*
X031762Y009995D01*
X031762Y010008D01*
X031752Y010073D01*
X031710Y010179D02*
X031974Y010179D01*
X032079Y010298D02*
X031613Y010298D01*
X031102Y010298D02*
X031062Y010298D01*
X031062Y010179D02*
X031102Y010179D01*
X031102Y010061D02*
X031062Y010061D01*
X031062Y009942D02*
X031102Y009942D01*
X031102Y009824D02*
X031062Y009824D01*
X031062Y009705D02*
X031102Y009705D01*
X031102Y009587D02*
X031062Y009587D01*
X030743Y009375D02*
X030596Y009314D01*
X030483Y009202D01*
X030422Y009055D01*
X030422Y008895D01*
X030483Y008748D01*
X030596Y008636D01*
X030743Y008575D01*
X031422Y008575D01*
X031569Y008636D01*
X031681Y008748D01*
X031742Y008895D01*
X031742Y009055D01*
X031681Y009202D01*
X031569Y009314D01*
X031422Y009375D01*
X030743Y009375D01*
X030681Y009350D02*
X029429Y009350D01*
X029548Y009231D02*
X030513Y009231D01*
X030446Y009113D02*
X029592Y009113D01*
X029592Y008994D02*
X030422Y008994D01*
X030431Y008876D02*
X029592Y008876D01*
X029586Y008757D02*
X030480Y008757D01*
X030593Y008639D02*
X029467Y008639D01*
X029349Y008520D02*
X033102Y008520D01*
X033102Y008402D02*
X029377Y008402D01*
X029496Y008283D02*
X030565Y008283D01*
X030596Y008314D02*
X030483Y008202D01*
X030422Y008055D01*
X030422Y007895D01*
X030483Y007748D01*
X030596Y007636D01*
X030743Y007575D01*
X031422Y007575D01*
X031569Y007636D01*
X031681Y007748D01*
X031742Y007895D01*
X031742Y008055D01*
X031681Y008202D01*
X031569Y008314D01*
X031422Y008375D01*
X030743Y008375D01*
X030596Y008314D01*
X030468Y008165D02*
X029592Y008165D01*
X029592Y008046D02*
X030422Y008046D01*
X030422Y007928D02*
X029592Y007928D01*
X029592Y007809D02*
X030458Y007809D01*
X030541Y007691D02*
X029519Y007691D01*
X029401Y007572D02*
X033102Y007572D01*
X033102Y007454D02*
X029342Y007454D01*
X029342Y007335D02*
X030646Y007335D01*
X030596Y007314D02*
X030743Y007375D01*
X031422Y007375D01*
X031569Y007314D01*
X031681Y007202D01*
X031742Y007055D01*
X031742Y006895D01*
X031681Y006748D01*
X031569Y006636D01*
X031422Y006575D01*
X030743Y006575D01*
X030596Y006636D01*
X030483Y006748D01*
X030422Y006895D01*
X030422Y007055D01*
X030483Y007202D01*
X030596Y007314D01*
X030498Y007217D02*
X029342Y007217D01*
X029342Y007098D02*
X030440Y007098D01*
X030422Y006980D02*
X029409Y006980D01*
X029527Y006861D02*
X030437Y006861D01*
X030489Y006743D02*
X029646Y006743D01*
X029764Y006624D02*
X030624Y006624D01*
X030550Y006269D02*
X030120Y006269D01*
X030001Y006387D02*
X033102Y006387D01*
X033102Y006506D02*
X029883Y006506D01*
X030238Y006150D02*
X030462Y006150D01*
X030422Y006032D02*
X030357Y006032D01*
X030831Y005558D02*
X033102Y005558D01*
X033102Y005439D02*
X030949Y005439D01*
X031569Y005314D02*
X031681Y005202D01*
X031730Y005084D02*
X031740Y005084D01*
X031888Y004610D02*
X032159Y004610D01*
X031769Y004491D02*
X032707Y004491D01*
X032237Y004373D02*
X031651Y004373D01*
X031657Y004254D02*
X032036Y004254D01*
X031956Y004136D02*
X031732Y004136D01*
X031761Y004017D02*
X031922Y004017D01*
X031922Y003899D02*
X031755Y003899D01*
X031714Y003780D02*
X031970Y003780D01*
X032070Y003662D02*
X031623Y003662D01*
X031102Y003662D02*
X031062Y003662D01*
X031062Y003780D02*
X031102Y003780D01*
X031102Y003899D02*
X031062Y003899D01*
X030542Y003662D02*
X026594Y003662D01*
X026694Y003780D02*
X030450Y003780D01*
X030409Y003899D02*
X026742Y003899D01*
X026742Y004017D02*
X030404Y004017D01*
X030433Y004136D02*
X026709Y004136D01*
X026629Y004254D02*
X030507Y004254D01*
X030434Y004373D02*
X026428Y004373D01*
X026505Y004610D02*
X030197Y004610D01*
X030078Y004728D02*
X026661Y004728D01*
X026722Y004847D02*
X029960Y004847D01*
X029841Y004965D02*
X026742Y004965D01*
X026730Y005084D02*
X029723Y005084D01*
X029367Y005439D02*
X024469Y005439D01*
X024351Y005558D02*
X029249Y005558D01*
X029130Y005676D02*
X026609Y005676D01*
X026569Y005636D02*
X026681Y005748D01*
X026742Y005895D01*
X026742Y006055D01*
X026681Y006202D01*
X026569Y006314D01*
X026422Y006375D01*
X025743Y006375D01*
X025596Y006314D01*
X025483Y006202D01*
X025422Y006055D01*
X025422Y005895D01*
X025483Y005748D01*
X025596Y005636D01*
X025743Y005575D01*
X026422Y005575D01*
X026569Y005636D01*
X026700Y005795D02*
X029012Y005795D01*
X028893Y005913D02*
X026742Y005913D01*
X026742Y006032D02*
X028775Y006032D01*
X028656Y006150D02*
X026703Y006150D01*
X026614Y006269D02*
X028538Y006269D01*
X028419Y006387D02*
X023521Y006387D01*
X023403Y006506D02*
X028301Y006506D01*
X028182Y006624D02*
X026540Y006624D01*
X026569Y006636D02*
X026681Y006748D01*
X026742Y006895D01*
X026742Y007055D01*
X026681Y007202D01*
X026569Y007314D01*
X026422Y007375D01*
X025743Y007375D01*
X025596Y007314D01*
X025483Y007202D01*
X025422Y007055D01*
X025422Y006895D01*
X025483Y006748D01*
X025596Y006636D01*
X025743Y006575D01*
X026422Y006575D01*
X026569Y006636D01*
X026675Y006743D02*
X028064Y006743D01*
X027945Y006861D02*
X026728Y006861D01*
X026742Y006980D02*
X027827Y006980D01*
X027708Y007098D02*
X026724Y007098D01*
X026666Y007217D02*
X027590Y007217D01*
X027471Y007335D02*
X026518Y007335D01*
X026623Y007691D02*
X027116Y007691D01*
X026997Y007809D02*
X026706Y007809D01*
X026742Y007928D02*
X026879Y007928D01*
X026760Y008046D02*
X026742Y008046D01*
X026622Y008283D02*
X026600Y008283D01*
X026622Y008402D02*
X022877Y008402D01*
X022862Y008520D02*
X026622Y008520D01*
X026622Y008639D02*
X026571Y008639D01*
X027062Y008639D02*
X027698Y008639D01*
X027579Y008757D02*
X027062Y008757D01*
X027062Y008876D02*
X027572Y008876D01*
X027572Y008994D02*
X027062Y008994D01*
X027062Y009113D02*
X027572Y009113D01*
X027617Y009231D02*
X027062Y009231D01*
X027062Y009350D02*
X027736Y009350D01*
X027854Y009468D02*
X027062Y009468D01*
X027062Y009587D02*
X027750Y009587D01*
X027631Y009705D02*
X027062Y009705D01*
X027062Y009824D02*
X027572Y009824D01*
X027572Y009942D02*
X027062Y009942D01*
X027062Y010061D02*
X027572Y010061D01*
X027572Y010179D02*
X027062Y010179D01*
X027062Y010298D02*
X027684Y010298D01*
X027802Y010416D02*
X027062Y010416D01*
X027062Y010535D02*
X028302Y010535D01*
X028363Y010416D02*
X028407Y010416D01*
X028481Y010298D02*
X028512Y010298D01*
X028889Y010535D02*
X033102Y010535D01*
X033102Y010653D02*
X033086Y010653D01*
X033102Y010416D02*
X029363Y010416D01*
X028197Y010653D02*
X027062Y010653D01*
X027062Y010772D02*
X028092Y010772D01*
X027987Y010890D02*
X027062Y010890D01*
X027062Y011009D02*
X027883Y011009D01*
X027778Y011127D02*
X027062Y011127D01*
X027062Y011246D02*
X027673Y011246D01*
X027568Y011364D02*
X026949Y011364D01*
X026841Y011483D02*
X027463Y011483D01*
X026029Y011720D02*
X021361Y011720D01*
X021256Y011838D02*
X025920Y011838D01*
X025812Y011957D02*
X021151Y011957D01*
X021046Y012075D02*
X025704Y012075D01*
X025596Y012194D02*
X020942Y012194D01*
X020837Y012312D02*
X025487Y012312D01*
X025379Y012431D02*
X020822Y012431D01*
X020822Y012549D02*
X025271Y012549D01*
X025163Y012668D02*
X020822Y012668D01*
X021081Y012786D02*
X021285Y012786D01*
X021160Y012905D02*
X021092Y012905D01*
X021542Y012905D02*
X021622Y012905D01*
X021622Y013023D02*
X021542Y013023D01*
X021542Y013142D02*
X021622Y013142D01*
X021622Y013260D02*
X022542Y013260D01*
X022542Y013142D02*
X022622Y013142D01*
X022622Y013023D02*
X022542Y013023D01*
X022542Y012905D02*
X022622Y012905D01*
X022622Y012786D02*
X022542Y012786D01*
X022285Y012786D02*
X021880Y012786D01*
X022005Y012905D02*
X022160Y012905D01*
X022091Y013023D02*
X022074Y013023D01*
X021622Y012786D02*
X021542Y012786D01*
X020382Y012668D02*
X019644Y012668D01*
X019537Y012786D02*
X020083Y012786D01*
X020072Y012905D02*
X019430Y012905D01*
X019323Y013023D02*
X020072Y013023D01*
X020072Y013142D02*
X019216Y013142D01*
X019110Y013260D02*
X020072Y013260D01*
X020072Y013379D02*
X019003Y013379D01*
X018896Y013497D02*
X020072Y013497D01*
X020072Y013616D02*
X018789Y013616D01*
X018682Y013734D02*
X020153Y013734D01*
X021011Y013734D02*
X021434Y013734D01*
X021542Y013734D02*
X021622Y013734D01*
X021731Y013734D02*
X022434Y013734D01*
X022542Y013734D02*
X022622Y013734D01*
X022731Y013734D02*
X023478Y013734D01*
X023686Y013734D02*
X024188Y013734D01*
X024297Y013616D02*
X023913Y013616D01*
X024022Y013497D02*
X024405Y013497D01*
X024513Y013379D02*
X024071Y013379D01*
X024092Y013260D02*
X024621Y013260D01*
X024730Y013142D02*
X024092Y013142D01*
X024051Y013023D02*
X024838Y013023D01*
X024946Y012905D02*
X023983Y012905D01*
X023855Y012786D02*
X025054Y012786D01*
X023309Y012786D02*
X022880Y012786D01*
X023005Y012905D02*
X023182Y012905D01*
X023114Y013023D02*
X023074Y013023D01*
X023090Y013379D02*
X023094Y013379D01*
X023143Y013497D02*
X023039Y013497D01*
X022941Y013616D02*
X023252Y013616D01*
X022622Y013616D02*
X022542Y013616D01*
X022542Y013497D02*
X022622Y013497D01*
X022622Y013379D02*
X022542Y013379D01*
X022223Y013616D02*
X021941Y013616D01*
X022039Y013497D02*
X022126Y013497D01*
X021622Y013497D02*
X021542Y013497D01*
X021542Y013379D02*
X021622Y013379D01*
X021622Y013616D02*
X021542Y013616D01*
X021223Y013616D02*
X021092Y013616D01*
X021092Y013497D02*
X021126Y013497D01*
X020382Y012549D02*
X019750Y012549D01*
X019857Y012431D02*
X020382Y012431D01*
X020382Y012312D02*
X019964Y012312D01*
X020071Y012194D02*
X020379Y012194D01*
X020459Y012075D02*
X020177Y012075D01*
X020284Y011957D02*
X020564Y011957D01*
X020669Y011838D02*
X020391Y011838D01*
X020498Y011720D02*
X020773Y011720D01*
X020878Y011601D02*
X020605Y011601D01*
X020711Y011483D02*
X020983Y011483D01*
X021088Y011364D02*
X020822Y011364D01*
X020822Y011246D02*
X021193Y011246D01*
X021298Y011127D02*
X020822Y011127D01*
X020822Y011009D02*
X021403Y011009D01*
X021507Y010890D02*
X020822Y010890D01*
X020822Y010772D02*
X021612Y010772D01*
X021717Y010653D02*
X020822Y010653D01*
X020142Y010653D02*
X020086Y010653D01*
X018952Y011127D02*
X007411Y011127D01*
X006987Y011246D02*
X001792Y011246D01*
X001792Y011364D02*
X007017Y011364D01*
X007032Y011483D02*
X001792Y011483D01*
X001792Y011601D02*
X007147Y011601D01*
X006957Y011127D02*
X001792Y011127D01*
X001792Y011009D02*
X006926Y011009D01*
X006804Y010890D02*
X006360Y010890D01*
X006180Y010965D01*
X005985Y010965D01*
X005805Y010890D01*
X005667Y010753D01*
X005592Y010572D01*
X005592Y010378D01*
X005667Y010197D01*
X005805Y010060D01*
X005985Y009985D01*
X006180Y009985D01*
X006360Y010060D01*
X006498Y010197D01*
X006572Y010378D01*
X006572Y010572D01*
X006498Y010753D01*
X006360Y010890D01*
X006479Y010772D02*
X006686Y010772D01*
X006626Y010653D02*
X006539Y010653D01*
X006572Y010535D02*
X006592Y010535D01*
X006592Y010416D02*
X006572Y010416D01*
X006539Y010298D02*
X006625Y010298D01*
X006685Y010179D02*
X006479Y010179D01*
X006361Y010061D02*
X006804Y010061D01*
X007361Y010061D02*
X007804Y010061D01*
X007685Y010179D02*
X007479Y010179D01*
X007539Y010298D02*
X007625Y010298D01*
X007592Y010416D02*
X007572Y010416D01*
X007572Y010535D02*
X007592Y010535D01*
X007626Y010653D02*
X007539Y010653D01*
X007479Y010772D02*
X007686Y010772D01*
X007805Y010890D02*
X007985Y010965D01*
X008180Y010965D01*
X008360Y010890D01*
X008479Y010772D02*
X008686Y010772D01*
X008626Y010653D02*
X008539Y010653D01*
X008572Y010535D02*
X008592Y010535D01*
X008592Y010416D02*
X008572Y010416D01*
X008539Y010298D02*
X008625Y010298D01*
X008685Y010179D02*
X008479Y010179D01*
X008361Y010061D02*
X008804Y010061D01*
X009361Y010061D02*
X009804Y010061D01*
X009685Y010179D02*
X009479Y010179D01*
X009539Y010298D02*
X009625Y010298D01*
X009592Y010416D02*
X009572Y010416D01*
X009572Y010535D02*
X009592Y010535D01*
X009626Y010653D02*
X009539Y010653D01*
X009479Y010772D02*
X009686Y010772D01*
X009805Y010890D02*
X009985Y010965D01*
X010180Y010965D01*
X010360Y010890D01*
X010804Y010890D01*
X010805Y010890D02*
X010667Y010753D01*
X010592Y010572D01*
X010592Y010378D01*
X010629Y010290D01*
X010563Y010355D01*
X010572Y010378D01*
X010572Y010572D01*
X010498Y010753D01*
X010360Y010890D01*
X010479Y010772D02*
X010686Y010772D01*
X010626Y010653D02*
X010539Y010653D01*
X010572Y010535D02*
X010592Y010535D01*
X010592Y010416D02*
X010572Y010416D01*
X010621Y010298D02*
X010625Y010298D01*
X010897Y010021D02*
X010985Y009985D01*
X011180Y009985D01*
X011360Y010060D01*
X011498Y010197D01*
X011572Y010378D01*
X011572Y010572D01*
X011498Y010753D01*
X011360Y010890D01*
X011804Y010890D01*
X011805Y010890D02*
X011667Y010753D01*
X011592Y010572D01*
X011592Y010378D01*
X011667Y010197D01*
X011805Y010060D01*
X011985Y009985D01*
X012180Y009985D01*
X012360Y010060D01*
X012498Y010197D01*
X012572Y010378D01*
X012572Y010572D01*
X012498Y010753D01*
X012360Y010890D01*
X012804Y010890D01*
X012805Y010890D02*
X012667Y010753D01*
X012592Y010572D01*
X012592Y010378D01*
X012667Y010197D01*
X012805Y010060D01*
X012985Y009985D01*
X013180Y009985D01*
X013273Y010023D01*
X013486Y009810D01*
X011108Y009810D01*
X010897Y010021D01*
X010976Y009942D02*
X013354Y009942D01*
X013473Y009824D02*
X011095Y009824D01*
X010710Y009587D02*
X001792Y009587D01*
X001792Y009705D02*
X010591Y009705D01*
X010473Y009824D02*
X001792Y009824D01*
X001792Y009942D02*
X010354Y009942D01*
X011361Y010061D02*
X011804Y010061D01*
X011685Y010179D02*
X011479Y010179D01*
X011539Y010298D02*
X011625Y010298D01*
X011592Y010416D02*
X011572Y010416D01*
X011572Y010535D02*
X011592Y010535D01*
X011626Y010653D02*
X011539Y010653D01*
X011479Y010772D02*
X011686Y010772D01*
X011805Y010890D02*
X011985Y010965D01*
X012180Y010965D01*
X012360Y010890D01*
X012479Y010772D02*
X012686Y010772D01*
X012626Y010653D02*
X012539Y010653D01*
X012572Y010535D02*
X012592Y010535D01*
X012592Y010416D02*
X012572Y010416D01*
X012539Y010298D02*
X012625Y010298D01*
X012685Y010179D02*
X012479Y010179D01*
X012361Y010061D02*
X012804Y010061D01*
X014638Y009824D02*
X018952Y009824D01*
X019027Y009705D02*
X014733Y009705D01*
X014827Y009587D02*
X019215Y009587D01*
X019181Y009350D02*
X015016Y009350D01*
X014922Y009468D02*
X020142Y009468D01*
X020142Y009350D02*
X019983Y009350D01*
X019950Y009587D02*
X020142Y009587D01*
X020138Y009705D02*
X020142Y009705D01*
X019013Y009231D02*
X015110Y009231D01*
X015205Y009113D02*
X018946Y009113D01*
X018922Y008994D02*
X015299Y008994D01*
X015394Y008876D02*
X018931Y008876D01*
X018980Y008757D02*
X015488Y008757D01*
X015582Y008639D02*
X019093Y008639D01*
X020071Y008639D02*
X020142Y008639D01*
X020142Y008520D02*
X015677Y008520D01*
X015771Y008402D02*
X020142Y008402D01*
X020142Y008283D02*
X020100Y008283D01*
X019065Y008283D02*
X015866Y008283D01*
X015960Y008165D02*
X018968Y008165D01*
X018922Y008046D02*
X016055Y008046D01*
X016149Y007928D02*
X018922Y007928D01*
X018958Y007809D02*
X016243Y007809D01*
X016338Y007691D02*
X019041Y007691D01*
X019146Y007335D02*
X016621Y007335D01*
X016715Y007217D02*
X018998Y007217D01*
X018940Y007098D02*
X016810Y007098D01*
X016904Y006980D02*
X018922Y006980D01*
X018937Y006861D02*
X016999Y006861D01*
X017093Y006743D02*
X018989Y006743D01*
X019124Y006624D02*
X017188Y006624D01*
X017471Y006269D02*
X019050Y006269D01*
X018962Y006150D02*
X017565Y006150D01*
X017660Y006032D02*
X018922Y006032D01*
X018922Y005913D02*
X017754Y005913D01*
X017848Y005795D02*
X018964Y005795D01*
X020069Y005314D02*
X020181Y005202D01*
X019004Y004728D02*
X018356Y004728D01*
X018452Y004610D02*
X019159Y004610D01*
X019237Y004373D02*
X018645Y004373D01*
X018549Y004491D02*
X022875Y004491D01*
X025157Y004254D02*
X025536Y004254D01*
X025392Y004136D02*
X025232Y004136D01*
X025261Y004017D02*
X025273Y004017D01*
X025171Y004373D02*
X025737Y004373D01*
X025289Y004491D02*
X030315Y004491D01*
X033053Y005321D02*
X033102Y005321D01*
X032056Y005676D02*
X031609Y005676D01*
X031700Y005795D02*
X031964Y005795D01*
X031922Y005913D02*
X031742Y005913D01*
X031742Y006032D02*
X031922Y006032D01*
X031962Y006150D02*
X031703Y006150D01*
X031614Y006269D02*
X032050Y006269D01*
X032124Y006624D02*
X031540Y006624D01*
X031675Y006743D02*
X031989Y006743D01*
X031937Y006861D02*
X031728Y006861D01*
X031742Y006980D02*
X031922Y006980D01*
X031940Y007098D02*
X031724Y007098D01*
X031666Y007217D02*
X031998Y007217D01*
X032146Y007335D02*
X031518Y007335D01*
X031623Y007691D02*
X032041Y007691D01*
X031958Y007809D02*
X031706Y007809D01*
X031742Y007928D02*
X031922Y007928D01*
X031922Y008046D02*
X031742Y008046D01*
X031697Y008165D02*
X031968Y008165D01*
X032065Y008283D02*
X031600Y008283D01*
X031571Y008639D02*
X032093Y008639D01*
X031980Y008757D02*
X031685Y008757D01*
X031734Y008876D02*
X031931Y008876D01*
X031922Y008994D02*
X031742Y008994D01*
X031718Y009113D02*
X031946Y009113D01*
X032013Y009231D02*
X031652Y009231D01*
X031483Y009350D02*
X032181Y009350D01*
X033071Y008639D02*
X033102Y008639D01*
X033100Y008283D02*
X033102Y008283D01*
X034901Y007572D02*
X035264Y007572D01*
X035146Y007691D02*
X035019Y007691D01*
X035822Y007494D02*
X036092Y007764D01*
X036092Y008186D01*
X035822Y008456D01*
X035822Y008494D01*
X036092Y008764D01*
X036092Y009186D01*
X035822Y009456D01*
X035822Y009494D01*
X036092Y009764D01*
X036092Y010186D01*
X035794Y010485D01*
X035383Y010485D01*
X033902Y011966D01*
X033902Y012715D01*
X034010Y012715D01*
X034092Y012797D01*
X034092Y013019D01*
X034129Y012947D01*
X034178Y012880D01*
X034237Y012821D01*
X034305Y012772D01*
X034379Y012734D01*
X034458Y012708D01*
X034541Y012695D01*
X034542Y012695D01*
X034542Y013185D01*
X034622Y013185D01*
X034622Y012695D01*
X034624Y012695D01*
X034706Y012708D01*
X034786Y012734D01*
X034860Y012772D01*
X034928Y012821D01*
X034987Y012880D01*
X035036Y012947D01*
X035073Y013022D01*
X035082Y013049D01*
X035091Y013022D01*
X035129Y012947D01*
X035178Y012880D01*
X035237Y012821D01*
X035305Y012772D01*
X035379Y012734D01*
X035458Y012708D01*
X035541Y012695D01*
X035542Y012695D01*
X035542Y013185D01*
X035112Y013185D01*
X034622Y013185D01*
X034622Y013265D01*
X034542Y013265D01*
X034542Y013755D01*
X034541Y013755D01*
X034458Y013742D01*
X034379Y013716D01*
X034305Y013678D01*
X034237Y013629D01*
X034178Y013570D01*
X034129Y013503D01*
X034092Y013431D01*
X034092Y013653D01*
X034010Y013735D01*
X033154Y013735D01*
X034011Y013734D02*
X034434Y013734D01*
X034542Y013734D02*
X034622Y013734D01*
X034622Y013755D02*
X034622Y013265D01*
X035542Y013265D01*
X035542Y013185D01*
X035622Y013185D01*
X035622Y012695D01*
X035624Y012695D01*
X035706Y012708D01*
X035786Y012734D01*
X035860Y012772D01*
X035928Y012821D01*
X035987Y012880D01*
X036036Y012947D01*
X036073Y013022D01*
X036092Y013077D01*
X036150Y012936D01*
X036293Y012793D01*
X036481Y012715D01*
X036684Y012715D01*
X036871Y012793D01*
X037015Y012936D01*
X037092Y013124D01*
X037092Y013326D01*
X037015Y013514D01*
X036871Y013657D01*
X036684Y013735D01*
X036481Y013735D01*
X036293Y013657D01*
X036150Y013514D01*
X036092Y013373D01*
X036073Y013428D01*
X036036Y013503D01*
X035987Y013570D01*
X035928Y013629D01*
X035860Y013678D01*
X035786Y013716D01*
X035706Y013742D01*
X035624Y013755D01*
X035622Y013755D01*
X035622Y013265D01*
X035542Y013265D01*
X035542Y013755D01*
X035541Y013755D01*
X035458Y013742D01*
X035379Y013716D01*
X035305Y013678D01*
X035237Y013629D01*
X035178Y013570D01*
X035129Y013503D01*
X035091Y013428D01*
X035082Y013401D01*
X035073Y013428D01*
X035036Y013503D01*
X034987Y013570D01*
X034928Y013629D01*
X034860Y013678D01*
X034786Y013716D01*
X034706Y013742D01*
X034624Y013755D01*
X034622Y013755D01*
X034731Y013734D02*
X035434Y013734D01*
X035542Y013734D02*
X035622Y013734D01*
X035731Y013734D02*
X036478Y013734D01*
X036686Y013734D02*
X037222Y013734D01*
X037222Y013616D02*
X036913Y013616D01*
X037022Y013497D02*
X037244Y013497D01*
X037276Y013379D02*
X037071Y013379D01*
X037092Y013260D02*
X037319Y013260D01*
X037387Y013142D02*
X037092Y013142D01*
X037051Y013023D02*
X037464Y013023D01*
X037583Y012905D02*
X036983Y012905D01*
X036855Y012786D02*
X037739Y012786D01*
X037990Y012668D02*
X033902Y012668D01*
X033902Y012549D02*
X038992Y012549D01*
X038992Y012431D02*
X033902Y012431D01*
X033902Y012312D02*
X038992Y012312D01*
X038992Y012194D02*
X033902Y012194D01*
X033902Y012075D02*
X038992Y012075D01*
X038992Y011957D02*
X033912Y011957D01*
X034030Y011838D02*
X038992Y011838D01*
X038992Y011720D02*
X034149Y011720D01*
X034267Y011601D02*
X038992Y011601D01*
X038992Y011483D02*
X034386Y011483D01*
X034504Y011364D02*
X037216Y011364D01*
X037243Y011375D02*
X037096Y011314D01*
X036983Y011202D01*
X036922Y011055D01*
X036922Y010895D01*
X036983Y010748D01*
X037096Y010636D01*
X037243Y010575D01*
X037922Y010575D01*
X038069Y010636D01*
X038181Y010748D01*
X038242Y010895D01*
X038242Y011055D01*
X038181Y011202D01*
X038069Y011314D01*
X037922Y011375D01*
X037243Y011375D01*
X037027Y011246D02*
X034623Y011246D01*
X034741Y011127D02*
X036952Y011127D01*
X036922Y011009D02*
X034860Y011009D01*
X034978Y010890D02*
X036925Y010890D01*
X036974Y010772D02*
X035097Y010772D01*
X035215Y010653D02*
X037079Y010653D01*
X037161Y010364D02*
X037102Y010334D01*
X037049Y010295D01*
X037002Y010249D01*
X036963Y010195D01*
X036933Y010136D01*
X036913Y010073D01*
X036902Y010008D01*
X036902Y009995D01*
X037562Y009995D01*
X037562Y009955D01*
X036902Y009955D01*
X036902Y009942D01*
X036092Y009942D01*
X036092Y009824D02*
X036930Y009824D01*
X036933Y009814D02*
X036963Y009755D01*
X037002Y009701D01*
X037049Y009655D01*
X037102Y009616D01*
X037161Y009586D01*
X037224Y009565D01*
X037289Y009555D01*
X037562Y009555D01*
X037562Y009955D01*
X037602Y009955D01*
X037602Y009555D01*
X037875Y009555D01*
X037941Y009565D01*
X038004Y009586D01*
X038062Y009616D01*
X038116Y009655D01*
X038163Y009701D01*
X038201Y009755D01*
X038232Y009814D01*
X038252Y009877D01*
X038262Y009942D01*
X038992Y009942D01*
X038992Y009824D02*
X038235Y009824D01*
X038262Y009942D02*
X038262Y009955D01*
X037602Y009955D01*
X037602Y009995D01*
X037562Y009995D01*
X037562Y010395D01*
X037289Y010395D01*
X037224Y010385D01*
X037161Y010364D01*
X037052Y010298D02*
X035981Y010298D01*
X036092Y010179D02*
X036955Y010179D01*
X036911Y010061D02*
X036092Y010061D01*
X036034Y009705D02*
X036999Y009705D01*
X036933Y009814D02*
X036913Y009877D01*
X036902Y009942D01*
X037160Y009587D02*
X035915Y009587D01*
X035822Y009468D02*
X038992Y009468D01*
X038992Y009350D02*
X037983Y009350D01*
X037922Y009375D02*
X038069Y009314D01*
X038181Y009202D01*
X038242Y009055D01*
X038242Y008895D01*
X038181Y008748D01*
X038069Y008636D01*
X037922Y008575D01*
X037243Y008575D01*
X037096Y008636D01*
X036983Y008748D01*
X036922Y008895D01*
X036922Y009055D01*
X036983Y009202D01*
X037096Y009314D01*
X037243Y009375D01*
X037922Y009375D01*
X038152Y009231D02*
X038992Y009231D01*
X038992Y009113D02*
X038218Y009113D01*
X038242Y008994D02*
X038992Y008994D01*
X038992Y008876D02*
X038234Y008876D01*
X038185Y008757D02*
X038992Y008757D01*
X038992Y008639D02*
X038071Y008639D01*
X037922Y008375D02*
X037243Y008375D01*
X037096Y008314D01*
X036983Y008202D01*
X036922Y008055D01*
X036922Y007895D01*
X036983Y007748D01*
X037096Y007636D01*
X037243Y007575D01*
X037922Y007575D01*
X038069Y007636D01*
X038181Y007748D01*
X038242Y007895D01*
X038242Y008055D01*
X038181Y008202D01*
X038069Y008314D01*
X037922Y008375D01*
X038100Y008283D02*
X038992Y008283D01*
X038992Y008165D02*
X038197Y008165D01*
X038242Y008046D02*
X038992Y008046D01*
X038992Y007928D02*
X038242Y007928D01*
X038206Y007809D02*
X038992Y007809D01*
X038992Y007691D02*
X038123Y007691D01*
X038018Y007335D02*
X038992Y007335D01*
X038992Y007217D02*
X038166Y007217D01*
X038181Y007202D02*
X038069Y007314D01*
X037922Y007375D01*
X037243Y007375D01*
X037096Y007314D01*
X036983Y007202D01*
X036922Y007055D01*
X036922Y006895D01*
X036983Y006748D01*
X037096Y006636D01*
X037243Y006575D01*
X037922Y006575D01*
X038069Y006636D01*
X038181Y006748D01*
X038242Y006895D01*
X038242Y007055D01*
X038181Y007202D01*
X038224Y007098D02*
X038992Y007098D01*
X038992Y006980D02*
X038242Y006980D01*
X038228Y006861D02*
X038992Y006861D01*
X038992Y006743D02*
X038175Y006743D01*
X038040Y006624D02*
X038992Y006624D01*
X038992Y006506D02*
X036363Y006506D01*
X036244Y006624D02*
X037124Y006624D01*
X036989Y006743D02*
X036126Y006743D01*
X036007Y006861D02*
X036937Y006861D01*
X036922Y006980D02*
X035889Y006980D01*
X035822Y007046D02*
X035822Y007494D01*
X035822Y007454D02*
X038992Y007454D01*
X038992Y007572D02*
X035901Y007572D01*
X036019Y007691D02*
X037041Y007691D01*
X036958Y007809D02*
X036092Y007809D01*
X036092Y007928D02*
X036922Y007928D01*
X036922Y008046D02*
X036092Y008046D01*
X036092Y008165D02*
X036968Y008165D01*
X037065Y008283D02*
X035996Y008283D01*
X035877Y008402D02*
X038992Y008402D01*
X038992Y008520D02*
X035849Y008520D01*
X035967Y008639D02*
X037093Y008639D01*
X036980Y008757D02*
X036086Y008757D01*
X036092Y008876D02*
X036931Y008876D01*
X036922Y008994D02*
X036092Y008994D01*
X036092Y009113D02*
X036946Y009113D01*
X037013Y009231D02*
X036048Y009231D01*
X035929Y009350D02*
X037181Y009350D01*
X037562Y009587D02*
X037602Y009587D01*
X037602Y009705D02*
X037562Y009705D01*
X037562Y009824D02*
X037602Y009824D01*
X037602Y009942D02*
X037562Y009942D01*
X037602Y009995D02*
X038262Y009995D01*
X038262Y010008D01*
X038252Y010073D01*
X038232Y010136D01*
X038201Y010195D01*
X038163Y010249D01*
X038116Y010295D01*
X038062Y010334D01*
X038004Y010364D01*
X037941Y010385D01*
X037875Y010395D01*
X037602Y010395D01*
X037602Y009995D01*
X037602Y010061D02*
X037562Y010061D01*
X037562Y010179D02*
X037602Y010179D01*
X037602Y010298D02*
X037562Y010298D01*
X038113Y010298D02*
X038992Y010298D01*
X038992Y010416D02*
X035863Y010416D01*
X035334Y010535D02*
X038992Y010535D01*
X038992Y010653D02*
X038086Y010653D01*
X038191Y010772D02*
X038992Y010772D01*
X038992Y010890D02*
X038240Y010890D01*
X038242Y011009D02*
X038992Y011009D01*
X038992Y011127D02*
X038212Y011127D01*
X038137Y011246D02*
X038992Y011246D01*
X038992Y011364D02*
X037948Y011364D01*
X038210Y010179D02*
X038992Y010179D01*
X038992Y010061D02*
X038254Y010061D01*
X038165Y009705D02*
X038992Y009705D01*
X038992Y009587D02*
X038005Y009587D01*
X033102Y010298D02*
X033085Y010298D01*
X032079Y010653D02*
X031586Y010653D01*
X031691Y010772D02*
X031974Y010772D01*
X031925Y010890D02*
X031740Y010890D01*
X031742Y011009D02*
X031922Y011009D01*
X031952Y011127D02*
X031712Y011127D01*
X031637Y011246D02*
X032027Y011246D01*
X032216Y011364D02*
X031448Y011364D01*
X029809Y012786D02*
X029380Y012786D01*
X029505Y012905D02*
X029682Y012905D01*
X029614Y013023D02*
X029574Y013023D01*
X029122Y013023D02*
X029042Y013023D01*
X029042Y012905D02*
X029122Y012905D01*
X029122Y012786D02*
X029042Y012786D01*
X028785Y012786D02*
X028380Y012786D01*
X028505Y012905D02*
X028660Y012905D01*
X028591Y013023D02*
X028574Y013023D01*
X028122Y013023D02*
X028042Y013023D01*
X028042Y012905D02*
X028122Y012905D01*
X028122Y012786D02*
X028042Y012786D01*
X027785Y012786D02*
X027581Y012786D01*
X027592Y012905D02*
X027660Y012905D01*
X028042Y013142D02*
X028122Y013142D01*
X028122Y013260D02*
X029042Y013260D01*
X029042Y013142D02*
X029122Y013142D01*
X029122Y013379D02*
X029042Y013379D01*
X029042Y013497D02*
X029122Y013497D01*
X029122Y013616D02*
X029042Y013616D01*
X028723Y013616D02*
X028441Y013616D01*
X028539Y013497D02*
X028626Y013497D01*
X028122Y013497D02*
X028042Y013497D01*
X028042Y013379D02*
X028122Y013379D01*
X028122Y013616D02*
X028042Y013616D01*
X027723Y013616D02*
X027592Y013616D01*
X027592Y013497D02*
X027626Y013497D01*
X029441Y013616D02*
X029752Y013616D01*
X029643Y013497D02*
X029539Y013497D01*
X029590Y013379D02*
X029594Y013379D01*
X030413Y013616D02*
X030759Y013616D01*
X030868Y013497D02*
X030522Y013497D01*
X034092Y013497D02*
X034126Y013497D01*
X034092Y013616D02*
X034223Y013616D01*
X034542Y013616D02*
X034622Y013616D01*
X034622Y013497D02*
X034542Y013497D01*
X034542Y013379D02*
X034622Y013379D01*
X034622Y013260D02*
X035542Y013260D01*
X035542Y013142D02*
X035622Y013142D01*
X035622Y013023D02*
X035542Y013023D01*
X035542Y012905D02*
X035622Y012905D01*
X035622Y012786D02*
X035542Y012786D01*
X035285Y012786D02*
X034880Y012786D01*
X035005Y012905D02*
X035160Y012905D01*
X035091Y013023D02*
X035074Y013023D01*
X034622Y013023D02*
X034542Y013023D01*
X034542Y012905D02*
X034622Y012905D01*
X034622Y012786D02*
X034542Y012786D01*
X034285Y012786D02*
X034081Y012786D01*
X034092Y012905D02*
X034160Y012905D01*
X034542Y013142D02*
X034622Y013142D01*
X035542Y013379D02*
X035622Y013379D01*
X035622Y013497D02*
X035542Y013497D01*
X035542Y013616D02*
X035622Y013616D01*
X035941Y013616D02*
X036252Y013616D01*
X036143Y013497D02*
X036039Y013497D01*
X036090Y013379D02*
X036094Y013379D01*
X036074Y013023D02*
X036114Y013023D01*
X036182Y012905D02*
X036005Y012905D01*
X035880Y012786D02*
X036309Y012786D01*
X035223Y013616D02*
X034941Y013616D01*
X035039Y013497D02*
X035126Y013497D01*
X038674Y012668D02*
X038992Y012668D01*
X038992Y012786D02*
X038926Y012786D01*
X027816Y008520D02*
X027062Y008520D01*
X027062Y008402D02*
X027788Y008402D01*
X027669Y008283D02*
X027145Y008283D01*
X027264Y008165D02*
X027572Y008165D01*
X027572Y008046D02*
X027382Y008046D01*
X027501Y007928D02*
X027572Y007928D01*
X027234Y007572D02*
X022901Y007572D01*
X022862Y007454D02*
X027353Y007454D01*
X025646Y007335D02*
X025018Y007335D01*
X025069Y007314D02*
X024922Y007375D01*
X024243Y007375D01*
X024096Y007314D01*
X023983Y007202D01*
X023922Y007055D01*
X023922Y006895D01*
X023983Y006748D01*
X024096Y006636D01*
X024243Y006575D01*
X024922Y006575D01*
X025069Y006636D01*
X025181Y006748D01*
X025242Y006895D01*
X025242Y007055D01*
X025181Y007202D01*
X025069Y007314D01*
X025166Y007217D02*
X025498Y007217D01*
X025440Y007098D02*
X025224Y007098D01*
X025242Y006980D02*
X025422Y006980D01*
X025437Y006861D02*
X025228Y006861D01*
X025175Y006743D02*
X025489Y006743D01*
X025624Y006624D02*
X025040Y006624D01*
X025114Y006269D02*
X025550Y006269D01*
X025462Y006150D02*
X025203Y006150D01*
X025242Y006032D02*
X025422Y006032D01*
X025422Y005913D02*
X025242Y005913D01*
X025200Y005795D02*
X025464Y005795D01*
X025556Y005676D02*
X025109Y005676D01*
X025053Y005321D02*
X025611Y005321D01*
X023922Y006032D02*
X023877Y006032D01*
X023962Y006150D02*
X023758Y006150D01*
X023640Y006269D02*
X024050Y006269D01*
X024124Y006624D02*
X023284Y006624D01*
X023166Y006743D02*
X023989Y006743D01*
X023937Y006861D02*
X023047Y006861D01*
X022929Y006980D02*
X023922Y006980D01*
X023940Y007098D02*
X022862Y007098D01*
X022862Y007217D02*
X023998Y007217D01*
X024146Y007335D02*
X022862Y007335D01*
X023019Y007691D02*
X024041Y007691D01*
X024096Y007636D02*
X024243Y007575D01*
X024922Y007575D01*
X025069Y007636D01*
X025181Y007748D01*
X025242Y007895D01*
X025242Y008055D01*
X025181Y008202D01*
X025069Y008314D01*
X024922Y008375D01*
X024243Y008375D01*
X024096Y008314D01*
X023983Y008202D01*
X023922Y008055D01*
X023922Y007895D01*
X023983Y007748D01*
X024096Y007636D01*
X023958Y007809D02*
X023092Y007809D01*
X023092Y007928D02*
X023922Y007928D01*
X023922Y008046D02*
X023092Y008046D01*
X023092Y008165D02*
X023968Y008165D01*
X024065Y008283D02*
X022996Y008283D01*
X022967Y008639D02*
X024093Y008639D01*
X024096Y008636D02*
X024243Y008575D01*
X024922Y008575D01*
X025069Y008636D01*
X025181Y008748D01*
X025242Y008895D01*
X025242Y009055D01*
X025181Y009202D01*
X025069Y009314D01*
X024922Y009375D01*
X024243Y009375D01*
X024096Y009314D01*
X023983Y009202D01*
X023922Y009055D01*
X023922Y008895D01*
X023983Y008748D01*
X024096Y008636D01*
X023980Y008757D02*
X023086Y008757D01*
X023092Y008876D02*
X023931Y008876D01*
X023922Y008994D02*
X023092Y008994D01*
X023092Y009113D02*
X023946Y009113D01*
X024013Y009231D02*
X023048Y009231D01*
X022929Y009350D02*
X024181Y009350D01*
X024983Y009350D02*
X025681Y009350D01*
X025513Y009231D02*
X025152Y009231D01*
X025218Y009113D02*
X025446Y009113D01*
X025422Y008994D02*
X025242Y008994D01*
X025234Y008876D02*
X025431Y008876D01*
X025480Y008757D02*
X025185Y008757D01*
X025071Y008639D02*
X025593Y008639D01*
X025565Y008283D02*
X025100Y008283D01*
X025197Y008165D02*
X025468Y008165D01*
X025422Y008046D02*
X025242Y008046D01*
X025242Y007928D02*
X025422Y007928D01*
X025458Y007809D02*
X025206Y007809D01*
X025123Y007691D02*
X025541Y007691D01*
X026483Y009350D02*
X026622Y009350D01*
X026622Y009468D02*
X022862Y009468D01*
X024562Y010061D02*
X024602Y010061D01*
X024602Y009955D02*
X025262Y009955D01*
X025262Y009942D01*
X025235Y009824D02*
X025452Y009824D01*
X025527Y009705D02*
X025165Y009705D01*
X025005Y009587D02*
X025715Y009587D01*
X026450Y009587D02*
X026622Y009587D01*
X026585Y010298D02*
X026622Y010298D01*
X024602Y010298D02*
X024562Y010298D01*
X024562Y010179D02*
X024602Y010179D01*
X024079Y010653D02*
X022305Y010653D01*
X022200Y010772D02*
X023974Y010772D01*
X023925Y010890D02*
X022095Y010890D01*
X021990Y011009D02*
X023922Y011009D01*
X023952Y011127D02*
X021885Y011127D01*
X021780Y011246D02*
X024027Y011246D01*
X024216Y011364D02*
X021676Y011364D01*
X019724Y011483D02*
X019386Y011483D01*
X019267Y011601D02*
X019605Y011601D01*
X019487Y011720D02*
X001792Y011720D01*
X001792Y011838D02*
X019368Y011838D01*
X019250Y011957D02*
X001792Y011957D01*
X001792Y012075D02*
X019131Y012075D01*
X019013Y012194D02*
X001792Y012194D01*
X001792Y012312D02*
X018894Y012312D01*
X016360Y010890D02*
X016180Y010965D01*
X015985Y010965D01*
X015805Y010890D01*
X013360Y010890D02*
X013180Y010965D01*
X012985Y010965D01*
X012805Y010890D01*
X011360Y010890D02*
X011180Y010965D01*
X010985Y010965D01*
X010805Y010890D01*
X009360Y010890D02*
X009180Y010965D01*
X008985Y010965D01*
X008805Y010890D01*
X005804Y010890D02*
X005360Y010890D01*
X005180Y010965D01*
X004985Y010965D01*
X004805Y010890D01*
X004667Y010753D01*
X004592Y010572D01*
X004592Y010378D01*
X004667Y010197D01*
X004805Y010060D01*
X004985Y009985D01*
X005180Y009985D01*
X005360Y010060D01*
X005498Y010197D01*
X005572Y010378D01*
X005572Y010572D01*
X005498Y010753D01*
X005360Y010890D01*
X005479Y010772D02*
X005686Y010772D01*
X005626Y010653D02*
X005539Y010653D01*
X005572Y010535D02*
X005592Y010535D01*
X005592Y010416D02*
X005572Y010416D01*
X005539Y010298D02*
X005625Y010298D01*
X005685Y010179D02*
X005479Y010179D01*
X005361Y010061D02*
X005804Y010061D01*
X004804Y010061D02*
X004361Y010061D01*
X004360Y010060D02*
X004498Y010197D01*
X004572Y010378D01*
X004572Y010572D01*
X004498Y010753D01*
X004360Y010890D01*
X004804Y010890D01*
X004686Y010772D02*
X004479Y010772D01*
X004539Y010653D02*
X004626Y010653D01*
X004592Y010535D02*
X004572Y010535D01*
X004572Y010416D02*
X004592Y010416D01*
X004625Y010298D02*
X004539Y010298D01*
X004479Y010179D02*
X004685Y010179D01*
X004360Y010060D02*
X004180Y009985D01*
X003985Y009985D01*
X003805Y010060D01*
X003667Y010197D01*
X003592Y010378D01*
X003592Y010572D01*
X003667Y010753D01*
X003805Y010890D01*
X003985Y010965D01*
X004180Y010965D01*
X004360Y010890D01*
X003804Y010890D02*
X003360Y010890D01*
X003180Y010965D01*
X002985Y010965D01*
X002805Y010890D01*
X002667Y010753D01*
X002592Y010572D01*
X002592Y010378D01*
X002667Y010197D01*
X002805Y010060D01*
X002985Y009985D01*
X003180Y009985D01*
X003360Y010060D01*
X003498Y010197D01*
X003572Y010378D01*
X003572Y010572D01*
X003498Y010753D01*
X003360Y010890D01*
X003479Y010772D02*
X003686Y010772D01*
X003626Y010653D02*
X003539Y010653D01*
X003572Y010535D02*
X003592Y010535D01*
X003592Y010416D02*
X003572Y010416D01*
X003539Y010298D02*
X003625Y010298D01*
X003685Y010179D02*
X003479Y010179D01*
X003361Y010061D02*
X003804Y010061D01*
X002804Y010061D02*
X001792Y010061D01*
X001792Y010179D02*
X002685Y010179D01*
X002625Y010298D02*
X001792Y010298D01*
X001792Y010416D02*
X002592Y010416D01*
X002592Y010535D02*
X001792Y010535D01*
X001792Y010653D02*
X002626Y010653D01*
X002686Y010772D02*
X001792Y010772D01*
X001792Y010890D02*
X002804Y010890D01*
X001792Y009468D02*
X010828Y009468D01*
X014044Y009350D02*
X001792Y009350D01*
X001792Y009231D02*
X014140Y009231D01*
X014236Y009113D02*
X001792Y009113D01*
X001792Y008994D02*
X003128Y008994D01*
X003130Y008994D02*
X003007Y008980D01*
X002886Y008953D01*
X002768Y008912D01*
X002657Y008858D01*
X002552Y008792D01*
X002455Y008715D01*
X002367Y008627D01*
X002289Y008530D01*
X002223Y008425D01*
X002170Y008313D01*
X002129Y008196D01*
X002101Y008075D01*
X002087Y007951D01*
X002087Y007949D01*
X003132Y007949D01*
X003132Y007829D01*
X003252Y007829D01*
X003252Y006784D01*
X003254Y006784D01*
X003377Y006798D01*
X003498Y006826D01*
X003615Y006867D01*
X003639Y006878D01*
X003466Y006705D01*
X003323Y006458D01*
X003249Y006182D01*
X003249Y005896D01*
X003323Y005620D01*
X003466Y005373D01*
X003668Y005171D01*
X003915Y005028D01*
X004150Y004965D01*
X001792Y004965D01*
X001792Y004847D02*
X002761Y004847D01*
X002805Y004890D02*
X002667Y004753D01*
X002592Y004572D01*
X002592Y004378D01*
X002667Y004197D01*
X002805Y004060D01*
X002985Y003985D01*
X003180Y003985D01*
X003360Y004060D01*
X003498Y004197D01*
X003572Y004378D01*
X003572Y004572D01*
X003498Y004753D01*
X003360Y004890D01*
X003180Y004965D01*
X002985Y004965D01*
X002805Y004890D01*
X002657Y004728D02*
X001792Y004728D01*
X001792Y004610D02*
X002608Y004610D01*
X002592Y004491D02*
X001792Y004491D01*
X001792Y004373D02*
X002594Y004373D01*
X002643Y004254D02*
X001792Y004254D01*
X001792Y004136D02*
X002729Y004136D01*
X002908Y004017D02*
X001792Y004017D01*
X001792Y003899D02*
X018462Y003899D01*
X018362Y004017D02*
X017257Y004017D01*
X017180Y003985D02*
X017360Y004060D01*
X017498Y004197D01*
X017572Y004378D01*
X017572Y004572D01*
X017498Y004753D01*
X017360Y004890D01*
X017180Y004965D01*
X016985Y004965D01*
X016805Y004890D01*
X016667Y004753D01*
X016592Y004572D01*
X016592Y004378D01*
X016667Y004197D01*
X016805Y004060D01*
X016985Y003985D01*
X017180Y003985D01*
X016908Y004017D02*
X016307Y004017D01*
X016278Y004002D02*
X016350Y004039D01*
X016415Y004086D01*
X016471Y004143D01*
X016518Y004208D01*
X016555Y004279D01*
X016580Y004356D01*
X016592Y004435D01*
X016592Y004456D01*
X016101Y004456D01*
X016101Y003965D01*
X016122Y003965D01*
X016202Y003978D01*
X016278Y004002D01*
X016101Y004017D02*
X016064Y004017D01*
X016064Y003965D02*
X016064Y004456D01*
X016101Y004456D01*
X016101Y004494D01*
X016064Y004494D01*
X016064Y004985D01*
X016042Y004985D01*
X015963Y004972D01*
X015887Y004948D01*
X015815Y004911D01*
X015750Y004864D01*
X015693Y004807D01*
X015646Y004742D01*
X015610Y004671D01*
X015585Y004594D01*
X015572Y004515D01*
X015572Y004494D01*
X016064Y004494D01*
X016064Y004456D01*
X015572Y004456D01*
X015572Y004435D01*
X015585Y004356D01*
X015610Y004279D01*
X015646Y004208D01*
X015693Y004143D01*
X015750Y004086D01*
X015815Y004039D01*
X015887Y004002D01*
X015963Y003978D01*
X016042Y003965D01*
X016064Y003965D01*
X016064Y004136D02*
X016101Y004136D01*
X016101Y004254D02*
X016064Y004254D01*
X016064Y004373D02*
X016101Y004373D01*
X016101Y004491D02*
X016592Y004491D01*
X016592Y004494D02*
X016592Y004515D01*
X016580Y004594D01*
X016555Y004671D01*
X016518Y004742D01*
X016471Y004807D01*
X016415Y004864D01*
X016350Y004911D01*
X016278Y004948D01*
X016202Y004972D01*
X016122Y004985D01*
X016101Y004985D01*
X016101Y004494D01*
X016592Y004494D01*
X016575Y004610D02*
X016608Y004610D01*
X016657Y004728D02*
X016526Y004728D01*
X016432Y004847D02*
X016761Y004847D01*
X017404Y004847D02*
X017694Y004847D01*
X017598Y004965D02*
X016225Y004965D01*
X016101Y004965D02*
X016064Y004965D01*
X016064Y004847D02*
X016101Y004847D01*
X016101Y004728D02*
X016064Y004728D01*
X016064Y004610D02*
X016101Y004610D01*
X016064Y004491D02*
X015572Y004491D01*
X015572Y004572D02*
X015572Y004378D01*
X015498Y004197D01*
X015360Y004060D01*
X015180Y003985D01*
X014985Y003985D01*
X014805Y004060D01*
X014667Y004197D01*
X014592Y004378D01*
X014592Y004572D01*
X014667Y004753D01*
X014805Y004890D01*
X014985Y004965D01*
X015180Y004965D01*
X015360Y004890D01*
X015498Y004753D01*
X015572Y004572D01*
X015557Y004610D02*
X015590Y004610D01*
X015639Y004728D02*
X015508Y004728D01*
X015404Y004847D02*
X015733Y004847D01*
X015940Y004965D02*
X004517Y004965D01*
X004476Y004954D02*
X004752Y005028D01*
X005000Y005171D01*
X005202Y005373D01*
X005345Y005620D01*
X005419Y005896D01*
X005419Y006182D01*
X005345Y006458D01*
X005202Y006705D01*
X005000Y006907D01*
X004752Y007050D01*
X004476Y007124D01*
X004191Y007124D01*
X003915Y007050D01*
X003902Y007043D01*
X003929Y007064D01*
X004017Y007152D01*
X004094Y007249D01*
X004160Y007354D01*
X004214Y007466D01*
X004255Y007583D01*
X004283Y007704D01*
X004297Y007827D01*
X004297Y007829D01*
X003252Y007829D01*
X003252Y007949D01*
X004297Y007949D01*
X004297Y007951D01*
X004283Y008075D01*
X004255Y008196D01*
X004214Y008313D01*
X004160Y008425D01*
X004094Y008530D01*
X004017Y008627D01*
X003929Y008715D01*
X003832Y008792D01*
X003727Y008858D01*
X003615Y008912D01*
X003498Y008953D01*
X003377Y008980D01*
X003254Y008994D01*
X003252Y008994D01*
X003132Y008994D01*
X003130Y008994D01*
X003132Y008994D02*
X003132Y007949D01*
X003252Y007949D01*
X003252Y008994D01*
X003256Y008994D02*
X014332Y008994D01*
X014428Y008876D02*
X005976Y008876D01*
X005934Y008900D02*
X005658Y008974D01*
X005372Y008974D01*
X005096Y008900D01*
X004849Y008757D01*
X004647Y008556D01*
X004504Y008308D01*
X004430Y008032D01*
X004430Y007747D01*
X004504Y007471D01*
X004647Y007223D01*
X004849Y007021D01*
X005096Y006878D01*
X005372Y006804D01*
X005658Y006804D01*
X005934Y006878D01*
X006181Y007021D01*
X006383Y007223D01*
X006526Y007471D01*
X006600Y007747D01*
X006600Y008032D01*
X006526Y008308D01*
X006383Y008556D01*
X006181Y008757D01*
X014524Y008757D01*
X014620Y008639D02*
X006300Y008639D01*
X006403Y008520D02*
X014716Y008520D01*
X014812Y008402D02*
X006472Y008402D01*
X006532Y008283D02*
X014908Y008283D01*
X015005Y008165D02*
X006564Y008165D01*
X006596Y008046D02*
X015101Y008046D01*
X015197Y007928D02*
X006600Y007928D01*
X006600Y007809D02*
X015293Y007809D01*
X015389Y007691D02*
X006585Y007691D01*
X006553Y007572D02*
X015485Y007572D01*
X015581Y007454D02*
X006516Y007454D01*
X006447Y007335D02*
X015677Y007335D01*
X015773Y007217D02*
X006376Y007217D01*
X006258Y007098D02*
X015869Y007098D01*
X015965Y006980D02*
X006109Y006980D01*
X005869Y006861D02*
X016061Y006861D01*
X016157Y006743D02*
X005164Y006743D01*
X005161Y006861D02*
X005046Y006861D01*
X004921Y006980D02*
X004874Y006980D01*
X004772Y007098D02*
X004573Y007098D01*
X004653Y007217D02*
X004069Y007217D01*
X004094Y007098D02*
X003963Y007098D01*
X003621Y006861D02*
X003598Y006861D01*
X003503Y006743D02*
X001792Y006743D01*
X001792Y006861D02*
X002786Y006861D01*
X002768Y006867D02*
X002886Y006826D01*
X003007Y006798D01*
X003130Y006784D01*
X003132Y006784D01*
X003132Y007829D01*
X002087Y007829D01*
X002087Y007827D01*
X002101Y007704D01*
X002129Y007583D01*
X002170Y007466D01*
X002223Y007354D01*
X002289Y007249D01*
X002367Y007152D01*
X002455Y007064D01*
X002552Y006987D01*
X002657Y006921D01*
X002768Y006867D01*
X002563Y006980D02*
X001792Y006980D01*
X001792Y007098D02*
X002421Y007098D01*
X002315Y007217D02*
X001792Y007217D01*
X001792Y007335D02*
X002235Y007335D01*
X002175Y007454D02*
X001792Y007454D01*
X001792Y007572D02*
X002132Y007572D01*
X002104Y007691D02*
X001792Y007691D01*
X001792Y007809D02*
X002089Y007809D01*
X001792Y007928D02*
X003132Y007928D01*
X003132Y008046D02*
X003252Y008046D01*
X003252Y007928D02*
X004430Y007928D01*
X004434Y008046D02*
X004286Y008046D01*
X004262Y008165D02*
X004465Y008165D01*
X004497Y008283D02*
X004225Y008283D01*
X004172Y008402D02*
X004558Y008402D01*
X004626Y008520D02*
X004101Y008520D01*
X004005Y008639D02*
X004730Y008639D01*
X004848Y008757D02*
X003876Y008757D01*
X003691Y008876D02*
X005053Y008876D01*
X005934Y008900D02*
X006181Y008757D01*
X004430Y007809D02*
X004295Y007809D01*
X004280Y007691D02*
X004445Y007691D01*
X004477Y007572D02*
X004251Y007572D01*
X004208Y007454D02*
X004514Y007454D01*
X004582Y007335D02*
X004148Y007335D01*
X003252Y007335D02*
X003132Y007335D01*
X003132Y007217D02*
X003252Y007217D01*
X003252Y007098D02*
X003132Y007098D01*
X003132Y006980D02*
X003252Y006980D01*
X003252Y006861D02*
X003132Y006861D01*
X003419Y006624D02*
X001792Y006624D01*
X001792Y006506D02*
X003350Y006506D01*
X003304Y006387D02*
X001792Y006387D01*
X001792Y006269D02*
X003272Y006269D01*
X003249Y006150D02*
X001792Y006150D01*
X001792Y006032D02*
X003249Y006032D01*
X003249Y005913D02*
X001792Y005913D01*
X001792Y005795D02*
X003276Y005795D01*
X003308Y005676D02*
X001792Y005676D01*
X001792Y005558D02*
X003359Y005558D01*
X003427Y005439D02*
X001792Y005439D01*
X001792Y005321D02*
X003518Y005321D01*
X003636Y005202D02*
X001792Y005202D01*
X001792Y005084D02*
X003819Y005084D01*
X003805Y004890D02*
X003667Y004753D01*
X003592Y004572D01*
X003592Y004378D01*
X003667Y004197D01*
X003805Y004060D01*
X003985Y003985D01*
X004180Y003985D01*
X004360Y004060D01*
X004498Y004197D01*
X004572Y004378D01*
X004572Y004572D01*
X004498Y004753D01*
X004360Y004890D01*
X004206Y004954D01*
X004476Y004954D01*
X004404Y004847D02*
X004761Y004847D01*
X004805Y004890D02*
X004667Y004753D01*
X004592Y004572D01*
X004592Y004378D01*
X004667Y004197D01*
X004805Y004060D01*
X004985Y003985D01*
X005180Y003985D01*
X005360Y004060D01*
X005498Y004197D01*
X005572Y004378D01*
X005572Y004572D01*
X005498Y004753D01*
X005360Y004890D01*
X005180Y004965D01*
X004985Y004965D01*
X004805Y004890D01*
X004849Y005084D02*
X017502Y005084D01*
X017406Y005202D02*
X005031Y005202D01*
X005149Y005321D02*
X017310Y005321D01*
X017214Y005439D02*
X005240Y005439D01*
X005308Y005558D02*
X017118Y005558D01*
X017022Y005676D02*
X005360Y005676D01*
X005391Y005795D02*
X016926Y005795D01*
X016830Y005913D02*
X005419Y005913D01*
X005419Y006032D02*
X016733Y006032D01*
X016637Y006150D02*
X005419Y006150D01*
X005395Y006269D02*
X016541Y006269D01*
X016445Y006387D02*
X005364Y006387D01*
X005317Y006506D02*
X016349Y006506D01*
X016253Y006624D02*
X005249Y006624D01*
X003252Y007454D02*
X003132Y007454D01*
X003132Y007572D02*
X003252Y007572D01*
X003252Y007691D02*
X003132Y007691D01*
X003132Y007809D02*
X003252Y007809D01*
X003252Y008165D02*
X003132Y008165D01*
X003132Y008283D02*
X003252Y008283D01*
X003252Y008402D02*
X003132Y008402D01*
X003132Y008520D02*
X003252Y008520D01*
X003252Y008639D02*
X003132Y008639D01*
X003132Y008757D02*
X003252Y008757D01*
X003252Y008876D02*
X003132Y008876D01*
X002693Y008876D02*
X001792Y008876D01*
X001792Y008757D02*
X002508Y008757D01*
X002379Y008639D02*
X001792Y008639D01*
X001792Y008520D02*
X002283Y008520D01*
X002212Y008402D02*
X001792Y008402D01*
X001792Y008283D02*
X002159Y008283D01*
X002121Y008165D02*
X001792Y008165D01*
X001792Y008046D02*
X002098Y008046D01*
X003404Y004847D02*
X003761Y004847D01*
X003805Y004890D02*
X003985Y004965D01*
X004150Y004965D01*
X004508Y004728D02*
X004657Y004728D01*
X004608Y004610D02*
X004557Y004610D01*
X004572Y004491D02*
X004592Y004491D01*
X004594Y004373D02*
X004570Y004373D01*
X004521Y004254D02*
X004643Y004254D01*
X004729Y004136D02*
X004436Y004136D01*
X004257Y004017D02*
X004908Y004017D01*
X005257Y004017D02*
X005908Y004017D01*
X005985Y003985D02*
X005805Y004060D01*
X005667Y004197D01*
X005592Y004378D01*
X005592Y004572D01*
X005667Y004753D01*
X005805Y004890D01*
X005985Y004965D01*
X006180Y004965D01*
X006360Y004890D01*
X006498Y004753D01*
X006572Y004572D01*
X006572Y004378D01*
X006498Y004197D01*
X006360Y004060D01*
X006180Y003985D01*
X005985Y003985D01*
X006257Y004017D02*
X006908Y004017D01*
X006985Y003985D02*
X007180Y003985D01*
X007360Y004060D01*
X007498Y004197D01*
X007572Y004378D01*
X007572Y004572D01*
X007498Y004753D01*
X007360Y004890D01*
X007180Y004965D01*
X006985Y004965D01*
X006805Y004890D01*
X006667Y004753D01*
X006592Y004572D01*
X006592Y004378D01*
X006667Y004197D01*
X006805Y004060D01*
X006985Y003985D01*
X007257Y004017D02*
X007908Y004017D01*
X007985Y003985D02*
X007805Y004060D01*
X007667Y004197D01*
X007592Y004378D01*
X007592Y004572D01*
X007667Y004753D01*
X007805Y004890D01*
X007985Y004965D01*
X008180Y004965D01*
X008360Y004890D01*
X008498Y004753D01*
X008572Y004572D01*
X008572Y004378D01*
X008498Y004197D01*
X008360Y004060D01*
X008180Y003985D01*
X007985Y003985D01*
X008257Y004017D02*
X008908Y004017D01*
X008985Y003985D02*
X009180Y003985D01*
X009360Y004060D01*
X009498Y004197D01*
X009572Y004378D01*
X009572Y004572D01*
X009498Y004753D01*
X009360Y004890D01*
X009180Y004965D01*
X008985Y004965D01*
X008805Y004890D01*
X008667Y004753D01*
X008592Y004572D01*
X008592Y004378D01*
X008667Y004197D01*
X008805Y004060D01*
X008985Y003985D01*
X009257Y004017D02*
X009908Y004017D01*
X009985Y003985D02*
X009805Y004060D01*
X009667Y004197D01*
X009592Y004378D01*
X009592Y004572D01*
X009667Y004753D01*
X009805Y004890D01*
X009985Y004965D01*
X010180Y004965D01*
X010360Y004890D01*
X010498Y004753D01*
X010572Y004572D01*
X010572Y004378D01*
X010498Y004197D01*
X010360Y004060D01*
X010180Y003985D01*
X009985Y003985D01*
X010257Y004017D02*
X010908Y004017D01*
X010985Y003985D02*
X011180Y003985D01*
X011360Y004060D01*
X011498Y004197D01*
X011572Y004378D01*
X011572Y004572D01*
X011498Y004753D01*
X011360Y004890D01*
X011180Y004965D01*
X010985Y004965D01*
X010805Y004890D01*
X010667Y004753D01*
X010592Y004572D01*
X010592Y004378D01*
X010667Y004197D01*
X010805Y004060D01*
X010985Y003985D01*
X011257Y004017D02*
X011908Y004017D01*
X011985Y003985D02*
X011805Y004060D01*
X011667Y004197D01*
X011592Y004378D01*
X011592Y004572D01*
X011667Y004753D01*
X011805Y004890D01*
X011985Y004965D01*
X012180Y004965D01*
X012360Y004890D01*
X012498Y004753D01*
X012572Y004572D01*
X012572Y004378D01*
X012498Y004197D01*
X012360Y004060D01*
X012180Y003985D01*
X011985Y003985D01*
X012257Y004017D02*
X012908Y004017D01*
X012985Y003985D02*
X013180Y003985D01*
X013360Y004060D01*
X013498Y004197D01*
X013572Y004378D01*
X013572Y004572D01*
X013498Y004753D01*
X013360Y004890D01*
X013180Y004965D01*
X012985Y004965D01*
X012805Y004890D01*
X012667Y004753D01*
X012592Y004572D01*
X012592Y004378D01*
X012667Y004197D01*
X012805Y004060D01*
X012985Y003985D01*
X013257Y004017D02*
X013908Y004017D01*
X013985Y003985D02*
X013805Y004060D01*
X013667Y004197D01*
X013592Y004378D01*
X013592Y004572D01*
X013667Y004753D01*
X013805Y004890D01*
X013985Y004965D01*
X014180Y004965D01*
X014360Y004890D01*
X014498Y004753D01*
X014572Y004572D01*
X014572Y004378D01*
X014498Y004197D01*
X014360Y004060D01*
X014180Y003985D01*
X013985Y003985D01*
X014257Y004017D02*
X014908Y004017D01*
X014729Y004136D02*
X014436Y004136D01*
X014521Y004254D02*
X014643Y004254D01*
X014594Y004373D02*
X014570Y004373D01*
X014572Y004491D02*
X014592Y004491D01*
X014608Y004610D02*
X014557Y004610D01*
X014508Y004728D02*
X014657Y004728D01*
X014761Y004847D02*
X014404Y004847D01*
X013761Y004847D02*
X013404Y004847D01*
X013508Y004728D02*
X013657Y004728D01*
X013608Y004610D02*
X013557Y004610D01*
X013572Y004491D02*
X013592Y004491D01*
X013594Y004373D02*
X013570Y004373D01*
X013521Y004254D02*
X013643Y004254D01*
X013729Y004136D02*
X013436Y004136D01*
X012729Y004136D02*
X012436Y004136D01*
X012521Y004254D02*
X012643Y004254D01*
X012594Y004373D02*
X012570Y004373D01*
X012572Y004491D02*
X012592Y004491D01*
X012608Y004610D02*
X012557Y004610D01*
X012508Y004728D02*
X012657Y004728D01*
X012761Y004847D02*
X012404Y004847D01*
X011761Y004847D02*
X011404Y004847D01*
X011508Y004728D02*
X011657Y004728D01*
X011608Y004610D02*
X011557Y004610D01*
X011572Y004491D02*
X011592Y004491D01*
X011594Y004373D02*
X011570Y004373D01*
X011521Y004254D02*
X011643Y004254D01*
X011729Y004136D02*
X011436Y004136D01*
X010729Y004136D02*
X010436Y004136D01*
X010521Y004254D02*
X010643Y004254D01*
X010594Y004373D02*
X010570Y004373D01*
X010572Y004491D02*
X010592Y004491D01*
X010608Y004610D02*
X010557Y004610D01*
X010508Y004728D02*
X010657Y004728D01*
X010761Y004847D02*
X010404Y004847D01*
X009761Y004847D02*
X009404Y004847D01*
X009508Y004728D02*
X009657Y004728D01*
X009608Y004610D02*
X009557Y004610D01*
X009572Y004491D02*
X009592Y004491D01*
X009594Y004373D02*
X009570Y004373D01*
X009521Y004254D02*
X009643Y004254D01*
X009729Y004136D02*
X009436Y004136D01*
X008729Y004136D02*
X008436Y004136D01*
X008521Y004254D02*
X008643Y004254D01*
X008594Y004373D02*
X008570Y004373D01*
X008572Y004491D02*
X008592Y004491D01*
X008608Y004610D02*
X008557Y004610D01*
X008508Y004728D02*
X008657Y004728D01*
X008761Y004847D02*
X008404Y004847D01*
X007761Y004847D02*
X007404Y004847D01*
X007508Y004728D02*
X007657Y004728D01*
X007608Y004610D02*
X007557Y004610D01*
X007572Y004491D02*
X007592Y004491D01*
X007594Y004373D02*
X007570Y004373D01*
X007521Y004254D02*
X007643Y004254D01*
X007729Y004136D02*
X007436Y004136D01*
X006729Y004136D02*
X006436Y004136D01*
X006521Y004254D02*
X006643Y004254D01*
X006594Y004373D02*
X006570Y004373D01*
X006572Y004491D02*
X006592Y004491D01*
X006608Y004610D02*
X006557Y004610D01*
X006508Y004728D02*
X006657Y004728D01*
X006761Y004847D02*
X006404Y004847D01*
X005761Y004847D02*
X005404Y004847D01*
X005508Y004728D02*
X005657Y004728D01*
X005608Y004610D02*
X005557Y004610D01*
X005572Y004491D02*
X005592Y004491D01*
X005594Y004373D02*
X005570Y004373D01*
X005521Y004254D02*
X005643Y004254D01*
X005729Y004136D02*
X005436Y004136D01*
X003908Y004017D02*
X003257Y004017D01*
X003436Y004136D02*
X003729Y004136D01*
X003643Y004254D02*
X003521Y004254D01*
X003570Y004373D02*
X003594Y004373D01*
X003592Y004491D02*
X003572Y004491D01*
X003557Y004610D02*
X003608Y004610D01*
X003657Y004728D02*
X003508Y004728D01*
X001792Y003780D02*
X018970Y003780D01*
X019070Y003662D02*
X001792Y003662D01*
X003310Y000699D02*
X037354Y000699D01*
X038992Y003306D02*
X025184Y003306D01*
X025303Y003425D02*
X038992Y003425D01*
X038992Y003543D02*
X025421Y003543D01*
X025540Y003662D02*
X025570Y003662D01*
X025659Y004610D02*
X025408Y004610D01*
X018270Y004136D02*
X017436Y004136D01*
X017521Y004254D02*
X018174Y004254D01*
X018078Y004373D02*
X017570Y004373D01*
X017572Y004491D02*
X017982Y004491D01*
X017886Y004610D02*
X017557Y004610D01*
X017508Y004728D02*
X017790Y004728D01*
X016643Y004254D02*
X016542Y004254D01*
X016582Y004373D02*
X016594Y004373D01*
X016464Y004136D02*
X016729Y004136D01*
X015858Y004017D02*
X015257Y004017D01*
X015436Y004136D02*
X015701Y004136D01*
X015622Y004254D02*
X015521Y004254D01*
X015570Y004373D02*
X015582Y004373D01*
X033040Y006624D02*
X033102Y006624D01*
X033102Y007335D02*
X033018Y007335D01*
X035822Y007335D02*
X037146Y007335D01*
X036998Y007217D02*
X035822Y007217D01*
X035822Y007098D02*
X036940Y007098D01*
X035822Y007046D02*
X036922Y005946D01*
X036922Y006055D01*
X036983Y006202D01*
X037096Y006314D01*
X037243Y006375D01*
X037922Y006375D01*
X038069Y006314D01*
X038181Y006202D01*
X038242Y006055D01*
X038242Y005895D01*
X038181Y005748D01*
X038069Y005636D01*
X037922Y005575D01*
X037293Y005575D01*
X037493Y005375D01*
X037922Y005375D01*
X038069Y005314D01*
X038181Y005202D01*
X038053Y005321D02*
X038992Y005321D01*
X038992Y005439D02*
X037429Y005439D01*
X037311Y005558D02*
X038992Y005558D01*
X038992Y005676D02*
X038109Y005676D01*
X038200Y005795D02*
X038992Y005795D01*
X038992Y005913D02*
X038242Y005913D01*
X038242Y006032D02*
X038992Y006032D01*
X038992Y006150D02*
X038203Y006150D01*
X038114Y006269D02*
X038992Y006269D01*
X038992Y006387D02*
X036481Y006387D01*
X036600Y006269D02*
X037050Y006269D01*
X036962Y006150D02*
X036718Y006150D01*
X036837Y006032D02*
X036922Y006032D01*
X038157Y004254D02*
X038992Y004254D01*
X038992Y004136D02*
X038232Y004136D01*
X038261Y004017D02*
X038992Y004017D01*
X038992Y003899D02*
X038255Y003899D01*
X038214Y003780D02*
X038992Y003780D01*
X038992Y003662D02*
X038123Y003662D01*
X010306Y012431D02*
X001792Y012431D01*
X001792Y012549D02*
X010187Y012549D01*
X010069Y012668D02*
X002674Y012668D01*
X002926Y012786D02*
X003559Y012786D01*
X003432Y012905D02*
X003082Y012905D01*
X003200Y013023D02*
X003364Y013023D01*
X003322Y013142D02*
X003277Y013142D01*
X004105Y012786D02*
X004559Y012786D01*
X004432Y012905D02*
X004233Y012905D01*
X004301Y013023D02*
X004364Y013023D01*
X005105Y012786D02*
X005559Y012786D01*
X005432Y012905D02*
X005233Y012905D01*
X005301Y013023D02*
X005364Y013023D01*
X006105Y012786D02*
X006559Y012786D01*
X006432Y012905D02*
X006233Y012905D01*
X006301Y013023D02*
X006364Y013023D01*
X007105Y012786D02*
X007559Y012786D01*
X007432Y012905D02*
X007233Y012905D01*
X007301Y013023D02*
X007364Y013023D01*
X008105Y012786D02*
X008559Y012786D01*
X008432Y012905D02*
X008233Y012905D01*
X008301Y013023D02*
X008364Y013023D01*
X009105Y012786D02*
X009559Y012786D01*
X009432Y012905D02*
X009233Y012905D01*
X009301Y013023D02*
X009364Y013023D01*
X001990Y012668D02*
X001792Y012668D01*
D18*
X027082Y006975D03*
D19*
X029122Y006955D02*
X029122Y007915D01*
X029082Y007975D01*
X029002Y007915D01*
X029082Y007975D02*
X029122Y008035D01*
X029122Y008875D01*
X029082Y008975D01*
X029122Y008995D01*
X029122Y009955D01*
X029082Y009975D01*
X029002Y010075D01*
X027082Y012245D01*
X027082Y013225D01*
X026842Y011155D02*
X024202Y014045D01*
X012602Y014045D01*
X011882Y013325D01*
X011832Y013225D01*
X011882Y013205D01*
X012832Y013225D02*
X012842Y013325D01*
X013322Y013805D01*
X018322Y013805D01*
X020602Y011275D01*
X020602Y008035D01*
X024082Y004555D01*
X025042Y004555D01*
X025402Y004915D01*
X026002Y004915D01*
X026082Y004975D01*
X024682Y005035D02*
X024582Y004975D01*
X024562Y005035D01*
X022642Y006955D01*
X022642Y007915D01*
X022582Y007975D01*
X022642Y008035D01*
X022642Y008875D01*
X022582Y008975D01*
X022642Y008995D01*
X022642Y009955D01*
X022582Y009975D01*
X022522Y010075D01*
X020602Y012245D01*
X020602Y013205D01*
X020582Y013225D01*
X018912Y012605D02*
X010442Y012605D01*
X009842Y013205D01*
X009832Y013225D01*
X008882Y013205D02*
X008832Y013225D01*
X008882Y013325D01*
X009842Y014285D01*
X030442Y014285D01*
X033322Y011155D01*
X033322Y004795D01*
X032602Y004075D01*
X032582Y003975D01*
X031882Y004915D02*
X031522Y004555D01*
X030562Y004555D01*
X026842Y008275D01*
X026842Y011155D01*
X020362Y011155D02*
X018912Y012605D01*
X019162Y011395D02*
X019582Y010975D01*
X020362Y011155D02*
X020362Y007315D01*
X024202Y003475D01*
X025042Y003475D01*
X025522Y003955D01*
X026002Y003955D01*
X026082Y003975D01*
X029122Y006955D02*
X031042Y005035D01*
X031082Y004975D01*
X031162Y005035D01*
X031882Y004915D02*
X032482Y004915D01*
X032582Y004975D01*
X035602Y006955D02*
X035602Y007915D01*
X035582Y007975D01*
X035482Y007915D01*
X035582Y007975D02*
X035602Y008035D01*
X035602Y008875D01*
X035582Y008975D01*
X035602Y008995D01*
X035602Y009955D01*
X035582Y009975D01*
X033682Y011875D01*
X033682Y013205D01*
X033582Y013225D01*
X019162Y011395D02*
X007252Y011395D01*
X007037Y010555D01*
X007172Y010555D01*
X007082Y010475D01*
X010082Y010475D02*
X010172Y010435D01*
X011017Y009590D01*
X014132Y009590D01*
X018582Y004100D01*
X018607Y004075D01*
X019522Y004075D01*
X019582Y003975D01*
X019582Y004975D02*
X019522Y005035D01*
X018172Y005035D01*
X014252Y009955D01*
X013652Y009955D01*
X013172Y010435D01*
X013082Y010475D01*
X035602Y006955D02*
X037582Y004975D01*
M02*
