G75*
%MOIN*%
%OFA0B0*%
%FSLAX24Y24*%
%IPPOS*%
%LPD*%
%AMOC8*
5,1,8,0,0,1.08239X$1,22.5*
%
%ADD10C,0.0000*%
%ADD11C,0.0050*%
%ADD12C,0.0060*%
%ADD13C,0.0040*%
%ADD14C,0.0080*%
D10*
X001332Y000225D02*
X001332Y014721D01*
X039452Y014721D01*
X039452Y000225D01*
X001332Y000225D01*
X001682Y001225D02*
X001684Y001275D01*
X001690Y001325D01*
X001700Y001375D01*
X001713Y001423D01*
X001730Y001471D01*
X001751Y001517D01*
X001775Y001561D01*
X001803Y001603D01*
X001834Y001643D01*
X001868Y001680D01*
X001905Y001715D01*
X001944Y001746D01*
X001985Y001775D01*
X002029Y001800D01*
X002075Y001822D01*
X002122Y001840D01*
X002170Y001854D01*
X002219Y001865D01*
X002269Y001872D01*
X002319Y001875D01*
X002370Y001874D01*
X002420Y001869D01*
X002470Y001860D01*
X002518Y001848D01*
X002566Y001831D01*
X002612Y001811D01*
X002657Y001788D01*
X002700Y001761D01*
X002740Y001731D01*
X002778Y001698D01*
X002813Y001662D01*
X002846Y001623D01*
X002875Y001582D01*
X002901Y001539D01*
X002924Y001494D01*
X002943Y001447D01*
X002958Y001399D01*
X002970Y001350D01*
X002978Y001300D01*
X002982Y001250D01*
X002982Y001200D01*
X002978Y001150D01*
X002970Y001100D01*
X002958Y001051D01*
X002943Y001003D01*
X002924Y000956D01*
X002901Y000911D01*
X002875Y000868D01*
X002846Y000827D01*
X002813Y000788D01*
X002778Y000752D01*
X002740Y000719D01*
X002700Y000689D01*
X002657Y000662D01*
X002612Y000639D01*
X002566Y000619D01*
X002518Y000602D01*
X002470Y000590D01*
X002420Y000581D01*
X002370Y000576D01*
X002319Y000575D01*
X002269Y000578D01*
X002219Y000585D01*
X002170Y000596D01*
X002122Y000610D01*
X002075Y000628D01*
X002029Y000650D01*
X001985Y000675D01*
X001944Y000704D01*
X001905Y000735D01*
X001868Y000770D01*
X001834Y000807D01*
X001803Y000847D01*
X001775Y000889D01*
X001751Y000933D01*
X001730Y000979D01*
X001713Y001027D01*
X001700Y001075D01*
X001690Y001125D01*
X001684Y001175D01*
X001682Y001225D01*
X001682Y013725D02*
X001684Y013775D01*
X001690Y013825D01*
X001700Y013875D01*
X001713Y013923D01*
X001730Y013971D01*
X001751Y014017D01*
X001775Y014061D01*
X001803Y014103D01*
X001834Y014143D01*
X001868Y014180D01*
X001905Y014215D01*
X001944Y014246D01*
X001985Y014275D01*
X002029Y014300D01*
X002075Y014322D01*
X002122Y014340D01*
X002170Y014354D01*
X002219Y014365D01*
X002269Y014372D01*
X002319Y014375D01*
X002370Y014374D01*
X002420Y014369D01*
X002470Y014360D01*
X002518Y014348D01*
X002566Y014331D01*
X002612Y014311D01*
X002657Y014288D01*
X002700Y014261D01*
X002740Y014231D01*
X002778Y014198D01*
X002813Y014162D01*
X002846Y014123D01*
X002875Y014082D01*
X002901Y014039D01*
X002924Y013994D01*
X002943Y013947D01*
X002958Y013899D01*
X002970Y013850D01*
X002978Y013800D01*
X002982Y013750D01*
X002982Y013700D01*
X002978Y013650D01*
X002970Y013600D01*
X002958Y013551D01*
X002943Y013503D01*
X002924Y013456D01*
X002901Y013411D01*
X002875Y013368D01*
X002846Y013327D01*
X002813Y013288D01*
X002778Y013252D01*
X002740Y013219D01*
X002700Y013189D01*
X002657Y013162D01*
X002612Y013139D01*
X002566Y013119D01*
X002518Y013102D01*
X002470Y013090D01*
X002420Y013081D01*
X002370Y013076D01*
X002319Y013075D01*
X002269Y013078D01*
X002219Y013085D01*
X002170Y013096D01*
X002122Y013110D01*
X002075Y013128D01*
X002029Y013150D01*
X001985Y013175D01*
X001944Y013204D01*
X001905Y013235D01*
X001868Y013270D01*
X001834Y013307D01*
X001803Y013347D01*
X001775Y013389D01*
X001751Y013433D01*
X001730Y013479D01*
X001713Y013527D01*
X001700Y013575D01*
X001690Y013625D01*
X001684Y013675D01*
X001682Y013725D01*
X037682Y013725D02*
X037684Y013775D01*
X037690Y013825D01*
X037700Y013875D01*
X037713Y013923D01*
X037730Y013971D01*
X037751Y014017D01*
X037775Y014061D01*
X037803Y014103D01*
X037834Y014143D01*
X037868Y014180D01*
X037905Y014215D01*
X037944Y014246D01*
X037985Y014275D01*
X038029Y014300D01*
X038075Y014322D01*
X038122Y014340D01*
X038170Y014354D01*
X038219Y014365D01*
X038269Y014372D01*
X038319Y014375D01*
X038370Y014374D01*
X038420Y014369D01*
X038470Y014360D01*
X038518Y014348D01*
X038566Y014331D01*
X038612Y014311D01*
X038657Y014288D01*
X038700Y014261D01*
X038740Y014231D01*
X038778Y014198D01*
X038813Y014162D01*
X038846Y014123D01*
X038875Y014082D01*
X038901Y014039D01*
X038924Y013994D01*
X038943Y013947D01*
X038958Y013899D01*
X038970Y013850D01*
X038978Y013800D01*
X038982Y013750D01*
X038982Y013700D01*
X038978Y013650D01*
X038970Y013600D01*
X038958Y013551D01*
X038943Y013503D01*
X038924Y013456D01*
X038901Y013411D01*
X038875Y013368D01*
X038846Y013327D01*
X038813Y013288D01*
X038778Y013252D01*
X038740Y013219D01*
X038700Y013189D01*
X038657Y013162D01*
X038612Y013139D01*
X038566Y013119D01*
X038518Y013102D01*
X038470Y013090D01*
X038420Y013081D01*
X038370Y013076D01*
X038319Y013075D01*
X038269Y013078D01*
X038219Y013085D01*
X038170Y013096D01*
X038122Y013110D01*
X038075Y013128D01*
X038029Y013150D01*
X037985Y013175D01*
X037944Y013204D01*
X037905Y013235D01*
X037868Y013270D01*
X037834Y013307D01*
X037803Y013347D01*
X037775Y013389D01*
X037751Y013433D01*
X037730Y013479D01*
X037713Y013527D01*
X037700Y013575D01*
X037690Y013625D01*
X037684Y013675D01*
X037682Y013725D01*
X037682Y001225D02*
X037684Y001275D01*
X037690Y001325D01*
X037700Y001375D01*
X037713Y001423D01*
X037730Y001471D01*
X037751Y001517D01*
X037775Y001561D01*
X037803Y001603D01*
X037834Y001643D01*
X037868Y001680D01*
X037905Y001715D01*
X037944Y001746D01*
X037985Y001775D01*
X038029Y001800D01*
X038075Y001822D01*
X038122Y001840D01*
X038170Y001854D01*
X038219Y001865D01*
X038269Y001872D01*
X038319Y001875D01*
X038370Y001874D01*
X038420Y001869D01*
X038470Y001860D01*
X038518Y001848D01*
X038566Y001831D01*
X038612Y001811D01*
X038657Y001788D01*
X038700Y001761D01*
X038740Y001731D01*
X038778Y001698D01*
X038813Y001662D01*
X038846Y001623D01*
X038875Y001582D01*
X038901Y001539D01*
X038924Y001494D01*
X038943Y001447D01*
X038958Y001399D01*
X038970Y001350D01*
X038978Y001300D01*
X038982Y001250D01*
X038982Y001200D01*
X038978Y001150D01*
X038970Y001100D01*
X038958Y001051D01*
X038943Y001003D01*
X038924Y000956D01*
X038901Y000911D01*
X038875Y000868D01*
X038846Y000827D01*
X038813Y000788D01*
X038778Y000752D01*
X038740Y000719D01*
X038700Y000689D01*
X038657Y000662D01*
X038612Y000639D01*
X038566Y000619D01*
X038518Y000602D01*
X038470Y000590D01*
X038420Y000581D01*
X038370Y000576D01*
X038319Y000575D01*
X038269Y000578D01*
X038219Y000585D01*
X038170Y000596D01*
X038122Y000610D01*
X038075Y000628D01*
X038029Y000650D01*
X037985Y000675D01*
X037944Y000704D01*
X037905Y000735D01*
X037868Y000770D01*
X037834Y000807D01*
X037803Y000847D01*
X037775Y000889D01*
X037751Y000933D01*
X037730Y000979D01*
X037713Y001027D01*
X037700Y001075D01*
X037690Y001125D01*
X037684Y001175D01*
X037682Y001225D01*
D11*
X036807Y002475D02*
X036807Y002775D01*
X036807Y002625D02*
X036357Y002625D01*
X036507Y002475D01*
X035807Y002475D02*
X035807Y002775D01*
X035807Y002625D02*
X035357Y002625D01*
X035507Y002475D01*
X034807Y002475D02*
X034807Y002775D01*
X034807Y002935D02*
X034507Y002935D01*
X034357Y003086D01*
X034507Y003236D01*
X034807Y003236D01*
X034582Y003236D02*
X034582Y002935D01*
X034507Y002775D02*
X034432Y002775D01*
X034357Y002700D01*
X034357Y002550D01*
X034432Y002475D01*
X034507Y002775D02*
X034807Y002475D01*
X033807Y002475D02*
X033807Y002775D01*
X033807Y002935D02*
X033807Y003161D01*
X033732Y003236D01*
X033657Y003236D01*
X033582Y003161D01*
X033582Y002935D01*
X033507Y002775D02*
X033432Y002775D01*
X033357Y002700D01*
X033357Y002550D01*
X033432Y002475D01*
X033507Y002775D02*
X033807Y002475D01*
X033807Y002935D02*
X033357Y002935D01*
X033357Y003161D01*
X033432Y003236D01*
X033507Y003236D01*
X033582Y003161D01*
X032837Y002962D02*
X032387Y002962D01*
X032387Y002812D02*
X032387Y003112D01*
X032462Y002651D02*
X032387Y002576D01*
X032387Y002426D01*
X032462Y002351D01*
X032762Y002351D01*
X032837Y002426D01*
X032837Y002576D01*
X032762Y002651D01*
X032462Y002651D01*
X032387Y002191D02*
X032837Y002191D01*
X032537Y002041D02*
X032387Y002191D01*
X032537Y002041D02*
X032387Y001891D01*
X032837Y001891D01*
X032912Y001731D02*
X032912Y001430D01*
X032837Y001270D02*
X032837Y000970D01*
X032762Y000970D01*
X032462Y001270D01*
X032387Y001270D01*
X032387Y000970D01*
X030307Y002475D02*
X030307Y002775D01*
X030307Y002625D02*
X029857Y002625D01*
X030007Y002475D01*
X029307Y002475D02*
X029307Y002775D01*
X029307Y002625D02*
X028857Y002625D01*
X029007Y002475D01*
X028307Y002475D02*
X028007Y002775D01*
X027932Y002775D01*
X027857Y002700D01*
X027857Y002550D01*
X027932Y002475D01*
X028307Y002475D02*
X028307Y002775D01*
X028307Y002935D02*
X028007Y002935D01*
X027857Y003086D01*
X028007Y003236D01*
X028307Y003236D01*
X028082Y003236D02*
X028082Y002935D01*
X027307Y002935D02*
X027307Y003161D01*
X027232Y003236D01*
X027157Y003236D01*
X027082Y003161D01*
X027082Y002935D01*
X027007Y002775D02*
X026932Y002775D01*
X026857Y002700D01*
X026857Y002550D01*
X026932Y002475D01*
X027007Y002775D02*
X027307Y002475D01*
X027307Y002775D01*
X027307Y002935D02*
X026857Y002935D01*
X026857Y003161D01*
X026932Y003236D01*
X027007Y003236D01*
X027082Y003161D01*
X026337Y002962D02*
X025887Y002962D01*
X025887Y002812D02*
X025887Y003112D01*
X025962Y002651D02*
X025887Y002576D01*
X025887Y002426D01*
X025962Y002351D01*
X026262Y002351D01*
X026337Y002426D01*
X026337Y002576D01*
X026262Y002651D01*
X025962Y002651D01*
X025887Y002191D02*
X026337Y002191D01*
X026037Y002041D02*
X025887Y002191D01*
X026037Y002041D02*
X025887Y001891D01*
X026337Y001891D01*
X026412Y001731D02*
X026412Y001430D01*
X026112Y001120D02*
X025962Y001270D01*
X025887Y001270D01*
X026112Y001120D02*
X026337Y001120D01*
X026112Y001120D02*
X025962Y000970D01*
X025887Y000970D01*
X023807Y002475D02*
X023807Y002775D01*
X023807Y002625D02*
X023357Y002625D01*
X023507Y002475D01*
X022807Y002475D02*
X022807Y002775D01*
X022807Y002625D02*
X022357Y002625D01*
X022507Y002475D01*
X021807Y002475D02*
X021507Y002775D01*
X021432Y002775D01*
X021357Y002700D01*
X021357Y002550D01*
X021432Y002475D01*
X021807Y002475D02*
X021807Y002775D01*
X021807Y002935D02*
X021507Y002935D01*
X021357Y003086D01*
X021507Y003236D01*
X021807Y003236D01*
X021582Y003236D02*
X021582Y002935D01*
X020807Y002935D02*
X020807Y003161D01*
X020732Y003236D01*
X020657Y003236D01*
X020582Y003161D01*
X020582Y002935D01*
X020507Y002775D02*
X020432Y002775D01*
X020357Y002700D01*
X020357Y002550D01*
X020432Y002475D01*
X020507Y002775D02*
X020807Y002475D01*
X020807Y002775D01*
X020807Y002935D02*
X020357Y002935D01*
X020357Y003161D01*
X020432Y003236D01*
X020507Y003236D01*
X020582Y003161D01*
X019837Y002962D02*
X019387Y002962D01*
X019387Y002812D02*
X019387Y003112D01*
X019462Y002651D02*
X019387Y002576D01*
X019387Y002426D01*
X019462Y002351D01*
X019762Y002351D01*
X019837Y002426D01*
X019837Y002576D01*
X019762Y002651D01*
X019462Y002651D01*
X019387Y002191D02*
X019837Y002191D01*
X019537Y002041D02*
X019387Y002191D01*
X019537Y002041D02*
X019387Y001891D01*
X019837Y001891D01*
X019912Y001731D02*
X019912Y001430D01*
X019837Y001270D02*
X019387Y000970D01*
X019387Y001270D02*
X019837Y000970D01*
X018057Y002550D02*
X017907Y002400D01*
X017607Y002400D01*
X017907Y002700D02*
X018057Y002550D01*
X017907Y002700D02*
X017607Y002700D01*
X017607Y002860D02*
X017607Y003011D01*
X017607Y002935D02*
X018057Y002935D01*
X018057Y002860D02*
X018057Y003011D01*
X018057Y003167D02*
X017607Y003167D01*
X018057Y003468D01*
X017607Y003468D01*
X017057Y003546D02*
X017057Y003321D01*
X016607Y003321D01*
X016607Y003546D01*
X016682Y003621D01*
X016982Y003621D01*
X017057Y003546D01*
X016057Y003471D02*
X015607Y003471D01*
X015607Y003321D02*
X015607Y003621D01*
X015057Y003471D02*
X014907Y003321D01*
X014607Y003321D01*
X014607Y003161D02*
X014607Y002860D01*
X014832Y002860D01*
X014757Y003011D01*
X014757Y003086D01*
X014832Y003161D01*
X014982Y003161D01*
X015057Y003086D01*
X015057Y002935D01*
X014982Y002860D01*
X014832Y002700D02*
X014832Y002400D01*
X014682Y002550D02*
X014982Y002550D01*
X015607Y002625D02*
X015607Y002400D01*
X016057Y002400D01*
X015907Y002400D02*
X015907Y002625D01*
X015832Y002700D01*
X015682Y002700D01*
X015607Y002625D01*
X015682Y002860D02*
X015757Y002860D01*
X015832Y002935D01*
X015832Y003086D01*
X015907Y003161D01*
X015982Y003161D01*
X016057Y003086D01*
X016057Y002935D01*
X015982Y002860D01*
X016057Y002700D02*
X015907Y002550D01*
X016607Y002475D02*
X016682Y002400D01*
X016982Y002400D01*
X017057Y002475D01*
X017057Y002625D01*
X016982Y002700D01*
X016832Y002700D01*
X016832Y002550D01*
X016682Y002700D02*
X016607Y002625D01*
X016607Y002475D01*
X016607Y002860D02*
X017057Y003161D01*
X016607Y003161D01*
X016607Y002860D02*
X017057Y002860D01*
X015682Y002860D02*
X015607Y002935D01*
X015607Y003086D01*
X015682Y003161D01*
X015057Y003471D02*
X014907Y003621D01*
X014607Y003621D01*
X013982Y003110D02*
X013682Y003411D01*
X013607Y003411D01*
X013607Y003110D01*
X013757Y002950D02*
X014057Y002950D01*
X014057Y003110D02*
X013982Y003110D01*
X013832Y002950D02*
X013832Y002650D01*
X013757Y002650D02*
X013607Y002800D01*
X013757Y002950D01*
X013757Y002650D02*
X014057Y002650D01*
X013057Y002650D02*
X012757Y002650D01*
X012607Y002800D01*
X012757Y002950D01*
X013057Y002950D01*
X012982Y003110D02*
X013057Y003185D01*
X013057Y003336D01*
X012982Y003411D01*
X012907Y003411D01*
X012832Y003336D01*
X012832Y003110D01*
X012982Y003110D01*
X012832Y003110D02*
X012682Y003261D01*
X012607Y003411D01*
X012057Y003336D02*
X012057Y003185D01*
X011982Y003110D01*
X011832Y003110D02*
X011757Y003261D01*
X011757Y003336D01*
X011832Y003411D01*
X011982Y003411D01*
X012057Y003336D01*
X011607Y003411D02*
X011607Y003110D01*
X011832Y003110D01*
X011832Y002950D02*
X011832Y002650D01*
X011757Y002650D02*
X011607Y002800D01*
X011757Y002950D01*
X012057Y002950D01*
X012057Y002650D02*
X011757Y002650D01*
X011057Y002650D02*
X010757Y002650D01*
X010607Y002800D01*
X010757Y002950D01*
X011057Y002950D01*
X010832Y002950D02*
X010832Y002650D01*
X010057Y002650D02*
X009757Y002650D01*
X009607Y002800D01*
X009757Y002950D01*
X010057Y002950D01*
X009982Y003110D02*
X010057Y003185D01*
X010057Y003336D01*
X009982Y003411D01*
X009907Y003411D01*
X009832Y003336D01*
X009832Y003261D01*
X009832Y003336D02*
X009757Y003411D01*
X009682Y003411D01*
X009607Y003336D01*
X009607Y003185D01*
X009682Y003110D01*
X009832Y002950D02*
X009832Y002650D01*
X009057Y002650D02*
X008757Y002650D01*
X008607Y002800D01*
X008757Y002950D01*
X009057Y002950D01*
X009057Y003110D02*
X008757Y003411D01*
X008682Y003411D01*
X008607Y003336D01*
X008607Y003185D01*
X008682Y003110D01*
X008832Y002950D02*
X008832Y002650D01*
X008057Y002650D02*
X007757Y002650D01*
X007607Y002800D01*
X007757Y002950D01*
X008057Y002950D01*
X008057Y003110D02*
X008057Y003411D01*
X008057Y003261D02*
X007607Y003261D01*
X007757Y003110D01*
X007832Y002950D02*
X007832Y002650D01*
X007057Y002650D02*
X006757Y002650D01*
X006607Y002800D01*
X006757Y002950D01*
X007057Y002950D01*
X006982Y003110D02*
X006682Y003110D01*
X006607Y003185D01*
X006607Y003336D01*
X006682Y003411D01*
X006982Y003110D01*
X007057Y003185D01*
X007057Y003336D01*
X006982Y003411D01*
X006682Y003411D01*
X006057Y003321D02*
X005607Y003321D01*
X005607Y003621D01*
X005832Y003471D02*
X005832Y003321D01*
X005832Y003161D02*
X005907Y003086D01*
X005907Y002860D01*
X006057Y002860D02*
X005607Y002860D01*
X005607Y003086D01*
X005682Y003161D01*
X005832Y003161D01*
X005907Y003011D02*
X006057Y003161D01*
X006832Y002950D02*
X006832Y002650D01*
X006057Y002700D02*
X005757Y002700D01*
X005607Y002550D01*
X005757Y002400D01*
X006057Y002400D01*
X005832Y002400D02*
X005832Y002700D01*
X005057Y002625D02*
X005057Y002475D01*
X004982Y002400D01*
X004832Y002550D02*
X004832Y002625D01*
X004907Y002700D01*
X004982Y002700D01*
X005057Y002625D01*
X004832Y002625D02*
X004757Y002700D01*
X004682Y002700D01*
X004607Y002625D01*
X004607Y002475D01*
X004682Y002400D01*
X004057Y002400D02*
X004057Y002625D01*
X003982Y002700D01*
X003682Y002700D01*
X003607Y002625D01*
X003607Y002400D01*
X004057Y002400D01*
X004057Y002860D02*
X004057Y003161D01*
X004057Y003011D02*
X003607Y003011D01*
X003757Y002860D01*
X004607Y002860D02*
X004907Y002860D01*
X005057Y003011D01*
X004907Y003161D01*
X004607Y003161D01*
X004682Y003321D02*
X004607Y003396D01*
X004607Y003546D01*
X004682Y003621D01*
X004757Y003621D01*
X004832Y003546D01*
X004907Y003621D01*
X004982Y003621D01*
X005057Y003546D01*
X005057Y003396D01*
X004982Y003321D01*
X004832Y003471D02*
X004832Y003546D01*
X004057Y003546D02*
X004057Y003396D01*
X003982Y003321D01*
X003832Y003471D02*
X003832Y003546D01*
X003907Y003621D01*
X003982Y003621D01*
X004057Y003546D01*
X003832Y003546D02*
X003757Y003621D01*
X003682Y003621D01*
X003607Y003546D01*
X003607Y003396D01*
X003682Y003321D01*
X001482Y003875D02*
X001482Y011075D01*
X018682Y011075D01*
X018682Y003875D01*
X001482Y003875D01*
X000125Y006039D02*
X005873Y006039D01*
X005873Y009582D01*
X000125Y009582D01*
X000125Y006039D01*
X002751Y009000D02*
X002901Y009000D01*
X002976Y009075D01*
X002976Y009225D01*
X002826Y009225D01*
X002676Y009075D02*
X002751Y009000D01*
X002676Y009075D02*
X002676Y009375D01*
X002751Y009450D01*
X002901Y009450D01*
X002976Y009375D01*
X003136Y009450D02*
X003437Y009000D01*
X003437Y009450D01*
X003597Y009450D02*
X003822Y009450D01*
X003897Y009375D01*
X003897Y009075D01*
X003822Y009000D01*
X003597Y009000D01*
X003597Y009450D01*
X003136Y009450D02*
X003136Y009000D01*
X004641Y009150D02*
X004791Y009000D01*
X004941Y009150D01*
X004941Y009450D01*
X005101Y009450D02*
X005251Y009300D01*
X005401Y009450D01*
X005401Y009000D01*
X005561Y009075D02*
X005637Y009000D01*
X005787Y009000D01*
X005862Y009075D01*
X005862Y009375D01*
X005787Y009450D01*
X005637Y009450D01*
X005561Y009375D01*
X005561Y009075D01*
X005101Y009000D02*
X005101Y009450D01*
X004641Y009450D02*
X004641Y009150D01*
X006022Y009450D02*
X006322Y009450D01*
X006172Y009450D02*
X006172Y009000D01*
X006057Y011275D02*
X005607Y011275D01*
X005607Y011500D01*
X005682Y011575D01*
X005982Y011575D01*
X006057Y011500D01*
X006057Y011275D01*
X006607Y011525D02*
X006607Y011750D01*
X006682Y011825D01*
X006982Y011825D01*
X007057Y011750D01*
X007057Y011525D01*
X006607Y011525D01*
X006057Y011735D02*
X006057Y012036D01*
X006057Y011886D02*
X005607Y011886D01*
X005757Y011735D01*
X005057Y011735D02*
X005057Y012036D01*
X005057Y011886D02*
X004607Y011886D01*
X004757Y011735D01*
X004682Y011575D02*
X004607Y011500D01*
X004607Y011275D01*
X005057Y011275D01*
X005057Y011500D01*
X004982Y011575D01*
X004682Y011575D01*
X004057Y011500D02*
X003982Y011575D01*
X003682Y011575D01*
X003607Y011500D01*
X003607Y011275D01*
X004057Y011275D01*
X004057Y011500D01*
X004057Y011735D02*
X004057Y012036D01*
X004057Y011886D02*
X003607Y011886D01*
X003757Y011735D01*
X003682Y012196D02*
X003607Y012271D01*
X003607Y012421D01*
X003682Y012496D01*
X003757Y012496D01*
X004057Y012196D01*
X004057Y012496D01*
X004607Y012346D02*
X005057Y012346D01*
X005057Y012196D02*
X005057Y012496D01*
X004757Y012196D02*
X004607Y012346D01*
X005607Y012271D02*
X005607Y012421D01*
X005682Y012496D01*
X005982Y012196D01*
X006057Y012271D01*
X006057Y012421D01*
X005982Y012496D01*
X005682Y012496D01*
X005607Y012271D02*
X005682Y012196D01*
X005982Y012196D01*
X006607Y012211D02*
X006607Y012060D01*
X006682Y011985D01*
X006757Y011985D01*
X006832Y012060D01*
X006832Y012286D01*
X006982Y012286D02*
X006682Y012286D01*
X006607Y012211D01*
X006982Y012286D02*
X007057Y012211D01*
X007057Y012060D01*
X006982Y011985D01*
X007607Y012060D02*
X007607Y012211D01*
X007682Y012286D01*
X007757Y012286D01*
X007832Y012211D01*
X007832Y012060D01*
X007757Y011985D01*
X007682Y011985D01*
X007607Y012060D01*
X007832Y012060D02*
X007907Y011985D01*
X007982Y011985D01*
X008057Y012060D01*
X008057Y012211D01*
X007982Y012286D01*
X007907Y012286D01*
X007832Y012211D01*
X007682Y011825D02*
X007607Y011750D01*
X007607Y011525D01*
X008057Y011525D01*
X008057Y011750D01*
X007982Y011825D01*
X007682Y011825D01*
X008607Y011750D02*
X008607Y011525D01*
X009057Y011525D01*
X009057Y011750D01*
X008982Y011825D01*
X008682Y011825D01*
X008607Y011750D01*
X008607Y011985D02*
X008607Y012286D01*
X008682Y012286D01*
X008982Y011985D01*
X009057Y011985D01*
X009607Y011750D02*
X009607Y011525D01*
X010057Y011525D01*
X010057Y011750D01*
X009982Y011825D01*
X009682Y011825D01*
X009607Y011750D01*
X009832Y011985D02*
X009832Y012211D01*
X009907Y012286D01*
X009982Y012286D01*
X010057Y012211D01*
X010057Y012060D01*
X009982Y011985D01*
X009832Y011985D01*
X009682Y012136D01*
X009607Y012286D01*
X010607Y012286D02*
X010607Y011985D01*
X010832Y011985D01*
X010757Y012136D01*
X010757Y012211D01*
X010832Y012286D01*
X010982Y012286D01*
X011057Y012211D01*
X011057Y012060D01*
X010982Y011985D01*
X010982Y011825D02*
X010682Y011825D01*
X010607Y011750D01*
X010607Y011525D01*
X011057Y011525D01*
X011057Y011750D01*
X010982Y011825D01*
X011607Y011750D02*
X011607Y011525D01*
X012057Y011525D01*
X012057Y011750D01*
X011982Y011825D01*
X011682Y011825D01*
X011607Y011750D01*
X011832Y011985D02*
X011832Y012286D01*
X011607Y012211D02*
X011832Y011985D01*
X012057Y012211D02*
X011607Y012211D01*
X012607Y012211D02*
X012607Y012060D01*
X012682Y011985D01*
X012682Y011825D02*
X012607Y011750D01*
X012607Y011525D01*
X013057Y011525D01*
X013057Y011750D01*
X012982Y011825D01*
X012682Y011825D01*
X012982Y011985D02*
X013057Y012060D01*
X013057Y012211D01*
X012982Y012286D01*
X012907Y012286D01*
X012832Y012211D01*
X012832Y012136D01*
X012832Y012211D02*
X012757Y012286D01*
X012682Y012286D01*
X012607Y012211D01*
X013607Y012211D02*
X013607Y012060D01*
X013682Y011985D01*
X013682Y011825D02*
X013607Y011750D01*
X013607Y011525D01*
X014057Y011525D01*
X014057Y011750D01*
X013982Y011825D01*
X013682Y011825D01*
X014057Y011985D02*
X013757Y012286D01*
X013682Y012286D01*
X013607Y012211D01*
X014057Y012286D02*
X014057Y011985D01*
X014607Y012036D02*
X015057Y012036D01*
X014607Y011735D01*
X015057Y011735D01*
X014982Y011575D02*
X014832Y011575D01*
X014832Y011425D01*
X014682Y011275D02*
X014982Y011275D01*
X015057Y011350D01*
X015057Y011500D01*
X014982Y011575D01*
X014682Y011575D02*
X014607Y011500D01*
X014607Y011350D01*
X014682Y011275D01*
X015607Y011275D02*
X015607Y011500D01*
X015682Y011575D01*
X015832Y011575D01*
X015907Y011500D01*
X015907Y011275D01*
X015907Y011425D02*
X016057Y011575D01*
X015982Y011735D02*
X016057Y011810D01*
X016057Y011961D01*
X015982Y012036D01*
X015907Y012036D01*
X015832Y011961D01*
X015832Y011810D01*
X015757Y011735D01*
X015682Y011735D01*
X015607Y011810D01*
X015607Y011961D01*
X015682Y012036D01*
X015607Y012196D02*
X015607Y012496D01*
X015607Y012346D02*
X016057Y012346D01*
X016607Y012421D02*
X016682Y012496D01*
X016982Y012196D01*
X017057Y012271D01*
X017057Y012421D01*
X016982Y012496D01*
X016682Y012496D01*
X016607Y012421D02*
X016607Y012271D01*
X016682Y012196D01*
X016982Y012196D01*
X017057Y012036D02*
X016607Y011735D01*
X016682Y011575D02*
X016832Y011575D01*
X016907Y011500D01*
X016907Y011275D01*
X016907Y011425D02*
X017057Y011575D01*
X017057Y011735D02*
X016607Y012036D01*
X016682Y011575D02*
X016607Y011500D01*
X016607Y011275D01*
X017057Y011275D01*
X017607Y011275D02*
X017607Y011575D01*
X017607Y011425D02*
X018057Y011425D01*
X018057Y011735D02*
X017607Y012036D01*
X017757Y012196D02*
X017607Y012346D01*
X018057Y012346D01*
X018057Y012196D02*
X018057Y012496D01*
X018057Y012036D02*
X017607Y011735D01*
X016057Y011275D02*
X015607Y011275D01*
X015057Y012196D02*
X014607Y012196D01*
X014607Y012421D01*
X014682Y012496D01*
X014982Y012496D01*
X015057Y012421D01*
X015057Y012196D01*
X019387Y012270D02*
X019837Y011970D01*
X019837Y012270D02*
X019387Y011970D01*
X019912Y012430D02*
X019912Y012731D01*
X019837Y012891D02*
X019837Y013191D01*
X019837Y013351D02*
X019387Y013351D01*
X019837Y013651D01*
X019387Y013651D01*
X019387Y013812D02*
X019387Y014037D01*
X019462Y014112D01*
X019762Y014112D01*
X019837Y014037D01*
X019837Y013812D01*
X019387Y013812D01*
X019387Y013191D02*
X019387Y012891D01*
X019837Y012891D01*
X019612Y012891D02*
X019612Y013041D01*
X020357Y012275D02*
X020357Y011975D01*
X020582Y011975D01*
X020507Y012125D01*
X020507Y012200D01*
X020582Y012275D01*
X020732Y012275D01*
X020807Y012200D01*
X020807Y012050D01*
X020732Y011975D01*
X021357Y012050D02*
X021357Y012200D01*
X021432Y012275D01*
X021582Y012275D02*
X021582Y012125D01*
X021582Y012275D02*
X021732Y012275D01*
X021807Y012200D01*
X021807Y012050D01*
X021732Y011975D01*
X021432Y011975D01*
X021357Y012050D01*
X022357Y012050D02*
X022432Y011975D01*
X022732Y011975D01*
X022807Y012050D01*
X022807Y012200D01*
X022732Y012275D01*
X022582Y012275D01*
X022582Y012125D01*
X022432Y012275D02*
X022357Y012200D01*
X022357Y012050D01*
X023357Y012050D02*
X023432Y011975D01*
X023507Y011975D01*
X023582Y012050D01*
X023582Y012200D01*
X023657Y012275D01*
X023732Y012275D01*
X023807Y012200D01*
X023807Y012050D01*
X023732Y011975D01*
X023357Y012050D02*
X023357Y012200D01*
X023432Y012275D01*
X025887Y012270D02*
X025962Y012270D01*
X026112Y012120D01*
X026337Y012120D01*
X026112Y012120D02*
X025962Y011970D01*
X025887Y011970D01*
X026857Y011975D02*
X026857Y012275D01*
X027007Y012200D02*
X027082Y012275D01*
X027232Y012275D01*
X027307Y012200D01*
X027307Y012050D01*
X027232Y011975D01*
X027082Y011975D02*
X027007Y012125D01*
X027007Y012200D01*
X027082Y011975D02*
X026857Y011975D01*
X026412Y012430D02*
X026412Y012731D01*
X026337Y012891D02*
X025887Y012891D01*
X025887Y013191D01*
X025887Y013351D02*
X026337Y013651D01*
X025887Y013651D01*
X025887Y013812D02*
X025887Y014037D01*
X025962Y014112D01*
X026262Y014112D01*
X026337Y014037D01*
X026337Y013812D01*
X025887Y013812D01*
X025887Y013351D02*
X026337Y013351D01*
X026337Y013191D02*
X026337Y012891D01*
X026112Y012891D02*
X026112Y013041D01*
X027857Y012200D02*
X027932Y012275D01*
X027857Y012200D02*
X027857Y012050D01*
X027932Y011975D01*
X028232Y011975D01*
X028307Y012050D01*
X028307Y012200D01*
X028232Y012275D01*
X028082Y012275D01*
X028082Y012125D01*
X028857Y012050D02*
X028932Y011975D01*
X029232Y011975D01*
X029307Y012050D01*
X029307Y012200D01*
X029232Y012275D01*
X029082Y012275D01*
X029082Y012125D01*
X028932Y012275D02*
X028857Y012200D01*
X028857Y012050D01*
X029857Y012050D02*
X029932Y011975D01*
X030007Y011975D01*
X030082Y012050D01*
X030082Y012200D01*
X030157Y012275D01*
X030232Y012275D01*
X030307Y012200D01*
X030307Y012050D01*
X030232Y011975D01*
X029857Y012050D02*
X029857Y012200D01*
X029932Y012275D01*
X032387Y012270D02*
X032387Y011970D01*
X032462Y012270D02*
X032762Y011970D01*
X032837Y011970D01*
X032837Y012270D01*
X032912Y012430D02*
X032912Y012731D01*
X032837Y012891D02*
X032387Y012891D01*
X032387Y013191D01*
X032387Y013351D02*
X032837Y013651D01*
X032387Y013651D01*
X032387Y013812D02*
X032387Y014037D01*
X032462Y014112D01*
X032762Y014112D01*
X032837Y014037D01*
X032837Y013812D01*
X032387Y013812D01*
X032387Y013351D02*
X032837Y013351D01*
X032837Y013191D02*
X032837Y012891D01*
X032612Y012891D02*
X032612Y013041D01*
X032462Y012270D02*
X032387Y012270D01*
X033357Y012275D02*
X033357Y011975D01*
X033582Y011975D01*
X033507Y012125D01*
X033507Y012200D01*
X033582Y012275D01*
X033732Y012275D01*
X033807Y012200D01*
X033807Y012050D01*
X033732Y011975D01*
X034357Y012050D02*
X034432Y011975D01*
X034732Y011975D01*
X034807Y012050D01*
X034807Y012200D01*
X034732Y012275D01*
X034582Y012275D01*
X034582Y012125D01*
X034432Y012275D02*
X034357Y012200D01*
X034357Y012050D01*
X035357Y012050D02*
X035432Y011975D01*
X035732Y011975D01*
X035807Y012050D01*
X035807Y012200D01*
X035732Y012275D01*
X035582Y012275D01*
X035582Y012125D01*
X035432Y012275D02*
X035357Y012200D01*
X035357Y012050D01*
X036357Y012050D02*
X036432Y011975D01*
X036507Y011975D01*
X036582Y012050D01*
X036582Y012200D01*
X036657Y012275D01*
X036732Y012275D01*
X036807Y012200D01*
X036807Y012050D01*
X036732Y011975D01*
X036357Y012050D02*
X036357Y012200D01*
X036432Y012275D01*
X036081Y011050D02*
X035931Y011050D01*
X035856Y010975D01*
X035856Y010900D01*
X035931Y010825D01*
X036081Y010825D01*
X036156Y010750D01*
X036156Y010675D01*
X036081Y010600D01*
X035931Y010600D01*
X035856Y010675D01*
X035699Y010600D02*
X035549Y010600D01*
X035624Y010600D02*
X035624Y011050D01*
X035549Y011050D02*
X035699Y011050D01*
X035389Y011050D02*
X035088Y010600D01*
X034928Y010600D02*
X034928Y010900D01*
X034778Y011050D01*
X034628Y010900D01*
X034628Y010600D01*
X034468Y010525D02*
X034168Y010525D01*
X034008Y010600D02*
X033707Y010600D01*
X033707Y010675D01*
X034008Y010975D01*
X034008Y011050D01*
X033707Y011050D01*
X034628Y010825D02*
X034928Y010825D01*
X035088Y011050D02*
X035389Y010600D01*
X036081Y011050D02*
X036156Y010975D01*
X033807Y010200D02*
X033807Y009900D01*
X033807Y010050D02*
X033357Y010050D01*
X033507Y009900D01*
X033507Y009150D02*
X033432Y009150D01*
X033357Y009075D01*
X033357Y008925D01*
X033432Y008850D01*
X033507Y009150D02*
X033807Y008850D01*
X033807Y009150D01*
X033732Y008200D02*
X033807Y008125D01*
X033807Y007975D01*
X033732Y007900D01*
X033582Y008050D02*
X033582Y008125D01*
X033657Y008200D01*
X033732Y008200D01*
X033582Y008125D02*
X033507Y008200D01*
X033432Y008200D01*
X033357Y008125D01*
X033357Y007975D01*
X033432Y007900D01*
X036357Y008158D02*
X036357Y008459D01*
X036432Y008459D01*
X036732Y008158D01*
X036807Y008158D01*
X036807Y008459D01*
X036882Y008619D02*
X036882Y008919D01*
X036807Y009079D02*
X036357Y009079D01*
X036507Y009229D01*
X036357Y009379D01*
X036807Y009379D01*
X036732Y009540D02*
X036807Y009615D01*
X036807Y009765D01*
X036732Y009840D01*
X036657Y009840D01*
X036582Y009765D01*
X036582Y009615D01*
X036507Y009540D01*
X036432Y009540D01*
X036357Y009615D01*
X036357Y009765D01*
X036432Y009840D01*
X030382Y008919D02*
X030382Y008619D01*
X030082Y008309D02*
X029932Y008459D01*
X029857Y008459D01*
X030082Y008309D02*
X030307Y008309D01*
X030082Y008309D02*
X029932Y008158D01*
X029857Y008158D01*
X029857Y009079D02*
X030007Y009229D01*
X029857Y009379D01*
X030307Y009379D01*
X030232Y009540D02*
X030307Y009615D01*
X030307Y009765D01*
X030232Y009840D01*
X030157Y009840D01*
X030082Y009765D01*
X030082Y009615D01*
X030007Y009540D01*
X029932Y009540D01*
X029857Y009615D01*
X029857Y009765D01*
X029932Y009840D01*
X029581Y010600D02*
X029431Y010600D01*
X029356Y010675D01*
X029431Y010825D02*
X029581Y010825D01*
X029656Y010750D01*
X029656Y010675D01*
X029581Y010600D01*
X029431Y010825D02*
X029356Y010900D01*
X029356Y010975D01*
X029431Y011050D01*
X029581Y011050D01*
X029656Y010975D01*
X029199Y011050D02*
X029049Y011050D01*
X029124Y011050D02*
X029124Y010600D01*
X029049Y010600D02*
X029199Y010600D01*
X028889Y010600D02*
X028588Y011050D01*
X028428Y010900D02*
X028278Y011050D01*
X028128Y010900D01*
X028128Y010600D01*
X027968Y010525D02*
X027668Y010525D01*
X027357Y010600D02*
X027357Y010825D01*
X027508Y010975D01*
X027508Y011050D01*
X027357Y010825D02*
X027207Y010975D01*
X027207Y011050D01*
X028128Y010825D02*
X028428Y010825D01*
X028428Y010900D02*
X028428Y010600D01*
X028588Y010600D02*
X028889Y011050D01*
X027307Y010200D02*
X027307Y009900D01*
X027307Y010050D02*
X026857Y010050D01*
X027007Y009900D01*
X027007Y009150D02*
X026932Y009150D01*
X026857Y009075D01*
X026857Y008925D01*
X026932Y008850D01*
X027007Y009150D02*
X027307Y008850D01*
X027307Y009150D01*
X027232Y008200D02*
X027307Y008125D01*
X027307Y007975D01*
X027232Y007900D01*
X027082Y008050D02*
X027082Y008125D01*
X027157Y008200D01*
X027232Y008200D01*
X027082Y008125D02*
X027007Y008200D01*
X026932Y008200D01*
X026857Y008125D01*
X026857Y007975D01*
X026932Y007900D01*
X023882Y008619D02*
X023882Y008919D01*
X023807Y009079D02*
X023357Y009079D01*
X023507Y009229D01*
X023357Y009379D01*
X023807Y009379D01*
X023732Y009540D02*
X023807Y009615D01*
X023807Y009765D01*
X023732Y009840D01*
X023657Y009840D01*
X023582Y009765D01*
X023582Y009615D01*
X023507Y009540D01*
X023432Y009540D01*
X023357Y009615D01*
X023357Y009765D01*
X023432Y009840D01*
X021468Y010525D02*
X021168Y010525D01*
X021008Y010600D02*
X020707Y011050D01*
X021008Y011050D02*
X020707Y010600D01*
X021628Y010600D02*
X021628Y010900D01*
X021778Y011050D01*
X021928Y010900D01*
X021928Y010600D01*
X022088Y010600D02*
X022389Y011050D01*
X022549Y011050D02*
X022699Y011050D01*
X022624Y011050D02*
X022624Y010600D01*
X022549Y010600D02*
X022699Y010600D01*
X022856Y010675D02*
X022931Y010600D01*
X023081Y010600D01*
X023156Y010675D01*
X023156Y010750D01*
X023081Y010825D01*
X022931Y010825D01*
X022856Y010900D01*
X022856Y010975D01*
X022931Y011050D01*
X023081Y011050D01*
X023156Y010975D01*
X022389Y010600D02*
X022088Y011050D01*
X021928Y010825D02*
X021628Y010825D01*
X020807Y010200D02*
X020807Y009900D01*
X020807Y010050D02*
X020357Y010050D01*
X020507Y009900D01*
X020507Y009150D02*
X020432Y009150D01*
X020357Y009075D01*
X020357Y008925D01*
X020432Y008850D01*
X020507Y009150D02*
X020807Y008850D01*
X020807Y009150D01*
X020732Y008200D02*
X020657Y008200D01*
X020582Y008125D01*
X020582Y008050D01*
X020582Y008125D02*
X020507Y008200D01*
X020432Y008200D01*
X020357Y008125D01*
X020357Y007975D01*
X020432Y007900D01*
X020732Y007900D02*
X020807Y007975D01*
X020807Y008125D01*
X020732Y008200D01*
X023357Y008158D02*
X023807Y008459D01*
X023807Y008158D02*
X023357Y008459D01*
X029857Y009079D02*
X030307Y009079D01*
X029710Y004250D02*
X029710Y003875D01*
X029634Y003800D01*
X029484Y003800D01*
X029409Y003875D01*
X029409Y004250D01*
X028949Y004250D02*
X028949Y003800D01*
X029249Y003800D01*
X028789Y003875D02*
X028789Y004175D01*
X028714Y004250D01*
X028564Y004250D01*
X028488Y004175D01*
X028488Y003875D01*
X028564Y003800D01*
X028714Y003800D01*
X028789Y003875D01*
X028328Y003800D02*
X028028Y003800D01*
X028028Y004250D01*
X027868Y004175D02*
X027793Y004250D01*
X027643Y004250D01*
X027568Y004175D01*
X027568Y003875D01*
X027643Y003800D01*
X027793Y003800D01*
X027868Y003875D01*
X027868Y004175D01*
X027408Y004175D02*
X027408Y004025D01*
X027332Y003950D01*
X027107Y003950D01*
X027107Y003800D02*
X027107Y004250D01*
X027332Y004250D01*
X027408Y004175D01*
X028857Y003086D02*
X029007Y003236D01*
X029307Y003236D01*
X029082Y003236D02*
X029082Y002935D01*
X029007Y002935D02*
X029307Y002935D01*
X029007Y002935D02*
X028857Y003086D01*
X029857Y003161D02*
X029857Y002935D01*
X030307Y002935D01*
X030307Y003161D01*
X030232Y003236D01*
X030157Y003236D01*
X030082Y003161D01*
X030082Y002935D01*
X030082Y003161D02*
X030007Y003236D01*
X029932Y003236D01*
X029857Y003161D01*
X033607Y003750D02*
X033607Y004200D01*
X033832Y004200D01*
X033908Y004125D01*
X033908Y003975D01*
X033832Y003900D01*
X033607Y003900D01*
X034068Y003825D02*
X034143Y003750D01*
X034293Y003750D01*
X034368Y003825D01*
X034368Y004125D01*
X034293Y004200D01*
X034143Y004200D01*
X034068Y004125D01*
X034068Y003825D01*
X034528Y003750D02*
X034828Y003750D01*
X034988Y003825D02*
X035064Y003750D01*
X035214Y003750D01*
X035289Y003825D01*
X035289Y004125D01*
X035214Y004200D01*
X035064Y004200D01*
X034988Y004125D01*
X034988Y003825D01*
X035449Y003750D02*
X035749Y003750D01*
X035909Y003825D02*
X035984Y003750D01*
X036134Y003750D01*
X036210Y003825D01*
X036210Y004200D01*
X035909Y004200D02*
X035909Y003825D01*
X035449Y003750D02*
X035449Y004200D01*
X034528Y004200D02*
X034528Y003750D01*
X035357Y003086D02*
X035507Y003236D01*
X035807Y003236D01*
X035582Y003236D02*
X035582Y002935D01*
X035507Y002935D02*
X035357Y003086D01*
X035507Y002935D02*
X035807Y002935D01*
X036357Y002935D02*
X036357Y003161D01*
X036432Y003236D01*
X036507Y003236D01*
X036582Y003161D01*
X036582Y002935D01*
X036807Y002935D02*
X036357Y002935D01*
X036582Y003161D02*
X036657Y003236D01*
X036732Y003236D01*
X036807Y003161D01*
X036807Y002935D01*
X023807Y002935D02*
X023807Y003161D01*
X023732Y003236D01*
X023657Y003236D01*
X023582Y003161D01*
X023582Y002935D01*
X023807Y002935D02*
X023357Y002935D01*
X023357Y003161D01*
X023432Y003236D01*
X023507Y003236D01*
X023582Y003161D01*
X022807Y003236D02*
X022507Y003236D01*
X022357Y003086D01*
X022507Y002935D01*
X022807Y002935D01*
X022582Y002935D02*
X022582Y003236D01*
X022699Y003800D02*
X022399Y003800D01*
X022399Y004250D01*
X022239Y004175D02*
X022164Y004250D01*
X022014Y004250D01*
X021938Y004175D01*
X021938Y003875D01*
X022014Y003800D01*
X022164Y003800D01*
X022239Y003875D01*
X022239Y004175D01*
X021478Y004250D02*
X021478Y003800D01*
X021778Y003800D01*
X021318Y003875D02*
X021318Y004175D01*
X021243Y004250D01*
X021093Y004250D01*
X021018Y004175D01*
X021018Y003875D01*
X021093Y003800D01*
X021243Y003800D01*
X021318Y003875D01*
X020858Y004025D02*
X020782Y003950D01*
X020557Y003950D01*
X020557Y003800D02*
X020557Y004250D01*
X020782Y004250D01*
X020858Y004175D01*
X020858Y004025D01*
X022859Y003875D02*
X022934Y003800D01*
X023084Y003800D01*
X023160Y003875D01*
X023160Y004250D01*
X022859Y004250D02*
X022859Y003875D01*
X012832Y002950D02*
X012832Y002650D01*
X011057Y003336D02*
X010607Y003336D01*
X010832Y003110D01*
X010832Y003411D01*
X009057Y003411D02*
X009057Y003110D01*
D12*
X009154Y005755D02*
X009154Y006396D01*
X008940Y006182D01*
X008401Y006075D02*
X007974Y006075D01*
X008294Y006396D01*
X008294Y005755D01*
X008618Y005755D02*
X008725Y005755D01*
X008725Y005862D01*
X008618Y005862D01*
X008618Y005755D01*
X008940Y005755D02*
X009368Y005755D01*
X010230Y005755D02*
X010230Y006396D01*
X010550Y006396D01*
X010657Y006289D01*
X010657Y006075D01*
X010550Y005969D01*
X010230Y005969D01*
X010443Y005969D02*
X010657Y005755D01*
X011088Y005755D02*
X011088Y006396D01*
X011301Y006396D02*
X010874Y006396D01*
X011519Y006396D02*
X011519Y005755D01*
X011732Y005969D01*
X011946Y005755D01*
X011946Y006396D01*
X012163Y006289D02*
X012270Y006396D01*
X012484Y006396D01*
X012590Y006289D01*
X012590Y005862D01*
X012484Y005755D01*
X012270Y005755D01*
X012163Y005862D01*
X012163Y006289D01*
X012808Y006396D02*
X013021Y006182D01*
X013235Y006396D01*
X013235Y005755D01*
X013452Y005755D02*
X013879Y005755D01*
X013452Y005755D02*
X013452Y006396D01*
X013879Y006396D01*
X014097Y006396D02*
X014097Y006289D01*
X014310Y006075D01*
X014310Y005755D01*
X014310Y006075D02*
X014524Y006289D01*
X014524Y006396D01*
X014417Y006805D02*
X014204Y006805D01*
X014097Y006912D01*
X014097Y007339D01*
X014204Y007446D01*
X014417Y007446D01*
X014524Y007339D01*
X014524Y006912D01*
X014417Y006805D01*
X014741Y006805D02*
X014741Y007232D01*
X014955Y007446D01*
X015168Y007232D01*
X015168Y006805D01*
X015386Y006805D02*
X015386Y007446D01*
X015706Y007446D01*
X015813Y007339D01*
X015813Y007125D01*
X015706Y007019D01*
X015386Y007019D01*
X015599Y007019D02*
X015813Y006805D01*
X016031Y006805D02*
X016351Y006805D01*
X016458Y006912D01*
X016458Y007339D01*
X016351Y007446D01*
X016031Y007446D01*
X016031Y006805D01*
X016137Y006396D02*
X016351Y006396D01*
X016458Y006289D01*
X016031Y005862D01*
X016137Y005755D01*
X016351Y005755D01*
X016458Y005862D01*
X016458Y006289D01*
X016675Y006182D02*
X016889Y006396D01*
X016889Y005755D01*
X017102Y005755D02*
X016675Y005755D01*
X016031Y005862D02*
X016031Y006289D01*
X016137Y006396D01*
X015813Y006289D02*
X015706Y006396D01*
X015493Y006396D01*
X015386Y006289D01*
X015813Y006289D02*
X015813Y006182D01*
X015386Y005755D01*
X015813Y005755D01*
X017320Y005862D02*
X017426Y005755D01*
X017640Y005755D01*
X017747Y005862D01*
X017747Y006075D01*
X017640Y006182D01*
X017533Y006182D01*
X017320Y006075D01*
X017320Y006396D01*
X017747Y006396D01*
X015168Y007125D02*
X014741Y007125D01*
X013879Y007019D02*
X013879Y006912D01*
X013773Y006805D01*
X013452Y006805D01*
X013452Y007446D01*
X013773Y007446D01*
X013879Y007339D01*
X013879Y007232D01*
X013773Y007125D01*
X013452Y007125D01*
X013773Y007125D02*
X013879Y007019D01*
X012590Y007125D02*
X012484Y007019D01*
X012163Y007019D01*
X012377Y007019D02*
X012590Y006805D01*
X012163Y006805D02*
X012163Y007446D01*
X012484Y007446D01*
X012590Y007339D01*
X012590Y007125D01*
X011946Y006912D02*
X011946Y007339D01*
X011839Y007446D01*
X011625Y007446D01*
X011519Y007339D01*
X011519Y006912D01*
X011625Y006805D01*
X011839Y006805D01*
X011946Y006912D01*
X011088Y006805D02*
X011088Y007446D01*
X011301Y007446D02*
X010874Y007446D01*
X010657Y007339D02*
X010550Y007446D01*
X010336Y007446D01*
X010230Y007339D01*
X010230Y006912D01*
X010336Y006805D01*
X010550Y006805D01*
X010657Y006912D01*
X010657Y007339D01*
X010012Y007446D02*
X010012Y006805D01*
X009585Y006805D02*
X009585Y007446D01*
X009799Y007232D01*
X010012Y007446D01*
X008723Y007339D02*
X008723Y006912D01*
X008616Y006805D01*
X008403Y006805D01*
X008296Y006912D01*
X008296Y007339D01*
X008403Y007446D01*
X008616Y007446D01*
X008723Y007339D01*
X008078Y007446D02*
X008078Y006805D01*
X007651Y007446D01*
X007651Y006805D01*
X007434Y006805D02*
X007434Y007232D01*
X007220Y007446D01*
X007007Y007232D01*
X007007Y006805D01*
X006789Y006805D02*
X006789Y007446D01*
X006362Y007446D02*
X006789Y006805D01*
X006362Y006805D02*
X006362Y007446D01*
X007007Y007125D02*
X007434Y007125D01*
X007327Y006396D02*
X007114Y006396D01*
X007007Y006289D01*
X007007Y005862D01*
X007434Y006289D01*
X007434Y005862D01*
X007327Y005755D01*
X007114Y005755D01*
X007007Y005862D01*
X006789Y005969D02*
X006789Y006396D01*
X006362Y006396D02*
X006362Y005969D01*
X006576Y005755D01*
X006789Y005969D01*
X007327Y006396D02*
X007434Y006289D01*
X007651Y005862D02*
X007758Y005862D01*
X007758Y005755D01*
X007651Y005755D01*
X007651Y005862D01*
X012808Y005755D02*
X012808Y006396D01*
X013452Y006075D02*
X013666Y006075D01*
X019932Y003475D02*
X024232Y003475D01*
X024232Y011475D01*
X022482Y011475D01*
X022480Y011436D01*
X022474Y011397D01*
X022465Y011359D01*
X022452Y011322D01*
X022435Y011286D01*
X022415Y011253D01*
X022391Y011221D01*
X022365Y011192D01*
X022336Y011166D01*
X022304Y011142D01*
X022271Y011122D01*
X022235Y011105D01*
X022198Y011092D01*
X022160Y011083D01*
X022121Y011077D01*
X022082Y011075D01*
X022043Y011077D01*
X022004Y011083D01*
X021966Y011092D01*
X021929Y011105D01*
X021893Y011122D01*
X021860Y011142D01*
X021828Y011166D01*
X021799Y011192D01*
X021773Y011221D01*
X021749Y011253D01*
X021729Y011286D01*
X021712Y011322D01*
X021699Y011359D01*
X021690Y011397D01*
X021684Y011436D01*
X021682Y011475D01*
X019932Y011475D01*
X019932Y003475D01*
X026432Y003475D02*
X030732Y003475D01*
X030732Y011475D01*
X028982Y011475D01*
X028980Y011436D01*
X028974Y011397D01*
X028965Y011359D01*
X028952Y011322D01*
X028935Y011286D01*
X028915Y011253D01*
X028891Y011221D01*
X028865Y011192D01*
X028836Y011166D01*
X028804Y011142D01*
X028771Y011122D01*
X028735Y011105D01*
X028698Y011092D01*
X028660Y011083D01*
X028621Y011077D01*
X028582Y011075D01*
X028543Y011077D01*
X028504Y011083D01*
X028466Y011092D01*
X028429Y011105D01*
X028393Y011122D01*
X028360Y011142D01*
X028328Y011166D01*
X028299Y011192D01*
X028273Y011221D01*
X028249Y011253D01*
X028229Y011286D01*
X028212Y011322D01*
X028199Y011359D01*
X028190Y011397D01*
X028184Y011436D01*
X028182Y011475D01*
X026432Y011475D01*
X026432Y003475D01*
X032932Y003475D02*
X037232Y003475D01*
X037232Y011475D01*
X035482Y011475D01*
X035480Y011436D01*
X035474Y011397D01*
X035465Y011359D01*
X035452Y011322D01*
X035435Y011286D01*
X035415Y011253D01*
X035391Y011221D01*
X035365Y011192D01*
X035336Y011166D01*
X035304Y011142D01*
X035271Y011122D01*
X035235Y011105D01*
X035198Y011092D01*
X035160Y011083D01*
X035121Y011077D01*
X035082Y011075D01*
X035043Y011077D01*
X035004Y011083D01*
X034966Y011092D01*
X034929Y011105D01*
X034893Y011122D01*
X034860Y011142D01*
X034828Y011166D01*
X034799Y011192D01*
X034773Y011221D01*
X034749Y011253D01*
X034729Y011286D01*
X034712Y011322D01*
X034699Y011359D01*
X034690Y011397D01*
X034684Y011436D01*
X034682Y011475D01*
X032932Y011475D01*
X032932Y003475D01*
D13*
X018462Y006953D02*
X018002Y006953D01*
X018462Y007260D01*
X018002Y007260D01*
X018155Y007414D02*
X018002Y007567D01*
X018155Y007721D01*
X018462Y007721D01*
X018462Y007874D02*
X018002Y007874D01*
X018462Y008181D01*
X018002Y008181D01*
X018079Y008335D02*
X018386Y008335D01*
X018462Y008411D01*
X018462Y008565D01*
X018386Y008642D01*
X018079Y008642D01*
X018002Y008565D01*
X018002Y008411D01*
X018079Y008335D01*
X018232Y007721D02*
X018232Y007414D01*
X018155Y007414D02*
X018462Y007414D01*
D14*
X018082Y002225D02*
X017582Y002225D01*
X017332Y001975D01*
X017082Y002225D01*
X016582Y002225D01*
X016332Y001975D01*
X016082Y002225D01*
X015582Y002225D01*
X015332Y001975D01*
X015082Y002225D01*
X014582Y002225D01*
X014332Y001975D01*
X014082Y002225D01*
X013582Y002225D01*
X013332Y001975D01*
X013082Y002225D01*
X012582Y002225D01*
X012332Y001975D01*
X012082Y002225D01*
X011582Y002225D01*
X011332Y001975D01*
X011082Y002225D01*
X010582Y002225D01*
X010332Y001975D01*
X010082Y002225D01*
X009582Y002225D01*
X009332Y001975D01*
X009082Y002225D01*
X008582Y002225D01*
X008332Y001975D01*
X008082Y002225D01*
X007582Y002225D01*
X007332Y001975D01*
X007082Y002225D01*
X006582Y002225D01*
X006332Y001975D01*
X006082Y002225D01*
X005582Y002225D01*
X005332Y001975D01*
X005082Y002225D01*
X004582Y002225D01*
X004332Y001975D01*
X004082Y002225D01*
X003582Y002225D01*
X003332Y001975D01*
X003332Y001475D01*
X003582Y001225D01*
X004082Y001225D01*
X004332Y001475D01*
X004582Y001225D01*
X005082Y001225D01*
X005332Y001475D01*
X005582Y001225D01*
X006082Y001225D01*
X006332Y001475D01*
X006582Y001225D01*
X007082Y001225D01*
X007332Y001475D01*
X007582Y001225D01*
X008082Y001225D01*
X008332Y001475D01*
X008582Y001225D01*
X009082Y001225D01*
X009332Y001475D01*
X009582Y001225D01*
X010082Y001225D01*
X010332Y001475D01*
X010582Y001225D01*
X011082Y001225D01*
X011332Y001475D01*
X011582Y001225D01*
X012082Y001225D01*
X012332Y001475D01*
X012582Y001225D01*
X013082Y001225D01*
X013332Y001475D01*
X013582Y001225D01*
X014082Y001225D01*
X014332Y001475D01*
X014582Y001225D01*
X015082Y001225D01*
X015332Y001475D01*
X015582Y001225D01*
X016082Y001225D01*
X016332Y001475D01*
X016582Y001225D01*
X017082Y001225D01*
X017332Y001475D01*
X017582Y001225D01*
X018082Y001225D01*
X018332Y001475D01*
X018332Y001975D01*
X018082Y002225D01*
X020082Y001975D02*
X020082Y001475D01*
X020332Y001225D01*
X020832Y001225D01*
X021082Y001475D01*
X021332Y001225D01*
X021832Y001225D01*
X022082Y001475D01*
X022332Y001225D01*
X022832Y001225D01*
X023082Y001475D01*
X023332Y001225D01*
X023832Y001225D01*
X024082Y001475D01*
X024082Y001975D01*
X023832Y002225D01*
X023332Y002225D01*
X023082Y001975D01*
X022832Y002225D01*
X022332Y002225D01*
X022082Y001975D01*
X021832Y002225D01*
X021332Y002225D01*
X021082Y001975D01*
X020832Y002225D01*
X020332Y002225D01*
X020082Y001975D01*
X026582Y001975D02*
X026582Y001475D01*
X026832Y001225D01*
X027332Y001225D01*
X027582Y001475D01*
X027832Y001225D01*
X028332Y001225D01*
X028582Y001475D01*
X028832Y001225D01*
X029332Y001225D01*
X029582Y001475D01*
X029832Y001225D01*
X030332Y001225D01*
X030582Y001475D01*
X030582Y001975D01*
X030332Y002225D01*
X029832Y002225D01*
X029582Y001975D01*
X029332Y002225D01*
X028832Y002225D01*
X028582Y001975D01*
X028332Y002225D01*
X027832Y002225D01*
X027582Y001975D01*
X027332Y002225D01*
X026832Y002225D01*
X026582Y001975D01*
X033082Y001975D02*
X033082Y001475D01*
X033332Y001225D01*
X033832Y001225D01*
X034082Y001475D01*
X034332Y001225D01*
X034832Y001225D01*
X035082Y001475D01*
X035332Y001225D01*
X035832Y001225D01*
X036082Y001475D01*
X036332Y001225D01*
X036832Y001225D01*
X037082Y001475D01*
X037082Y001975D01*
X036832Y002225D01*
X036332Y002225D01*
X036082Y001975D01*
X035832Y002225D01*
X035332Y002225D01*
X035082Y001975D01*
X034832Y002225D01*
X034332Y002225D01*
X034082Y001975D01*
X033832Y002225D01*
X033332Y002225D01*
X033082Y001975D01*
X033332Y012725D02*
X033832Y012725D01*
X034082Y012975D01*
X034332Y012725D01*
X034832Y012725D01*
X035082Y012975D01*
X035332Y012725D01*
X035832Y012725D01*
X036082Y012975D01*
X036332Y012725D01*
X036832Y012725D01*
X037082Y012975D01*
X037082Y013475D01*
X036832Y013725D01*
X036332Y013725D01*
X036082Y013475D01*
X035832Y013725D01*
X035332Y013725D01*
X035082Y013475D01*
X034832Y013725D01*
X034332Y013725D01*
X034082Y013475D01*
X033832Y013725D01*
X033332Y013725D01*
X033082Y013475D01*
X033082Y012975D01*
X033332Y012725D01*
X030582Y012975D02*
X030332Y012725D01*
X029832Y012725D01*
X029582Y012975D01*
X029332Y012725D01*
X028832Y012725D01*
X028582Y012975D01*
X028332Y012725D01*
X027832Y012725D01*
X027582Y012975D01*
X027332Y012725D01*
X026832Y012725D01*
X026582Y012975D01*
X026582Y013475D01*
X026832Y013725D01*
X027332Y013725D01*
X027582Y013475D01*
X027832Y013725D01*
X028332Y013725D01*
X028582Y013475D01*
X028832Y013725D01*
X029332Y013725D01*
X029582Y013475D01*
X029832Y013725D01*
X030332Y013725D01*
X030582Y013475D01*
X030582Y012975D01*
X024082Y012975D02*
X024082Y013475D01*
X023832Y013725D01*
X023332Y013725D01*
X023082Y013475D01*
X022832Y013725D01*
X022332Y013725D01*
X022082Y013475D01*
X021832Y013725D01*
X021332Y013725D01*
X021082Y013475D01*
X020832Y013725D01*
X020332Y013725D01*
X020082Y013475D01*
X020082Y012975D01*
X020332Y012725D01*
X020832Y012725D01*
X021082Y012975D01*
X021332Y012725D01*
X021832Y012725D01*
X022082Y012975D01*
X022332Y012725D01*
X022832Y012725D01*
X023082Y012975D01*
X023332Y012725D01*
X023832Y012725D01*
X024082Y012975D01*
X018332Y012975D02*
X018082Y012725D01*
X017582Y012725D01*
X017332Y012975D01*
X017082Y012725D01*
X016582Y012725D01*
X016332Y012975D01*
X016082Y012725D01*
X015582Y012725D01*
X015332Y012975D01*
X015082Y012725D01*
X014582Y012725D01*
X014332Y012975D01*
X014082Y012725D01*
X013582Y012725D01*
X013332Y012975D01*
X013082Y012725D01*
X012582Y012725D01*
X012332Y012975D01*
X012082Y012725D01*
X011582Y012725D01*
X011332Y012975D01*
X011082Y012725D01*
X010582Y012725D01*
X010332Y012975D01*
X010082Y012725D01*
X009582Y012725D01*
X009332Y012975D01*
X009082Y012725D01*
X008582Y012725D01*
X008332Y012975D01*
X008082Y012725D01*
X007582Y012725D01*
X007332Y012975D01*
X007082Y012725D01*
X006582Y012725D01*
X006332Y012975D01*
X006082Y012725D01*
X005582Y012725D01*
X005332Y012975D01*
X005082Y012725D01*
X004582Y012725D01*
X004332Y012975D01*
X004082Y012725D01*
X003582Y012725D01*
X003332Y012975D01*
X003332Y013475D01*
X003582Y013725D01*
X004082Y013725D01*
X004332Y013475D01*
X004582Y013725D01*
X005082Y013725D01*
X005332Y013475D01*
X005582Y013725D01*
X006082Y013725D01*
X006332Y013475D01*
X006582Y013725D01*
X007082Y013725D01*
X007332Y013475D01*
X007582Y013725D01*
X008082Y013725D01*
X008332Y013475D01*
X008582Y013725D01*
X009082Y013725D01*
X009332Y013475D01*
X009582Y013725D01*
X010082Y013725D01*
X010332Y013475D01*
X010582Y013725D01*
X011082Y013725D01*
X011332Y013475D01*
X011582Y013725D01*
X012082Y013725D01*
X012332Y013475D01*
X012582Y013725D01*
X013082Y013725D01*
X013332Y013475D01*
X013582Y013725D01*
X014082Y013725D01*
X014332Y013475D01*
X014582Y013725D01*
X015082Y013725D01*
X015332Y013475D01*
X015582Y013725D01*
X016082Y013725D01*
X016332Y013475D01*
X016582Y013725D01*
X017082Y013725D01*
X017332Y013475D01*
X017582Y013725D01*
X018082Y013725D01*
X018332Y013475D01*
X018332Y012975D01*
M02*
