G75*
%MOIN*%
%OFA0B0*%
%FSLAX24Y24*%
%IPPOS*%
%LPD*%
%AMOC8*
5,1,8,0,0,1.08239X$1,22.5*
%
%ADD10C,0.0000*%
D10*
X001332Y000225D02*
X001332Y014721D01*
X039452Y014721D01*
X039452Y000225D01*
X001332Y000225D01*
X001682Y001225D02*
X001684Y001275D01*
X001690Y001325D01*
X001700Y001375D01*
X001713Y001423D01*
X001730Y001471D01*
X001751Y001517D01*
X001775Y001561D01*
X001803Y001603D01*
X001834Y001643D01*
X001868Y001680D01*
X001905Y001715D01*
X001944Y001746D01*
X001985Y001775D01*
X002029Y001800D01*
X002075Y001822D01*
X002122Y001840D01*
X002170Y001854D01*
X002219Y001865D01*
X002269Y001872D01*
X002319Y001875D01*
X002370Y001874D01*
X002420Y001869D01*
X002470Y001860D01*
X002518Y001848D01*
X002566Y001831D01*
X002612Y001811D01*
X002657Y001788D01*
X002700Y001761D01*
X002740Y001731D01*
X002778Y001698D01*
X002813Y001662D01*
X002846Y001623D01*
X002875Y001582D01*
X002901Y001539D01*
X002924Y001494D01*
X002943Y001447D01*
X002958Y001399D01*
X002970Y001350D01*
X002978Y001300D01*
X002982Y001250D01*
X002982Y001200D01*
X002978Y001150D01*
X002970Y001100D01*
X002958Y001051D01*
X002943Y001003D01*
X002924Y000956D01*
X002901Y000911D01*
X002875Y000868D01*
X002846Y000827D01*
X002813Y000788D01*
X002778Y000752D01*
X002740Y000719D01*
X002700Y000689D01*
X002657Y000662D01*
X002612Y000639D01*
X002566Y000619D01*
X002518Y000602D01*
X002470Y000590D01*
X002420Y000581D01*
X002370Y000576D01*
X002319Y000575D01*
X002269Y000578D01*
X002219Y000585D01*
X002170Y000596D01*
X002122Y000610D01*
X002075Y000628D01*
X002029Y000650D01*
X001985Y000675D01*
X001944Y000704D01*
X001905Y000735D01*
X001868Y000770D01*
X001834Y000807D01*
X001803Y000847D01*
X001775Y000889D01*
X001751Y000933D01*
X001730Y000979D01*
X001713Y001027D01*
X001700Y001075D01*
X001690Y001125D01*
X001684Y001175D01*
X001682Y001225D01*
X001682Y013725D02*
X001684Y013775D01*
X001690Y013825D01*
X001700Y013875D01*
X001713Y013923D01*
X001730Y013971D01*
X001751Y014017D01*
X001775Y014061D01*
X001803Y014103D01*
X001834Y014143D01*
X001868Y014180D01*
X001905Y014215D01*
X001944Y014246D01*
X001985Y014275D01*
X002029Y014300D01*
X002075Y014322D01*
X002122Y014340D01*
X002170Y014354D01*
X002219Y014365D01*
X002269Y014372D01*
X002319Y014375D01*
X002370Y014374D01*
X002420Y014369D01*
X002470Y014360D01*
X002518Y014348D01*
X002566Y014331D01*
X002612Y014311D01*
X002657Y014288D01*
X002700Y014261D01*
X002740Y014231D01*
X002778Y014198D01*
X002813Y014162D01*
X002846Y014123D01*
X002875Y014082D01*
X002901Y014039D01*
X002924Y013994D01*
X002943Y013947D01*
X002958Y013899D01*
X002970Y013850D01*
X002978Y013800D01*
X002982Y013750D01*
X002982Y013700D01*
X002978Y013650D01*
X002970Y013600D01*
X002958Y013551D01*
X002943Y013503D01*
X002924Y013456D01*
X002901Y013411D01*
X002875Y013368D01*
X002846Y013327D01*
X002813Y013288D01*
X002778Y013252D01*
X002740Y013219D01*
X002700Y013189D01*
X002657Y013162D01*
X002612Y013139D01*
X002566Y013119D01*
X002518Y013102D01*
X002470Y013090D01*
X002420Y013081D01*
X002370Y013076D01*
X002319Y013075D01*
X002269Y013078D01*
X002219Y013085D01*
X002170Y013096D01*
X002122Y013110D01*
X002075Y013128D01*
X002029Y013150D01*
X001985Y013175D01*
X001944Y013204D01*
X001905Y013235D01*
X001868Y013270D01*
X001834Y013307D01*
X001803Y013347D01*
X001775Y013389D01*
X001751Y013433D01*
X001730Y013479D01*
X001713Y013527D01*
X001700Y013575D01*
X001690Y013625D01*
X001684Y013675D01*
X001682Y013725D01*
X037682Y013725D02*
X037684Y013775D01*
X037690Y013825D01*
X037700Y013875D01*
X037713Y013923D01*
X037730Y013971D01*
X037751Y014017D01*
X037775Y014061D01*
X037803Y014103D01*
X037834Y014143D01*
X037868Y014180D01*
X037905Y014215D01*
X037944Y014246D01*
X037985Y014275D01*
X038029Y014300D01*
X038075Y014322D01*
X038122Y014340D01*
X038170Y014354D01*
X038219Y014365D01*
X038269Y014372D01*
X038319Y014375D01*
X038370Y014374D01*
X038420Y014369D01*
X038470Y014360D01*
X038518Y014348D01*
X038566Y014331D01*
X038612Y014311D01*
X038657Y014288D01*
X038700Y014261D01*
X038740Y014231D01*
X038778Y014198D01*
X038813Y014162D01*
X038846Y014123D01*
X038875Y014082D01*
X038901Y014039D01*
X038924Y013994D01*
X038943Y013947D01*
X038958Y013899D01*
X038970Y013850D01*
X038978Y013800D01*
X038982Y013750D01*
X038982Y013700D01*
X038978Y013650D01*
X038970Y013600D01*
X038958Y013551D01*
X038943Y013503D01*
X038924Y013456D01*
X038901Y013411D01*
X038875Y013368D01*
X038846Y013327D01*
X038813Y013288D01*
X038778Y013252D01*
X038740Y013219D01*
X038700Y013189D01*
X038657Y013162D01*
X038612Y013139D01*
X038566Y013119D01*
X038518Y013102D01*
X038470Y013090D01*
X038420Y013081D01*
X038370Y013076D01*
X038319Y013075D01*
X038269Y013078D01*
X038219Y013085D01*
X038170Y013096D01*
X038122Y013110D01*
X038075Y013128D01*
X038029Y013150D01*
X037985Y013175D01*
X037944Y013204D01*
X037905Y013235D01*
X037868Y013270D01*
X037834Y013307D01*
X037803Y013347D01*
X037775Y013389D01*
X037751Y013433D01*
X037730Y013479D01*
X037713Y013527D01*
X037700Y013575D01*
X037690Y013625D01*
X037684Y013675D01*
X037682Y013725D01*
X037682Y001225D02*
X037684Y001275D01*
X037690Y001325D01*
X037700Y001375D01*
X037713Y001423D01*
X037730Y001471D01*
X037751Y001517D01*
X037775Y001561D01*
X037803Y001603D01*
X037834Y001643D01*
X037868Y001680D01*
X037905Y001715D01*
X037944Y001746D01*
X037985Y001775D01*
X038029Y001800D01*
X038075Y001822D01*
X038122Y001840D01*
X038170Y001854D01*
X038219Y001865D01*
X038269Y001872D01*
X038319Y001875D01*
X038370Y001874D01*
X038420Y001869D01*
X038470Y001860D01*
X038518Y001848D01*
X038566Y001831D01*
X038612Y001811D01*
X038657Y001788D01*
X038700Y001761D01*
X038740Y001731D01*
X038778Y001698D01*
X038813Y001662D01*
X038846Y001623D01*
X038875Y001582D01*
X038901Y001539D01*
X038924Y001494D01*
X038943Y001447D01*
X038958Y001399D01*
X038970Y001350D01*
X038978Y001300D01*
X038982Y001250D01*
X038982Y001200D01*
X038978Y001150D01*
X038970Y001100D01*
X038958Y001051D01*
X038943Y001003D01*
X038924Y000956D01*
X038901Y000911D01*
X038875Y000868D01*
X038846Y000827D01*
X038813Y000788D01*
X038778Y000752D01*
X038740Y000719D01*
X038700Y000689D01*
X038657Y000662D01*
X038612Y000639D01*
X038566Y000619D01*
X038518Y000602D01*
X038470Y000590D01*
X038420Y000581D01*
X038370Y000576D01*
X038319Y000575D01*
X038269Y000578D01*
X038219Y000585D01*
X038170Y000596D01*
X038122Y000610D01*
X038075Y000628D01*
X038029Y000650D01*
X037985Y000675D01*
X037944Y000704D01*
X037905Y000735D01*
X037868Y000770D01*
X037834Y000807D01*
X037803Y000847D01*
X037775Y000889D01*
X037751Y000933D01*
X037730Y000979D01*
X037713Y001027D01*
X037700Y001075D01*
X037690Y001125D01*
X037684Y001175D01*
X037682Y001225D01*
M02*
